<svg xmlns="http://www.w3.org/2000/svg" viewBox="0 0 1080 897.01"><defs><style>.cls-1{fill:#15acb7;}.cls-2{fill:#0bb474;}.cls-3{fill:#13c58d;}.cls-4{fill:#0b8bae;}.cls-5{fill:#0d9664;}.cls-6{fill:#0b865c;}.cls-7{fill:#c6c3bc;}.cls-8{fill:#aba5ba;}.cls-9{fill:#3db2bf;}.cls-10{fill:#a19dcb;}.cls-11{fill:#39ceb7;}.cls-12{fill:#648ecf;}.cls-13{fill:#3b7974;}.cls-14{fill:#2d5046;}.cls-15{fill:#88b4aa;}.cls-16{fill:#5fc8c6;}.cls-17{fill:#6ec1c0;}.cls-18{fill:#51b2c2;}.cls-19{fill:#829f70;}.cls-20{fill:#0b7287;}.cls-21{fill:#0b0f47;}.cls-22{fill:#0b1873;}</style></defs><g id="Layer_2" data-name="Layer 2"><g id="Layer_1-2" data-name="Layer 1"><path class="cls-1" d="M1042.93,517.37c-9,17-17.7,34.21-27.07,51a406.16,406.16,0,0,1-57.72,78.77,28,28,0,0,0-1.84,2.45c-2,1.92-4,3.8-6,5.76Q934,671.83,917.74,688.3c-3.28,2.63-6.57,5.24-9.83,7.89-3.85,3.13-7.67,6.29-11.5,9.44,1.72-3.61,2.94-7.6,5.25-10.78,10.15-14,20.71-27.7,30.91-41.66,2.84-3.88,4.92-8.32,7.42-12.46,7.79-12.91,16.56-25.34,23.14-38.85,5.81-11.9,9.23-25,13.6-37.56,2.68-7.73,5-15.57,7.77-23.28,3.45-9.77,7.79-19.28,10.49-29.24,2.34-8.58,3.26-17.6,4.18-26.49,1.05-10.16,1.84-20.39,2-30.61.11-9.44-.81-18.9-1.27-28.35l9.3-.22a2,2,0,0,0,1.34-.59l6.27-1.2a4.23,4.23,0,0,0,1.46.2c11.33,3.88,15.66,1.19,15.44-10.14-.32-16.79-.83-33.58-1.69-50.35-.14-2.58-2.58-5.05-4-7.58-.6-16.1-.94-32.22-1.86-48.31-2-35.51-10.24-69.67-23.2-102.74-3.81-9.73-7.5-19.5-11.25-29.25q-5.24-11.59-10.46-23.19c4.65.74,9.33,1.35,13.93,2.3,1.38.29,2.49,1.73,3.86,2.31,2.72,1.16,5.54,2.93,8.33,2.95,9.3,0,17.68,6.81,27.38,3.62.56-.18,1.39.6,2.13.77,9.12,2.06,18.25,4.13,27.4,6.08.53.11,1.26-.74,1.9-1.15,1.51,1.84,3.54,3.46,4.43,5.56,3.33,7.87,6.29,15.89,9.38,23.85V429.15c-1.94-.38-3.86-.87-5.82-1.09a3.75,3.75,0,0,0-2.59.56c-6,5-11.5,10.64-17.89,15-7.5,5.12-13.43,10.36-10.62,20.51,0,13.86-.14,27.72-.06,41.58,0,2.21.86,4.41,1.32,6.61Z"/><path class="cls-1" d="M0,668.3V551c9.48.34,15.4-8.14,24.1-9.78.55-.1,1-1.1,1.36-1.78,1.83-3.85,3.6-7.73,5.39-11.6.52,2.14,1.09,4.28,1.57,6.43q3,13.23,5.95,26.47a1.21,1.21,0,0,0,.23,1.05L39.92,567a1,1,0,0,0,.17,1c.48,1.66,1,3.33,1.43,5,5,23.5,14.69,45.2,26,66.21,2.29,4.24,5.13,8.19,7.72,12.27l1.9,3,1.31,1.92L80,659.17c.5.67,1,1.34,1.51,2a1.18,1.18,0,0,0,.4,1L83.13,664c1.9,3,3.65,6.13,5.72,9a411.74,411.74,0,0,0,53,60.18c1.86,4.12,2.89,8.95,5.73,12.21C159,758.5,171,771,182.6,783.94c1.9,2.12,2.76,5.18,4.1,7.81l-14-4.72a57.42,57.42,0,0,0-5.23-3.18A718.82,718.82,0,0,1,66.26,725.46q-23.91-20.49-47.79-41C12.27,679.13,6.15,673.69,0,668.3Z"/><path class="cls-2" d="M1043.69,703.66c-.18-2-.51-4.07-.51-6.11q0-83.24,0-166.48c0-1.53.18-3.07.28-4.61,2.93-.7,5.85-1.43,8.79-2.12,3.18-.74,6.72-2.68,9.5-1.91,5.41,1.52,8.35-.56,12-4,4-3.72,2.53-8,3.18-12.09.58-3.7-2.33-8.47,3-10.86V739.27l-33.84-32.69C1045.33,705.61,1044.51,704.64,1043.69,703.66Z"/><path class="cls-2" d="M0,668.3c6.15,5.39,12.27,10.83,18.47,16.16q23.87,20.53,47.79,41c1.35,3.55,2.16,7.45,4.15,10.59,19,30,40.59,57.89,66.57,82.17,5,4.63,10.76,9,17,11.48,22.31,9.06,44.62,18.4,67.58,25.54,26.59,8.26,53.86,14.29,80.82,21.37a69.16,69.16,0,0,1,7.66,3l-6.33.36-2.67-.35-5-1.16-2.7-.34-4.95-1.35c-13.43-3.52-26.92-6.81-40.26-10.62-16-4.57-32-9.35-47.8-14.54-7.44-2.44-14.41-6.24-21.72-9.1-49.45-19.41-96.6-43.23-140.23-73.62C25.08,759.69,12.74,749.19,0,739.27Z"/><path class="cls-3" d="M36.52,254.89q.09,26.17.19,52.36c-.38,6.86-1,13.71-1.08,20.57-.16,14.78,0,29.56,0,44.34-.46,2.58-.92,5.15-1.39,7.73l-.65,1.56-1.79,6.18c-5.53,3.86-11,7.8-16.61,11.58-5,3.38-10.12,6.6-15.18,9.89V270.24c6.12-.69,11.6-1.9,13.07-9.48.34-1.7,5-4.36,5.5-4C25.41,262.59,30.83,257.81,36.52,254.89Z"/><path class="cls-4" d="M30.85,527.88c-1.79,3.87-3.56,7.75-5.39,11.6-.32.68-.81,1.68-1.36,1.78C15.4,542.9,9.48,551.38,0,551V440c7.66-2.13,11.37-9.19,17.11-13.72,2.05-.09,4.12,0,6.15-.3,10.19-1.33,11.87-3.4,12.28-13.84.14-3.54,1-7,1.55-10.57,8.9-5.14,18.12-9.81,26.58-15.59,5.43-3.71,5.79-1.46,5.81,3.14-1,3.55-2.46,7-3.09,10.66a106.65,106.65,0,0,0-1.55,15c-.1,3.72.67,7.47,1,11.2l-2.35.28c-8.38.25-16.77.68-25.16.69-6.38,0-8.52,4.05-8.74,9.2-.73,16.75-1.07,33.52-1.57,50.29Q29.47,507.15,30.85,527.88Z"/><path class="cls-2" d="M36.52,254.89c-5.69,2.92-11.11,7.7-18,1.91-.47-.4-5.16,2.26-5.5,4-1.47,7.58-6.95,8.79-13.07,9.48V148.35c6.82-1.43,14.14-.21,20.34-5,3.3-2.53,6-.62,7.61,3.25,2,4.84,4.49,9.47,6.77,14.19l.68,3.31a1.84,1.84,0,0,0,.61,1.09,38.26,38.26,0,0,1,.72,5.28Q36.67,212.7,36.52,254.89Z"/><path class="cls-5" d="M1080,495.5c-5.35,2.39-2.44,7.16-3,10.86-.65,4.13.83,8.37-3.18,12.09-3.7,3.42-6.64,5.5-12,4-2.78-.77-6.32,1.17-9.5,1.91-2.94.69-5.86,1.42-8.79,2.12-.18-3-.35-6.06-.53-9.09l1.41-5L1058.55,480c3-1.14,5.91-2.33,8.91-3.39,4.16-1.47,8.36-2.83,12.54-4.24Z"/><path class="cls-1" d="M69.48,389.07c0-4.6-.38-6.85-5.81-3.14-8.46,5.78-17.68,10.45-26.58,15.59a24.88,24.88,0,0,0-.16-4.58,19.26,19.26,0,0,0-1.67-3.83A21.32,21.32,0,0,0,32.13,396c-1.58,2.2-2.91,4.57-4.35,6.87-.6-1.84-1.21-3.67-1.81-5.5a42,42,0,0,0-5.19,2.49c-7,4.54-13.86,9.2-20.78,13.82V409.1c5.06-3.29,10.17-6.51,15.18-9.89,5.59-3.78,11.08-7.72,16.61-11.58q1.73,1.39,3.43,2.81c2.35-.78,5.14-1,7-2.44,6.85-5.4,13.4-11.18,20.05-16.86q8.33-7.11,16.62-14.29c.13,5.56,2.44,3.68,5,1.51q12.78-10.92,25.63-21.77c4.43,1,1.28,4.05,1.64,6.15L98.53,361.05c-10,4.1-14.84,14-22.79,20.36-.27.22-.11,1-.16,1.48Z"/><path class="cls-5" d="M1042.84,120.65c6.35,2.39,12.63,5,19.06,7.11,5.95,2,12.06,3.46,18.1,5.16v21.6c-9.47,1-18.34.37-23.79-9.14-.09-.16-.47-.17-.71-.25-.06-.45-.1-.9-.12-1.36v-1.7l-1.18-1.5-2-3.07,0,.06-1.55-2q0-.45,0-.9l-1.58-1.81h0l-1.59-3.1,0,.06-1.57-1.59h0l-1.57-1.57,0,0c-.52-1-1-2.09-1.55-3.13h0C1043,122.63,1042.92,121.64,1042.84,120.65Z"/><path class="cls-5" d="M34.72,160.81c-2.28-4.72-4.77-9.35-6.77-14.19-1.6-3.87-4.31-5.78-7.61-3.25-6.2,4.77-13.52,3.55-20.34,5V119c6.65.46,13.73-1.69,19.68,3.17l.35.56.33.51,4.35,9.8a2.43,2.43,0,0,0,.65,1.17Z"/><path class="cls-2" d="M1043.08,464.13c-2.81-10.15,3.12-15.39,10.62-20.51,6.39-4.36,11.91-10,17.89-15a3.75,3.75,0,0,1,2.59-.56c2,.22,3.88.71,5.82,1.09v7.72l-12.11,14c-2.49.43-5.39.18-7.39,1.41C1054.5,455.91,1048.86,460.13,1043.08,464.13Z"/><path class="cls-6" d="M1067.89,450.85l12.11-14v35.48c-4.18,1.41-8.38,2.77-12.54,4.24-3,1.06-5.94,2.25-8.91,3.39Q1063.22,465.42,1067.89,450.85Z"/><path class="cls-2" d="M1055.5,145.13c.24.08.62.09.71.25,5.45,9.51,14.32,10.1,23.79,9.14v44.75c-3.09-8-6-16-9.38-23.85-.89-2.1-2.92-3.72-4.43-5.56Q1060.85,157.5,1055.5,145.13Z"/><path class="cls-6" d="M19.68,122.21C13.73,117.35,6.65,119.5,0,119V86.64Z"/><path class="cls-1" d="M17.11,426.23C11.37,430.76,7.66,437.82,0,440V423c8.17-.06,13.1-6.57,17.65-11.28,4.31-4.47,5-2.44,7.33.41C23.69,417.56,22.91,423.29,17.11,426.23Z"/><path class="cls-3" d="M25,412.11c-2.31-2.85-3-4.88-7.33-.41C13.1,416.41,8.17,422.92,0,423v-9.26c6.92-4.62,13.81-9.28,20.78-13.82A42,42,0,0,1,26,397.41c.6,1.83,1.21,3.66,1.81,5.5l0,0-1.55,5Z"/><path class="cls-5" d="M1043.69,703.66c.82,1,1.64,2,2.47,2.92C1045.33,705.61,1044.51,704.64,1043.69,703.66Z"/><path class="cls-5" d="M36,165.21a1.84,1.84,0,0,1-.61-1.09Z"/><path class="cls-6" d="M25.36,134.25a2.43,2.43,0,0,1-.65-1.17A.91.91,0,0,1,25.36,134.25Z"/><polygon class="cls-6" points="20.36 123.28 20.03 122.77 20.43 122.89 20.36 123.28"/><path class="cls-7" d="M141.88,733.2a411.74,411.74,0,0,1-53-60.18c-2.07-2.88-3.82-6-5.72-9l-1.21-1.84a1.18,1.18,0,0,1-.4-1c-.51-.66-1-1.33-1.51-2l-1.53-2.79-1.31-1.92-1.9-3c.24-1.39,1.12-3.07.63-4.12-5.26-11.51,0-23.92-3.15-35.61-.37-1.38.82-3.46,1.76-4.89,3.14-4.74,5-9.5,2.17-15.11-.5-1-.65-3,0-3.63,4.77-4.69,5-10.21,3.68-16.23-.2-.91,0-2.6.62-2.89,7.74-3.91,8.56-11.52,10.31-18.68.16-.66,1.12-1.09,1.47-1.75,1-2,2.06-4,2.93-6.08,1.87-4.45,3.79-8.88,5.41-13.42,2.52-7.09,3.92-14.63,9.34-20.43.72-.77.29-2.52.72-3.71q1.64-4.61,3.59-9.1c1-2.32,2.28-4.53,3.4-6.81,5-10.12,10.34-20.09,14.84-30.42,3.33-7.66,5.62-15.77,11.72-21.92.3-.3.18-1,.3-1.49,2.28-9,2.32-9.5,12-8.9,6.79.42,13.69-1.19,16-6.57,3.49-8.24,8.21-15.72,11.76-23.75,1.7-3.87,1.59-8.28,6-10.74a5.55,5.55,0,0,0,2.62-3.62c.43-6.06,4.6-10,7.47-14.78,8.35-13.92,16.25-28.12,24.44-42.15.86-1.48,2.44-2.54,3.68-3.81,1.79-1.81,4.34-3.32,5.22-5.51A53.28,53.28,0,0,1,247.28,296c6.92-6.55,11.69-15.34,17.66-22.95,5.46-7,11.34-13.6,16.87-20.51,2.55-3.18,4.36-7,7.09-10,6.53-7.12,13.56-13.77,20.09-20.89,10-10.95,19.18-22.82,29.89-33,12-11.47,25-21.94,38.18-32.14,20.33-15.77,41.77-30,66.08-38.93a576.17,576.17,0,0,1,57.11-18,308.5,308.5,0,0,1,48.47-7.83c17.24-1.48,34.63-2.89,52,.69,11.25,2.32,22.79,3.25,34.14,5.12,15.38,2.54,30.9,4.59,46,8.3,14.56,3.58,28.5,9.23,43.25,12.75,20,4.77,39,13.37,58.46,20.31,1.69.6,3.46,1,5.16,1.57,9.87,3.4,21.06,5,29.28,10.71,10.55,7.4,25.3,6.23,33.35,17.7a2.67,2.67,0,0,0,2.09.8c6-.61,9.36,3.33,13,7,1.41,1.43,3.16,3.41,4.86,3.53,12.29.89,20.51,10.08,30.26,15.57,9.08,5.11,20.41,7.16,27.13,16.37.48.65,1.91.9,2.87.84,4.06-.24,6.58,1.7,8.89,4.9,1.22,1.68,3.69,2.65,5.78,3.45,5.23,2,11,2.9,14.36,8.25.31.5,1.27.6,1.92.88.11-.71.5-1.51.29-2.11-1.35-3.87-3-7.65-4.2-11.57-.6-2-.51-4.14-.74-6.22a68.55,68.55,0,0,1,6.51,3.88c1.76,1.3,3.25,4.4,4.78,4.35,6.56-.22,9.4,4.2,12.74,8.48,1.51,1.93,3.91,3.14,5.72,4.86a117.86,117.86,0,0,1,8.38,8.5c3.78,4.4,7.89,8.69,10.78,13.65,4.46,7.65,8,15.84,11.91,23.81a1.12,1.12,0,0,1,0,.76c-2.28,7.31,1.15,13.52,3.76,19.93a17.76,17.76,0,0,1,1.49,5.86c.3,9.12,3.42,17.79,2.11,27.34-1.8,13.06-1.44,26.42-1.76,39.66-.07,3.2.86,6.42,1.33,9.63-.09,1.56-.17,3.13-.25,4.7-4.37,7.17-4.2,15.16-4.19,23.12-.18,1.05-.35,2.1-.53,3.16l-.9,5c-.22,1.42-.45,2.84-.67,4.27l-1.24,2.8-6.27,1.2-1.34.59-9.3.22L989,425.83c1-9.61,2.45-19.21,2.75-28.85.28-8.81-.73-17.66-1.17-26.49q0-.74,0-1.47c0-7,0-14-.1-21.07,0-.44-.4-.88-.61-1.32a7.33,7.33,0,0,0-.81,2.46c.42,6.63,1,13.25,1.46,19.88-.14.16-.41.34-.39.48a5.69,5.69,0,0,0,.39,1.09c-.47,9.89-.92,19.79-1.42,29.68-.45,8.69-1,17.37-1.45,26a5,5,0,0,1-.41,1.24l-30.47.15c-3.55-.31-3.6,1.38-3.87,4.6-1.27,15.52-2.62,31.08-5,46.46a331.27,331.27,0,0,1-19.81,73.21c-8.29,20.61-16.74,41.18-26,61.37-11.23,24.54-25.66,47.27-41.91,68.82-.95,1.27-1.2,3.06-1.78,4.61,1.41-.79,3.1-1.29,4.18-2.4,5.21-5.25,10.25-10.67,15.35-16-1,2.27-1.56,4.8-2.94,6.78-17.2,24.6-38.71,45.27-60.26,65.9l-4.81,3.79c-5.2,4.16-10.36,8.37-15.64,12.43-.82.63-2.16.58-3.26.84a16,16,0,0,1,1.35-3.26,18.38,18.38,0,0,1,2.7-2.74l26.84-25.37a17.87,17.87,0,0,0,2.65-2.79,7.59,7.59,0,0,0,.64-2.55,13.72,13.72,0,0,0-2.83.49c-.68.27-1.17,1-1.79,1.44-14,10.3-27.78,21.08-42.23,30.79a433.35,433.35,0,0,1-78,41.7,529.48,529.48,0,0,1-86.65,27,400.41,400.41,0,0,1-77,8.85c-19.66.44-39.4-1.53-59.08-2.74a347.89,347.89,0,0,1-71.63-12.29c-59.14-16.38-114.67-40.5-165-76a17.61,17.61,0,0,0-3.87-1.56c.53,1.28.7,3,1.63,3.78,7.08,6.3,14.39,12.34,21.48,18.63a290.6,290.6,0,0,0,98.61,58.07c24,8.29,48.48,14.93,72.71,22.46,2.9.9,5.53,2.7,8.28,4.09a88.07,88.07,0,0,1-9.35-.62c-3.51-.59-6.92-1.8-10.43-2.51-.63-.12-1.5.91-2.26,1.41.49.51.89,1.26,1.48,1.49,1.67.64,3.41,1.1,5.14,1.58,6.93,1.92,13.86,3.79,20.77,5.77a9.7,9.7,0,0,1,2.37,1.62,12.39,12.39,0,0,1-3.1.6c-7.92-.53-15.82-1.19-23.73-1.75a8.25,8.25,0,0,0-2.1.39,9.45,9.45,0,0,0,2.35,1.42c4.19,1.08,8.44,2,12.63,3,20.42,5.21,40.91,9.63,62.22,9.07,4.39-.12,8.83,2,13.25,3-18.95-.45-38,.17-56.84-1.63-22.62-2.16-45.15-5.81-67.52-9.92-14.29-2.62-28.22-7.24-42.32-11-2.62-.94-5.25-1.85-7.86-2.81l-35.74-13.24-4.21-1.6h0a87.89,87.89,0,0,0-8-4.46c-25.52-11.1-49.62-24.77-72.81-40.1-4.89-3.23-9.91-6.28-14.87-9.41-14.28-10.6-28.6-21.16-42.84-31.82C151.31,740.89,146.64,737,141.88,733.2Zm713-41.63.49-.46-.34-.33-.43.51L852.88,693l-6,6.12-.69,1.55,1-1.33,6-6ZM392,217.77l-.13.14-1.42,1.48c-7.39,8.79-14.81,17.55-22.08,26.44-.31.38.77,1.89,1.2,2.88l-5.32,7.62-2,2.84,0,.06c-.41.58-.81,1.17-1.21,1.76h0c-4.09,6-8.81,11.66-12.08,18.06s-4.76,14-7.87,20.67a109.12,109.12,0,0,0-9.65,38.41c-.58,3.46-1.27,6.9-1.71,10.38-.42,3.22.25,6.85-1,9.65-3.77,8.35-4.77,17.06-4.32,25.95.68,13.45,1.79,26.88,2.72,40.31l-33.78,1.76-6.58.16-27.47,1.41c-5.72-.09-6,4.55-6,8.09-.25,19.42-1.5,39,.25,58.22,2.57,28.24,11,55.24,23.38,80.83,1.15,2.37,4.45,3.7,6.75,5.52,4.46,6.82,8.53,13.94,13.47,20.39,11.35,14.81,22,30.35,35,43.59,11.44,11.66,25.27,21.13,38.72,30.61a192.18,192.18,0,0,0,56.22,27.13c31,9.16,62.55,14.44,95.4,11.39a268.19,268.19,0,0,0,75.82-18c16.42-6.62,32-16,46.67-26.11,12.76-8.77,23.68-20.19,35.42-30.44h0c.65-1,1.29-2.08,1.93-3.12,8-7,16.51-13.46,23.95-21,4.46-4.53,7.31-10.65,10.88-16,5.51-10.34,11.42-20.48,16.45-31.05,14.52-30.46,21-63,22.12-96.42.5-14.44-1.74-29-2.74-43.48l33.7-1.94,6.42-.11c6.41.06,12.82.26,19.22.13,6.93-.13,9.29-2.19,9.95-9,.79-8.12,1.54-16.29,1.63-24.44a252.79,252.79,0,0,0-10.29-75.63q-3.29-11-6.6-22c2-2.38,1.26-3.87-1.57-4.64l-1.52-3.07-1.57-3.11c-.5-1-1-2-1.51-3.06,5.65-6.77-.59-11.41-3.18-16.51-14.29-28.17-35.17-51.21-58.74-71.56-27.26-23.54-58.75-39.85-93.51-50a244.87,244.87,0,0,0-65.06-9.72c-13-.22-26,1.51-39,2.82-27.06,2.74-52.37,11.82-76.64,23.44-11.71,5.6-22.24,13.66-33.17,20.82-1.75,1.14-2.78,3.38-4.14,5.11l-1.55.24L424.46,187l-1.67,3-3.09,1.6c-.48.11-1,.2-1.45.28L415,196.22l-3,3-3,1.61-.14.09-1.49,1.42-1.55.27-1.4,1.33-3.22,4.55-3,1.6-.08.09-4.54,6.08-.15.08Z"/><path class="cls-8" d="M1024.55,381.31c-.47-3.21-1.4-6.43-1.33-9.63.32-13.24,0-26.6,1.76-39.66,1.31-9.55-1.81-18.22-2.11-27.34a17.76,17.76,0,0,0-1.49-5.86c-2.61-6.41-6-12.62-3.76-19.93a1.12,1.12,0,0,0,0-.76c-3.91-8-7.45-16.16-11.91-23.81-2.89-5-7-9.25-10.78-13.65a117.86,117.86,0,0,0-8.38-8.5c-1.81-1.72-4.21-2.93-5.72-4.86-3.34-4.28-6.18-8.7-12.74-8.48-1.53,0-3-3.05-4.78-4.35a68.55,68.55,0,0,0-6.51-3.88c.23,2.08.14,4.26.74,6.22,1.22,3.92,2.85,7.7,4.2,11.57.21.6-.18,1.4-.29,2.11-.65-.28-1.61-.38-1.92-.88-3.32-5.35-9.13-6.23-14.36-8.25-2.09-.8-4.56-1.77-5.78-3.45-2.31-3.2-4.83-5.14-8.89-4.9-1,.06-2.39-.19-2.87-.84-6.72-9.21-18-11.26-27.13-16.37-9.75-5.49-18-14.68-30.26-15.57-1.7-.12-3.45-2.1-4.86-3.53-3.63-3.69-7-7.63-13-7a2.67,2.67,0,0,1-2.09-.8c-8.05-11.47-22.8-10.3-33.35-17.7-8.22-5.76-19.41-7.31-29.28-10.71-1.7-.59-3.47-1-5.16-1.57-19.45-6.94-38.5-15.54-58.46-20.31-14.75-3.52-28.69-9.17-43.25-12.75-15.1-3.71-30.62-5.76-46-8.3-11.35-1.87-22.89-2.8-34.14-5.12-17.35-3.58-34.74-2.17-52-.69a308.5,308.5,0,0,0-48.47,7.83,576.17,576.17,0,0,0-57.11,18c-24.31,8.88-45.75,23.16-66.08,38.93-13.14,10.2-26.17,20.67-38.18,32.14-10.71,10.23-19.85,22.1-29.89,33-6.53,7.12-13.56,13.77-20.09,20.89-2.73,3-4.54,6.79-7.09,10-5.53,6.91-11.41,13.55-16.87,20.51-6,7.61-10.74,16.4-17.66,22.95a53.28,53.28,0,0,0-13.17,19.34c-.88,2.19-3.43,3.7-5.22,5.51-1.24,1.27-2.82,2.33-3.68,3.81-8.19,14-16.09,28.23-24.44,42.15-2.87,4.77-7,8.72-7.47,14.78a5.55,5.55,0,0,1-2.62,3.62c-4.36,2.46-4.25,6.87-6,10.74-3.55,8-8.27,15.51-11.76,23.75-2.28,5.38-9.18,7-16,6.57-9.7-.6-9.74-.11-12,8.9-.12.5,0,1.19-.3,1.49-6.1,6.15-8.39,14.26-11.72,21.92-4.5,10.33-9.84,20.3-14.84,30.42-1.12,2.28-2.38,4.49-3.4,6.81q-1.95,4.49-3.59,9.1c-.43,1.19,0,2.94-.72,3.71-5.42,5.8-6.82,13.34-9.34,20.43-1.62,4.54-3.54,9-5.41,13.42-.87,2.07-1.89,4.09-2.93,6.08-.35.66-1.31,1.09-1.47,1.75C89.51,557.45,88.69,565.06,81,569c-.57.29-.82,2-.62,2.89,1.35,6,1.09,11.54-3.68,16.23-.62.6-.47,2.62,0,3.63,2.79,5.61,1,10.37-2.17,15.11-.94,1.43-2.13,3.51-1.76,4.89,3.18,11.69-2.11,24.1,3.15,35.61.49,1-.39,2.73-.63,4.12-2.59-4.08-5.43-8-7.72-12.27-11.34-21-21-42.71-26-66.21-.47-1.66-1-3.33-1.43-5a1,1,0,0,1-.17-1l-1.32-5.19a1.21,1.21,0,0,1-.23-1.05c6.16-6.27,3.15-17.82,12.8-22.22.87-.4.78-2.8,1.24-4.25.88-2.84,1.69-5.72,2.79-8.48,2.27-5.72,3.14-11.85,8.61-16.39,2.13-1.78.43-7.84,1.06-11.85s2.79-7.95,2.83-11.93a209,209,0,0,0-1.46-24.48c-.39-3.64-2.08-7.15-3.18-10.72l.48-24.22,2.35-.28c9.46-.37,19-.29,28.38-1.25,7.88-.81,8.72-2.18,6.94-9.79-1-4.16-.15-6.63,3.08-9.26a124.72,124.72,0,0,0,14.08-13c8.19-9.06,15.74-18.71,23.92-27.77,17.14-19,34.55-37.72,51.79-56.6q22.54-24.71,45-49.51c6-6.61,12.32-13,17.86-19.93,8.29-10.43,16-21.27,24-32a331.07,331.07,0,0,1,54.75-58c31.51-26.11,65.7-48.56,104.4-62.78a514.88,514.88,0,0,1,57.38-17c14.87-3.57,30.25-5.21,45.49-7,11.64-1.37,23.43-2.47,35.11-2.15,15.58.42,31.14,2.06,46.65,3.74A185,185,0,0,1,648,68.09c17.64,4.25,35.19,8.85,52.8,13.24,9.45,2.36,18.82,5.58,28.42,6.62s18.57,7.58,28.85,3.83c.89-.33,2.29.85,3.49,1.19,5.37,1.51,10.67,3.56,16.15,4.34,17.39,2.48,34.91,4.14,52.26,6.85a29.58,29.58,0,0,0,17-2.09c3.61,1,7.18,2.24,10.84,3,10.05,2.17,20.73,2.28,29.2,9.34,7,7.84,14.43,15.32,20.75,23.65,4,5.3,9,7.8,14.85,10.12,9.27,3.66,18.18,8.22,27.16,12.56,6.1,2.94,13.66,2.57,18.45,8.77,1.19,1.54,5.76.42,7,2,4.57,5.62,10.06,6.21,16.4,4.67,3.75,9.75,7.44,19.52,11.25,29.25,13,33.07,21.16,67.23,23.2,102.74.92,16.09,1.26,32.21,1.86,48.31-.7,4.79-1.41,9.58-2.09,14.38C1025.45,374.33,1025,377.82,1024.55,381.31Z"/><path class="cls-4" d="M1055.5,145.13q5.34,12.38,10.69,24.73c-.64.41-1.37,1.26-1.9,1.15-9.15-1.95-18.28-4-27.4-6.08-.74-.17-1.57-1-2.13-.77-9.7,3.19-18.08-3.58-27.38-3.62-2.79,0-5.61-1.79-8.33-2.95-1.37-.58-2.48-2-3.86-2.31-4.6-.95-9.28-1.56-13.93-2.3L969,134.37,946.13,102c8.21,2.93,16.68-.32,25.46,2.19,9.79,2.79,21.06-.65,31.53,2.25a7.16,7.16,0,0,0,4.48-.74c7.4-3.45,14.49-1.37,21.6.95h0l7.71,7.7,0,0,3.07,4.62h0q1.54,2.33,3.07,4.67h0c.52,1,1,2.08,1.55,3.13l0,0,1.57,1.57h0l1.57,1.59,0-.06,1.59,3.1h0l1.58,1.81q0,.45,0,.9l1.55,2,0-.06,2,3.07,1.18,1.5c-.16.17-.48.38-.45.52a6.55,6.55,0,0,0,.46,1.18C1055.4,144.23,1055.44,144.68,1055.5,145.13Z"/><path class="cls-9" d="M989,425.83l10.89.52c.46,9.45,1.38,18.91,1.27,28.35-.12,10.22-.91,20.45-2,30.61-.92,8.89-1.84,17.91-4.18,26.49-2.7,10-7,19.47-10.49,29.24-2.73,7.71-5.09,15.55-7.77,23.28-4.37,12.59-7.79,25.66-13.6,37.56-6.58,13.51-15.35,25.94-23.14,38.85-2.5,4.14-4.58,8.58-7.42,12.46-10.2,14-20.76,27.66-30.91,41.66-2.31,3.18-3.53,7.17-5.25,10.78l-36.93,30.61c1-2.85,1.4-6.12,3.09-8.46,4.95-6.83,10.43-13.28,15.66-19.92,7.92-10.07,15.92-20.09,23.66-30.31,5.23-6.91,10.62-13.79,15-21.25,8-13.67,14.41-28.28,23-41.51a191.63,191.63,0,0,0,19.14-39,459.09,459.09,0,0,0,16.65-57.53c4.05-18.2,6.05-36.88,8.49-55.4.58-4.41-.67-9.05-1.08-13.59q2.07-10.89,4.13-21.79a5,5,0,0,0,.41-1.24A5.77,5.77,0,0,0,989,425.83Z"/><path class="cls-10" d="M969,134.37,981.26,153q5.22,11.6,10.46,23.19c-6.34,1.54-11.83,1-16.4-4.67-1.25-1.54-5.82-.42-7-2-4.79-6.2-12.35-5.83-18.45-8.77-9-4.34-17.89-8.9-27.16-12.56-5.87-2.32-10.82-4.82-14.85-10.12-6.32-8.33-13.77-15.81-20.75-23.65,6.86,1.7,14.17,2.4,20.46,5.31,11.24,5.2,24.48,3.5,35,10.8.75.52,2.46-.56,3.69-.46,2.24.17,5.21-.13,6.54,1.15C957.68,136,963.23,135.35,969,134.37Z"/><path class="cls-4" d="M1067.89,450.85q-4.67,14.56-9.34,29.13l-14.21,32.34c-.46-2.2-1.31-4.4-1.32-6.61-.08-13.86,0-27.72.06-41.58,5.78-4,11.42-8.22,17.42-11.87C1062.5,451,1065.4,451.28,1067.89,450.85Z"/><path class="cls-9" d="M1024.55,381.31c.46-3.49.9-7,1.39-10.46.68-4.8,1.39-9.59,2.09-14.38,1.37,2.53,3.81,5,4,7.58.86,16.77,1.37,33.56,1.69,50.35.22,11.33-4.11,14-15.44,10.14-.08-1-.15-2-.22-3,.22-1.43.45-2.85.67-4.27l.9-5c.18-1.06.35-2.11.53-3.16q2.1-11.56,4.19-23.12C1024.38,384.44,1024.46,382.87,1024.55,381.31Z"/><path class="cls-11" d="M859.48,736.24l36.93-30.61c3.83-3.15,7.65-6.31,11.5-9.44,3.26-2.65,6.55-5.26,9.83-7.89Q900,706.51,882.2,724.73L878,729.06l-1.07,1.05-.46.43-1.14,1.11-.4.39-1.2,1.13-8.12,7.73c-2.42,1.78-4.92,3.46-7.23,5.37-7.4,6.09-14.73,12.27-22.09,18.42,6-9.92,12.82-19.19,21.49-27l1.6-1.44Z"/><path class="cls-8" d="M1018,421.54c.07,1,.14,2,.22,3a4.23,4.23,0,0,1-1.46-.2C1017.18,423.4,1017.6,422.47,1018,421.54Z"/><path class="cls-9" d="M1009.16,426.13l1.34-.59A2,2,0,0,1,1009.16,426.13Z"/><path class="cls-3" d="M387,894.6c-7.45-1.31-14.93-2.44-22.33-4-8.63-1.78-17.14-4.11-25.77-5.84-9.6-1.93-19.28-3.46-28.92-5.16a69.16,69.16,0,0,0-7.66-3c-27-7.08-54.23-13.11-80.82-21.37-23-7.14-45.27-16.48-67.58-25.54-6.21-2.52-12-6.85-17-11.48-26-24.28-47.61-52.17-66.57-82.17-2-3.14-2.8-7-4.15-10.59A718.82,718.82,0,0,0,167.5,783.85a57.42,57.42,0,0,1,5.23,3.18c5.6,6.17,11,12.52,16.87,18.44a52.38,52.38,0,0,0,9.68,7.25c2.61,1.63,5.66,2.52,8.38,4,2.46,1.34,4.73,3,7.08,4.54,9.57,6.29,19.11,12.62,28.72,18.86a70.92,70.92,0,0,0,10.44,6.13c7.68,3.27,15.69,5.76,23.33,9.11,15.19,6.65,30.22,13.67,45.33,20.51a20.37,20.37,0,0,0,3,.76c9.38,2.56,18.66,5.61,28.16,7.57,14.2,2.93,28.57,5.09,42.87,7.58q.1.53.18,1.05a6.63,6.63,0,0,0-.43,1.46l-5.68-.43Z"/><path class="cls-11" d="M396.55,891.77c-14.3-2.49-28.67-4.65-42.87-7.58-9.5-2-18.78-5-28.16-7.57a20.37,20.37,0,0,1-3-.76C307.45,869,292.42,862,277.23,855.35c-7.64-3.35-15.65-5.84-23.33-9.11a70.92,70.92,0,0,1-10.44-6.13c-9.61-6.24-19.15-12.57-28.72-18.86-2.35-1.54-4.62-3.2-7.08-4.54-2.72-1.47-5.77-2.36-8.38-4a52.38,52.38,0,0,1-9.68-7.25c-5.85-5.92-11.27-12.27-16.87-18.44l14,4.72,0,0,3.28,1.57,43,17,7.82,3.2c.46.45.92.9,1.37,1.36l.12.12c2.23,2.35,4.13,5.2,6.75,7,12.85,8.62,25.67,17.05,39.64,24.16,11.39,5.79,22.19,13.38,34.2,18.17,14.65,5.84,29.68,10.77,44.65,15.76,8.22,2.74,16.72,4.65,25,7.34C394.14,887.86,395.21,890.24,396.55,891.77Z"/><path class="cls-10" d="M63.06,450.46c1.1,3.57,2.79,7.08,3.18,10.72a209,209,0,0,1,1.46,24.48c0,4-2.2,7.89-2.83,11.93s1.07,10.07-1.06,11.85c-5.47,4.54-6.34,10.67-8.61,16.39-1.1,2.76-1.91,5.64-2.79,8.48-.46,1.45-.37,3.85-1.24,4.25-9.65,4.4-6.64,16-12.8,22.22q-3-13.23-5.95-26.47c-.48-2.15-1.05-4.29-1.57-6.43q-1.39-20.73-2.78-41.46c4.23.16,6.52-1.81,7.48-6,.41-1.78,1.68-4.21,3.16-4.76,9.35-3.5,11.14-13.72,17.84-19.49C58.74,454.3,60.89,452.37,63.06,450.46Z"/><path class="cls-9" d="M233,810.25l-43-17-3.28-1.57,0,0c-1.34-2.63-2.2-5.69-4.1-7.81C171,771,159,758.5,147.61,745.41c-2.84-3.26-3.87-8.09-5.73-12.21,4.76,3.79,9.43,7.69,14.29,11.33,14.24,10.66,28.56,21.22,42.84,31.82,1.89,2.63,3.38,5.69,5.73,7.81,7.92,7.14,16.19,13.9,24.21,20.94C230.56,806.51,231.64,808.52,233,810.25Z"/><path class="cls-10" d="M38.6,561.83,39.92,567Z"/><path class="cls-10" d="M40.09,568c.48,1.66,1,3.33,1.43,5C41.05,571.31,40.57,569.64,40.09,568Z"/><path class="cls-8" d="M77.17,654.46l1.31,1.92Z"/><path class="cls-8" d="M80,659.17c.5.67,1,1.34,1.51,2C81,660.51,80.51,659.84,80,659.17Z"/><path class="cls-8" d="M81.92,662.17,83.13,664Z"/><path class="cls-5" d="M34.23,379.89l-.65,1.56Z"/><path class="cls-10" d="M847.06,102.07a29.58,29.58,0,0,1-17,2.09c-17.35-2.71-34.87-4.37-52.26-6.85C772.27,96.53,767,94.48,761.6,93c-1.2-.34-2.6-1.52-3.49-1.19C747.83,95.53,738.9,89,729.26,88s-19-4.26-28.42-6.62c-17.61-4.39-35.16-9-52.8-13.24a185,185,0,0,0-23.38-4.49c-15.51-1.68-31.07-3.32-46.65-3.74-11.68-.32-23.47.78-35.11,2.15-15.24,1.79-30.62,3.43-45.49,7a514.88,514.88,0,0,0-57.38,17c-38.7,14.22-72.89,36.67-104.4,62.78a331.07,331.07,0,0,0-54.75,58c-7.92,10.71-15.68,21.55-24,32-5.54,7-11.87,13.32-17.86,19.93q-22.47,24.77-45,49.51c-17.24,18.88-34.65,37.62-51.79,56.6-8.18,9.06-15.73,18.71-23.92,27.77a124.72,124.72,0,0,1-14.08,13c-3.23,2.63-4.05,5.1-3.08,9.26,1.78,7.61.94,9-6.94,9.79-9.41,1-18.92.88-28.38,1.25-.38-3.73-1.15-7.48-1-11.2a106.65,106.65,0,0,1,1.55-15c.63-3.63,2-7.11,3.09-10.66l6.1-6.18c13.24-1.41,16.75-13,23-21.84l12.58-18.31,10.86-8.3a1.08,1.08,0,0,0,1-.89l.5-1.55,2.73-4.7,2-.79a1.69,1.69,0,0,0,1.11.33c1.85,5.08,5.51,4.21,8.6,2a165.79,165.79,0,0,0,14.73-12.28c13-12,26.86-23.24,38.35-36.54a654,654,0,0,0,44.61-58.14c7.31-10.66,15.71-20.58,23.7-30.76,3.14-4,6.08-8.34,9.87-11.65,15.72-13.76,29.07-30,46.22-42.4,12.19-8.84,23.86-18.21,36.71-26.32,24.39-15.41,50-27.7,76.75-38.49,29.07-11.75,59.38-17.37,89.95-22.56,5-.86,9.92-2.8,14.93-3A528,528,0,0,1,621,50.31c12.87,1.6,25.56,4.7,38.33,7.09,4.23.79,8.58,4.36,12.62-.62.38-.46,2-.17,2.91.1C691,61.53,708,63.73,722.94,72.36c2.82,1.63,6.15,2.39,9.29,3.44,3.32,1.13,6.83,1.79,10,3.23C753,84,763.75,88.73,776,88.16q11.76.06,23.54.14c2.56,0,5.19-.29,7.68.17,25.35,4.65,51.1,4,76.64,6,3.17.25,6.24,1.82,9.36,2.77-2.61.61-5.25,1.81-7.84,1.71-10.36-.39-20.73-.93-31-1.94C849.92,96.56,847.33,97.29,847.06,102.07Z"/><path class="cls-12" d="M63.06,450.46c-2.17,1.91-4.32,3.84-6.51,5.72-6.7,5.77-8.49,16-17.84,19.49-1.48.55-2.75,3-3.16,4.76-1,4.18-3.25,6.15-7.48,6,.5-16.77.84-33.54,1.57-50.29.22-5.15,2.36-9.19,8.74-9.2,8.39,0,16.78-.44,25.16-.69Z"/><path class="cls-2" d="M25,412.11l1.23-4.2,1.55-5,0,0c1.44-2.3,2.77-4.67,4.35-6.87a21.32,21.32,0,0,1,3.13-2.93,19.26,19.26,0,0,1,1.67,3.83,24.88,24.88,0,0,1,.16,4.58c-.54,3.52-1.41,7-1.55,10.57-.41,10.44-2.09,12.51-12.28,13.84-2,.26-4.1.21-6.15.3C22.91,423.29,23.69,417.56,25,412.11Z"/><path class="cls-3" d="M1029.2,106.6c-7.11-2.32-14.2-4.4-21.6-.95a7.16,7.16,0,0,1-4.48.74c-10.47-2.9-21.74.54-31.53-2.25-8.78-2.51-17.25.74-25.46-2.19l-1.78-.17-3.5-4.25A5.73,5.73,0,0,0,941,96.1c9.31-.42,18.63-.9,27.94-1.25,4.34-.17,8.68-.09,13-.13l37.9-.39h0c.62,1,1.24,2.1,1.85,3.15C1026.28,98.81,1028.86,101.79,1029.2,106.6Z"/><path class="cls-1" d="M1019.85,94.33l-37.9.39c-4.35,0-8.69,0-13,.13-9.31.35-18.63.83-27.94,1.25L935,92.6l-.14-4.17c11.41.35,22.82.86,34.24,1,4.81,0,9.63-1.12,14.44-1.09,8.88.07,17.75.66,26.62.9,1.13,0,2.28-.72,3.42-1.11Q1016.74,91.21,1019.85,94.33Z"/><path class="cls-3" d="M1036.89,114.29l-7.71-7.7Z"/><path class="cls-3" d="M1040,118.94l-3.07-4.62Z"/><path class="cls-3" d="M1043.06,123.62q-1.53-2.34-3.07-4.67l2.85,1.7C1042.92,121.64,1043,122.63,1043.06,123.62Z"/><path class="cls-1" d="M1021.7,97.48c-.61-1-1.23-2.1-1.85-3.15C1020.47,95.38,1021.09,96.43,1021.7,97.48Z"/><path class="cls-9" d="M123.47,332l-.5,1.55a3.54,3.54,0,0,0-1,.89l-10.86,8.3c-.36-2.1,2.79-5.14-1.64-6.15,2.81-3.2,5.29-6.49,3.1-11.1l4.56-5.59,1.57-.36,9.33.08q.71,2.86,1.4,5.73l-.32.41a7.41,7.41,0,0,0-.91.75l-2,.79Z"/><path class="cls-11" d="M112.57,325.49c2.19,4.61-.29,7.9-3.1,11.1q-12.82,10.88-25.63,21.77c-2.54,2.17-4.85,4.05-5-1.51,9.49-7,18.24-14.63,24.52-24.76Z"/><path class="cls-12" d="M98.53,361.05c-6.2,8.8-9.71,20.43-23,21.84,0-.5-.11-1.26.16-1.48C83.69,375,88.54,365.15,98.53,361.05Z"/><path class="cls-3" d="M1054.19,140.57l-2-3.07Z"/><path class="cls-3" d="M1049.22,132.88l-1.59-3.1Z"/><path class="cls-3" d="M1044.58,126.74c-.52-1-1-2.09-1.55-3.13C1043.55,124.65,1044.06,125.69,1044.58,126.74Z"/><path class="cls-2" d="M1055.38,143.77a6.55,6.55,0,0,1-.46-1.18c0-.14.29-.35.45-.52Z"/><path class="cls-3" d="M1052.28,137.56l-1.55-2Z"/><path class="cls-3" d="M1050.76,134.68l-1.58-1.81Z"/><path class="cls-3" d="M1047.66,129.84l-1.57-1.59Z"/><path class="cls-3" d="M1046.11,128.26l-1.57-1.57Z"/><path class="cls-1" d="M27.76,402.94l-1.55,5Z"/><path class="cls-3" d="M405.41,896.15a2.92,2.92,0,0,0-1.21.52l-2.74-.36-.36-3.14,7.41,1.3a.81.81,0,0,1,.39.72Z"/><path class="cls-13" d="M396.3,894.28a6.63,6.63,0,0,1,.43-1.46l4.37.35.36,3.14"/><path class="cls-13" d="M387,894.6l3.59-.75Z"/><path class="cls-14" d="M876.9,730.11l1.07-1.05A2.52,2.52,0,0,1,876.9,730.11Z"/><path class="cls-14" d="M875.3,731.65l1.14-1.11Z"/><path class="cls-14" d="M873.7,733.17l1.2-1.13Z"/><path class="cls-1" d="M786.69,426,753,427.89c-3.82-.32-6.32-.38-5,5.25a108.82,108.82,0,0,1,2.12,21.27A270.79,270.79,0,0,1,744,519.06c-5,22.85-12.62,44.68-24.15,65.08Q713.44,595.43,707,606.7l-1.88,2a.8.8,0,0,0-.84.83c-2.77,3.35-5.09,7.25-8.39,10-22.6,18.46-47.43,33.26-75.19,42.42-26.67,8.81-54.18,14-82.37,13.94-10.63,0-21.3-1.62-31.89-3a231.56,231.56,0,0,1-60.09-16,205.9,205.9,0,0,1-27.46-13.45c-10.9-6.6-21.09-14.37-31.58-21.64l-3.12-7.46-1.53-3.08q-2.32-4.62-4.64-9.26l-1.53-3.09-1.55-3.07q-.78-2.32-1.54-4.63l-3.09-7.73c-.52-2-1-4.11-1.55-6.16l-1.54-4.62q-1.55-6.95-3.1-13.88c-1-8.84-2.05-17.68-3.12-26.52a10,10,0,0,0-.71-2.05c-.27.61-.86,1.28-.77,1.83,1.48,8.93,3,17.84,4.58,26.76q1.54,6.94,3.07,13.9l1.56,4.61,1.53,6.17q1.55,3.87,3.08,7.73c.52,1.55,1,3.09,1.55,4.63l1.54,3.08c.52,1,1,2.05,1.55,3.08q2.31,4.63,4.61,9.28l1.56,3.06c0,1.05,0,2.1-.07,3.15-6.91-5.76-14.84-10.67-20.52-17.46-11.19-13.39-21.4-27.63-31.53-41.86-11.23-15.79-18.89-33.4-24.68-51.84,12.66-4.16,25.3-8.38,38-12.47,9.05-2.91,12.33-.52,12.55,9.13.14,6.15-.05,12.31.14,18.46,0,1.21,1.14,2.4,1.75,3.59a14.89,14.89,0,0,0,.91-3.43c.16-8.1.51-16.22.26-24.31-.7-22.25,4.52-43.61,9.55-65,.43-1.86,3.13-4.31,5-4.51,8.09-.89,16.26-1,24.4-1.46q-1.25,17.61-2.49,35.21A215.41,215.41,0,0,0,409.78,551c15.29,42.12,43.35,73.3,81.76,95.64,16.83,9.79,34.71,17.61,54.38,16.59,45.07-2.33,83.73-19.94,115.69-52l1.66-1.92-.22.15c7.55-7.59,15.92-14.54,22.51-22.88,27.08-34.24,40.22-73.51,39.51-117.12-.23-14.55-2.2-29.07-3.37-43.6-3.4-17.89-9.6-34.85-17.21-51.33-11.62-25.15-26.56-48.25-43.44-70.14,2.85-1.55,5.57-3.5,8.59-4.56,11-3.87,22.19-7.3,33.19-11.23,2.62-.94,4.79-3.16,7.17-4.8,1.25,1.22,2.8,2.25,3.7,3.68,4.6,7.38,9.23,14.75,13.51,22.32,19.16,33.87,31.57,69.92,34.94,108.87a24.71,24.71,0,0,0,.84,3.55c.25-1.16.61-2.31.75-3.48,2.08-17.22-5.47-33.65-3.78-51.06.83-8.64-.65-9.36,7.61-12.11,2.66-.88,5.44-1.41,8.17-2.11C783.2,377.08,786.37,401.3,786.69,426Z"/><path class="cls-15" d="M680.42,639c-11.74,10.25-22.66,21.67-35.42,30.44-14.66,10.07-30.25,19.49-46.67,26.11a268.19,268.19,0,0,1-75.82,18c-32.85,3.05-64.36-2.23-95.4-11.39A192.18,192.18,0,0,1,370.89,675c-13.45-9.48-27.28-19-38.72-30.61-13-13.24-23.68-28.78-35-43.59-4.94-6.45-9-13.57-13.47-20.39-1.69-4.53-3.08-9.2-5.11-13.57-14.56-31.31-21.29-64.45-22.22-98.7-.36-13.43,1.89-26.92,3-40.39l27.47-1.41c.58,9.45.62,19,1.9,28.35,1.31,9.57,3.83,19,5.82,28.46,4.18,13.9,8.15,27.87,12.63,41.68,2.18,6.72,4.61,13.55,8.16,19.61A355.76,355.76,0,0,0,335,574.38c13.3,18.18,28,35.15,46.18,48.73,5.67,4.23,11.29,8.55,16.93,12.83l1.45,1.51h0c2.89,4.15,5.28,8.79,8.77,12.36,17.85,18.32,37.92,33.6,61.35,44.31a93.64,93.64,0,0,0,38.66,8.94,131.6,131.6,0,0,0,55.85-12.44c11.31-5.29,22.08-11.7,33.1-17.6,20.84-3.78,40-12.12,58.82-21.48C664.29,647.47,672.33,643.18,680.42,639Z"/><path class="cls-8" d="M509.17,870.49c-4.42-1.07-8.86-3.15-13.25-3-21.31.56-41.8-3.86-62.22-9.07-4.19-1.07-8.44-1.95-12.63-3a9.45,9.45,0,0,1-2.35-1.42,8.25,8.25,0,0,1,2.1-.39c7.91.56,15.81,1.22,23.73,1.75a12.39,12.39,0,0,0,3.1-.6,9.7,9.7,0,0,0-2.37-1.62c-6.91-2-13.84-3.85-20.77-5.77-1.73-.48-3.47-.94-5.14-1.58-.59-.23-1-1-1.48-1.49.76-.5,1.63-1.53,2.26-1.41,3.51.71,6.92,1.92,10.43,2.51a88.07,88.07,0,0,0,9.35.62c-2.75-1.39-5.38-3.19-8.28-4.09-24.23-7.53-48.75-14.17-72.71-22.46a290.6,290.6,0,0,1-98.61-58.07c-7.09-6.29-14.4-12.33-21.48-18.63-.93-.82-1.1-2.5-1.63-3.78a17.61,17.61,0,0,1,3.87,1.56c50.29,35.53,105.82,59.65,165,76a347.89,347.89,0,0,0,71.63,12.29c19.68,1.21,39.42,3.18,59.08,2.74a400.41,400.41,0,0,0,77-8.85,529.48,529.48,0,0,0,86.65-27,433.35,433.35,0,0,0,78-41.7c14.45-9.71,28.18-20.49,42.23-30.79.62-.45,1.11-1.17,1.79-1.44a13.72,13.72,0,0,1,2.83-.49,7.59,7.59,0,0,1-.64,2.55,17.87,17.87,0,0,1-2.65,2.79L795.05,752a18.38,18.38,0,0,0-2.7,2.74A16,16,0,0,0,791,758c1.1-.26,2.44-.21,3.26-.84,5.28-4.06,10.44-8.27,15.64-12.43l4.81-3.79c-.86,2.07-1.18,4.68-2.65,6.13-6.16,6.07-12.1,12.61-19.16,17.49-19.38,13.39-38.81,26.86-59.15,38.7-15.39,9-32,16-48.48,22.92-18.66,7.81-37.77,14.57-56.74,21.63-8.38,3.12-16.9,5.87-25.35,8.79l-4.31.07L597,858.1l-2.79.13-4.91,1.41q-26.84,4-53.67,8c-6.23.93-12.44,2-18.66,3ZM756,784.05l.39-.44L756,784l-.38.44Zm20.06-13.87,1.54-1.56.39-.46-.46.39L776,770.09l-.37.46ZM760.65,781l3.62-1.57-.38-.6-3.29,2.13-.38.43Zm8.72-3.53c1-1.31,1.9-2.42,2.76-3.53-.65-.39-1.75-1.23-1.89-1.09a20.31,20.31,0,0,0-2.53,3.28A19.71,19.71,0,0,0,769.37,777.42Zm18.94-16.24c-1.17-.49-1.84-1-2.24-.89a2.55,2.55,0,0,0-1.4,1.48c-.1.32.94,1.37,1.08,1.3A17,17,0,0,0,788.31,761.18Z"/><path class="cls-10" d="M369.58,248.71c-.43-1-1.51-2.5-1.2-2.88,7.27-8.89,14.69-17.65,22.08-26.44l1.42-1.48.13-.14,1.41-1.41.15-.08c3.57-.49,4.54-2.92,4.54-6.08l.08-.09,3-1.6,3.22-4.55,1.4-1.33,1.55-.27,1.49-1.42.14-.09,3-1.61,3-3,3.25-4.35c.49-.08,1-.17,1.45-.28l3.09-1.6,1.67-3,1.41-1.33,1.55-.24a35.35,35.35,0,0,0,4.16-1.86c12-7.32,23.48-15.68,36.06-21.81,18.59-9.05,37.71-17.34,58.48-20.25,15.43-2.17,30.94-5.06,46.43-5.12,16.78-.08,33.66,2.12,50.34,4.45,22.51,3.13,43.81,10.72,64,20.95,22.33,11.29,41.69,26.9,60.25,43.5,1.81,1.62,2.83,4.12,4.21,6.21.52.55,1,1.11,1.54,1.66v0l1.56,1.57v0l1.55,3.12v0c-1.66,6.34-2.52,7-7.2,3.89s-8.84-4.48-14.39-2.86a10.81,10.81,0,0,1-8-1.35c-12.5-8.28-25.63-3.82-38.6-2.29-.47.06-1.33,3.18-.89,3.56,4.63,4,9.45,7.68,14.27,11.4a132.18,132.18,0,0,1,30.32,32.1c-.23,1.77-.45,3.53-.68,5.29-10.39-10.42-20.47-21.17-31.28-31.13-6.87-6.33-14.81-11.49-22.26-17.18l-1.65-1.2a1,1,0,0,0-.83-.2l-14.57-11c-3.06-3-5.62-7-9.27-8.67-12.86-5.72-25.88-11.3-39.27-15.6-17.08-5.47-34.77-8-52.73-9.76-21.72-2.16-43-.28-64.13,3.41-14.78,2.57-29,7.2-43.11,12.62-15.09,5.77-29.62,12.26-43.12,20.9-4.21,2.69-7,7.58-10.46,11.46l.14-.27-1.79,1.79.26-.12-4.69,3.2-10.88,12.07-4.16,4.65-.27.31Z"/><path class="cls-4" d="M399.89,426.32c-8.14.42-16.31.57-24.4,1.46-1.86.2-4.56,2.65-5,4.51-5,21.37-10.25,42.73-9.55,65,.25,8.09-.1,16.21-.26,24.31a14.89,14.89,0,0,1-.91,3.43c-.61-1.19-1.71-2.38-1.75-3.59-.19-6.15,0-12.31-.14-18.46-.22-9.65-3.5-12-12.55-9.13-12.69,4.09-25.33,8.31-38,12.47-.64-1.56-1.27-3.11-1.91-4.66-1.9-7.06-4-14.06-5.66-21.18a263.63,263.63,0,0,1-6.44-54.28l33.78-1.76c4.74.65,6.27-.88,5.49-6a187.08,187.08,0,0,1-2.39-26.5c-.09-10.14,1-20.28,1.52-30.43l4.65-3.3-.08,0,4.71-1.59-.08.05,4.71-1.59-.08,0,4.71-1.58-.08,0,4.71-1.59-.09.05,4.72-1.59-.09,0,4.71-1.58-.08,0,4.71-1.58-.08,0,4.71-1.59-.08,0,4.71-1.58-.08,0,4.71-1.59-.09,0,4.72-1.58-.09,0,4.71-1.59-.08.05,4.71-1.59-.08.05,4.71-1.59-.08,0,4.71-1.58-.09,0,4.72-1.59-.09,0,4.72-1.59L415,332l4.72-1.59-.09,0,7.82-.13-.06,6.46c-1.22,1.93-2.83,3.72-3.61,5.82-5.16,13.91-10.49,27.78-15,41.9-2.24,7-2.88,14.46-4.25,21.72l-4.35,20.24Z"/><path class="cls-15" d="M731.54,262.21a132.18,132.18,0,0,0-30.32-32.1c-4.82-3.72-9.64-7.44-14.27-11.4-.44-.38.42-3.5.89-3.56,13-1.53,26.1-6,38.6,2.29a10.81,10.81,0,0,0,8,1.35c5.55-1.62,9.84-.19,14.39,2.86s5.54,2.45,7.2-3.89c6.31,7.59,13.2,14.78,18.8,22.86,9.12,13.17,17.41,26.91,26,40.41.51,1,1,2,1.51,3.06l1.57,3.11,1.52,3.07c.52,1.54,1,3.09,1.57,4.64q3.3,11,6.6,22a252.79,252.79,0,0,1,10.29,75.63c-.09,8.15-.84,16.32-1.63,24.44-.66,6.84-3,8.9-9.95,9-6.4.13-12.81-.07-19.22-.13-1.57-15.72-2.26-31.59-4.93-47.13a219.35,219.35,0,0,0-26.13-73.31c-4.57-7.9-9.3-15.74-14.54-23.2-2.35-3.35-5.29-7.27-10.67-5.86q-2.05-4.14-4.12-8.27C732.33,266.12,731.93,264.16,731.54,262.21Z"/><path class="cls-16" d="M401.1,893.17l-4.37-.35q-.08-.52-.18-1.05c-1.34-1.53-2.41-3.91-4.07-4.45-8.24-2.69-16.74-4.6-25-7.34-15-5-30-9.92-44.65-15.76-12-4.79-22.81-12.38-34.2-18.17-14-7.11-26.79-15.54-39.64-24.16-2.62-1.76-4.52-4.61-6.75-7,2.7.81,5.4,1.63,8.1,2.42l44.28,13h0l4.21,1.6,35.74,13.24c2.61,1,5.24,1.87,7.86,2.81,4.19,2.79,8.05,6.44,12.63,8.19,8.34,3.19,17.09,5.29,25.69,7.76,31.65,9.06,63.51,16.76,96.81,15.82,3-.09,6.1.62,9.15.92,7.13.69,14.26,1.9,21.4,1.91,10.23,0,20.53-1.85,30.69-1.17,28.42,1.9,55.6-4.91,82.73-11.21,26.7-6.2,52.51-15.65,77.78-26.34,4.88-2.06,9.32-5.21,13.88-8,6.27-3.82,12.38-7.9,18.71-11.61,3.08-1.82,6.78-2.64,9.71-4.64,18.6-12.74,37.08-25.67,55.55-38.61.95-.66,1.41-2,2.09-3.09l1.47-1.45,1.59-1.6,12.24-6.31,0,0a47.39,47.39,0,0,1-2.16,5.37,28.65,28.65,0,0,1-3,3.88l5.38,1.71c-.07.54-.14,1.08-.22,1.62l-1.3,1.36-.21.19-10.53,7.63-.29.19-1.47,1.2-3.12,2-1.46,1.1-3.16,2L791.72,798l-3.2,1.92L787,801,783.89,803l-1.59,1.12-.06,0-4.7,2.92,0,0-4.63,3-.07,0-6.43,4-.38.21c-16.85,8.53-33.61,17.24-50.58,25.53-12.61,6.16-25.36,12.12-38.29,17.57-30,12.65-61.72,19.83-93.32,26.92-19.41,4.35-39.36,6.26-59.08,9.26l-20.21,3.08-15.27.37-60.45-.09-2.94-.33-12.51-1.15-4.83-1Z"/><path class="cls-10" d="M603.18,856.64c8.45-2.92,17-5.67,25.35-8.79,19-7.06,38.08-13.82,56.74-21.63,16.49-6.9,33.09-14,48.48-22.92,20.34-11.84,39.77-25.31,59.15-38.7,7.06-4.88,13-11.42,19.16-17.49,1.47-1.45,1.79-4.06,2.65-6.13,21.55-20.63,43.06-41.3,60.26-65.9,1.38-2,2-4.51,2.94-6.78l0,0,1.57-1.59,0,0,1.61-1.87c8.86-12.42,18-24.63,26.48-37.32,9-13.51,17.34-27.48,26-41.25,0-.38,0-.76,0-1.14l.17-.3q1.47-2.88,2.93-5.76c.56-1.08,1.11-2.17,1.66-3.25a12.54,12.54,0,0,1,1.5-.06,58,58,0,0,1-1.05,6c-5.21,18.64-13.5,35.89-23,52.68C897.3,666.79,876.17,696.88,850,723.3c-2.69,2.72-5.1,5.72-7.65,8.59-6.05,5.28-12.12,10.53-18.1,15.88-.38.34-.07,1.45-.08,2.21l-5.06,4.93c-2.23.86-4.76,1.29-6.61,2.66-5.08,3.74-9.87,7.88-14.77,11.87L776.12,787c-4.7,3.84-9.14,8.09-14.16,11.46-12.07,8.1-24.07,16.42-36.76,23.47-10,5.56-20.91,9.6-31.59,13.88-9.48,3.8-19.17,7.13-28.86,10.37-1.75.59-4-.26-6-.45l-9.16,3.1L637.18,852c-1.87-.19-3.86-.91-5.57-.48-6.87,1.71-13.6,4-20.5,5.58C608.63,857.68,605.83,856.84,603.18,856.64Z"/><path class="cls-17" d="M658.76,845.77c2,.19,4.24,1,6,.45,9.69-3.24,19.38-6.57,28.86-10.37,10.68-4.28,21.58-8.32,31.59-13.88,12.69-7.05,24.69-15.37,36.76-23.47,5-3.37,9.46-7.62,14.16-11.46l20.18-9.2,2.87,0,.14.11c-.68,1.05-1.14,2.43-2.09,3.09-18.47,12.94-37,25.87-55.55,38.61-2.93,2-6.63,2.82-9.71,4.64-6.33,3.71-12.44,7.79-18.71,11.61-4.56,2.78-9,5.93-13.88,8C674.1,854.55,648.29,864,621.59,870.2c-27.13,6.3-54.31,13.11-82.73,11.21-10.16-.68-20.46,1.18-30.69,1.17-7.14,0-14.27-1.22-21.4-1.91-3-.3-6.11-1-9.15-.92-33.3.94-65.16-6.76-96.81-15.82-8.6-2.47-17.35-4.57-25.69-7.76-4.58-1.75-8.44-5.4-12.63-8.19,14.1,3.72,28,8.34,42.32,11,22.37,4.11,44.9,7.76,67.52,9.92,18.83,1.8,37.89,1.18,56.84,1.63l7.81.09c2.71.46,5.42,1.32,8.12,1.31,19.07,0,38.1.45,56.93-4.28,14.27-3.58,29-5.34,43.45-8.2,4.67-.93,9.61-2.08,11.7-7.4l12.42-3.14C653.74,851,656.7,849.74,658.76,845.77Z"/><path class="cls-15" d="M933.46,586.34c-8.62,13.77-17,27.74-26,41.25-8.45,12.69-17.62,24.9-26.48,37.32l-1.61,1.87,0,0-1.57,1.59,0,0c-5.1,5.36-10.14,10.78-15.35,16-1.08,1.11-2.77,1.61-4.18,2.4.58-1.55.83-3.34,1.78-4.61,16.25-21.55,30.68-44.28,41.91-68.82,9.24-20.19,17.69-40.76,26-61.37a331.27,331.27,0,0,0,19.81-73.21c2.39-15.38,3.74-30.94,5-46.46.27-3.22.32-4.91,3.87-4.6.35,2.51,1.11,5,1,7.54-.75,16-1.81,32.06-2.54,48.09-1.15,25.11-6.39,49.47-12.94,73.63-1.51,5.6-1.74,11.54-2.56,17.32l0,0c-.49.55-1,1.11-1.45,1.67-.55,1.08-1.1,2.17-1.66,3.25q-1.46,2.88-2.93,5.76l-.17.3c-.14.11-.42.26-.41.31A5.28,5.28,0,0,0,933.46,586.34Z"/><path class="cls-8" d="M305.44,501.64c.64,1.55,1.27,3.1,1.91,4.66,5.79,18.44,13.45,36.05,24.68,51.84,10.13,14.23,20.34,28.47,31.53,41.86,5.68,6.79,13.61,11.7,20.52,17.46q1.6,2.14,3.23,4.27c10.49,7.27,20.68,15,31.58,21.64a205.9,205.9,0,0,0,27.46,13.45,231.56,231.56,0,0,0,60.09,16c10.59,1.34,21.26,2.94,31.89,3,28.19.08,55.7-5.13,82.37-13.94,27.76-9.16,52.59-24,75.19-42.42,3.3-2.7,5.62-6.6,8.39-10a6,6,0,0,0,.84-.83l1.88-2,10.16-7.86c-3.57,5.4-6.42,11.52-10.88,16-7.44,7.53-15.91,14-23.95,21-.64,1-1.28,2.08-1.93,3.12h0c-8.09,4.19-16.13,8.48-24.28,12.55-18.8,9.36-38,17.7-58.82,21.48-20.4,5.74-41.3,7.74-62.36,7.45-9.94-.13-19.88-1.66-29.77-2.92-23.06-2.95-45.34-9-66.3-19.06-13.38-6.43-26.22-14-39.3-21h0l-1.45-1.51c-5.64-4.28-11.26-8.6-16.93-12.83C363,609.53,348.33,592.56,335,574.38a355.76,355.76,0,0,1-19.76-29.94c-3.55-6.06-6-12.89-8.16-19.61-4.48-13.81-8.45-27.78-12.63-41.68,5.54,2.76,3.42,8.94,5.76,13.19C301.57,498.77,301.62,501.85,305.44,501.64Z"/><path class="cls-8" d="M939.7,574.24c.82-5.78,1-11.72,2.56-17.32,6.55-24.16,11.79-48.52,12.94-73.63.73-16,1.79-32.05,2.54-48.09.11-2.49-.65-5-1-7.54l30.47-.15q-2.07,10.89-4.13,21.79c-1.93,20.48-8.16,39.93-15,59.09-6.44,18-14.07,35.54-21.41,53.19C944.8,566,942,570,939.7,574.24Z"/><path class="cls-8" d="M800.85,281c-8.63-13.5-16.92-27.24-26-40.41-5.6-8.08-12.49-15.27-18.8-22.86v0l-1.55-3.12v0l-1.56-1.57v0c-.51-.55-1-1.11-1.54-1.66-1.38-2.09-2.4-4.59-4.21-6.21-18.56-16.6-37.92-32.21-60.25-43.5-20.23-10.23-41.53-17.82-64-20.95-16.68-2.33-33.56-4.53-50.34-4.45-15.49.06-31,3-46.43,5.12-20.77,2.91-39.89,11.2-58.48,20.25-12.58,6.13-24.06,14.49-36.06,21.81a35.35,35.35,0,0,1-4.16,1.86c1.36-1.73,2.39-4,4.14-5.11,10.93-7.16,21.46-15.22,33.17-20.82,24.27-11.62,49.58-20.7,76.64-23.44,13-1.31,26-3,39-2.82A244.87,244.87,0,0,1,645.42,143c34.76,10.16,66.25,26.47,93.51,50,23.57,20.35,44.45,43.39,58.74,71.56C800.26,269.62,806.5,274.26,800.85,281Z"/><path class="cls-10" d="M717.16,598.84,707,606.7q6.42-11.28,12.83-22.56c11.53-20.4,19.14-42.23,24.15-65.08a270.79,270.79,0,0,0,6.08-64.65,108.82,108.82,0,0,0-2.12-21.27c-1.27-5.63,1.23-5.57,5-5.25,1,14.49,3.24,29,2.74,43.48-1.16,33.44-7.6,66-22.12,96.42C728.58,578.36,722.67,588.5,717.16,598.84Z"/><path class="cls-8" d="M736.84,276.34c5.38-1.41,8.32,2.51,10.67,5.86,5.24,7.46,10,15.3,14.54,23.2a219.35,219.35,0,0,1,26.13,73.31c2.67,15.54,3.36,31.41,4.93,47.13l-6.42.11c-.32-24.65-3.49-48.87-11-72.45a7.37,7.37,0,0,0-.14-2.27c-6-14.68-10.16-30.08-19.32-43.42C749.31,297.65,743.29,286.85,736.84,276.34Z"/><path class="cls-8" d="M259.29,427.75c-1.06,13.47-3.31,27-3,40.39.93,34.25,7.66,67.39,22.22,98.7,2,4.37,3.42,9,5.11,13.57-2.3-1.82-5.6-3.15-6.75-5.52-12.39-25.59-20.81-52.59-23.38-80.83-1.75-19.26-.5-38.8-.25-58.22C253.34,432.3,253.57,427.66,259.29,427.75Z"/><path class="cls-18" d="M294.66,830.32l-44.28-13c-2.7-.79-5.4-1.61-8.1-2.42l-.12-.12c-.45-.46-.91-.91-1.37-1.36l-7.82-3.2c-1.33-1.73-2.41-3.74-4-5.15-8-7-16.29-13.8-24.21-20.94-2.35-2.12-3.84-5.18-5.73-7.81,5,3.13,10,6.18,14.87,9.41,23.19,15.33,47.29,29,72.81,40.1A87.89,87.89,0,0,1,294.66,830.32Z"/><path class="cls-12" d="M331.74,361.48c-.55,10.15-1.61,20.29-1.52,30.43a187.08,187.08,0,0,0,2.39,26.5c.78,5.13-.75,6.66-5.49,6-.93-13.43-2-26.86-2.72-40.31-.45-8.89.55-17.6,4.32-25.95,1.26-2.8.59-6.43,1-9.65.44-3.48,1.13-6.92,1.71-10.38l2.88,3.1.69,1.5-1.61,4.62-1.62,10.53C331.76,359.08,331.75,360.28,331.74,361.48Z"/><path class="cls-10" d="M305.44,501.64c-3.82.21-3.87-2.87-5.2-5.3-2.34-4.25-.22-10.43-5.76-13.19-2-9.48-4.51-18.89-5.82-28.46-1.28-9.36-1.32-18.9-1.9-28.35l6.58-.16a263.63,263.63,0,0,0,6.44,54.28C301.4,487.58,303.54,494.58,305.44,501.64Z"/><path class="cls-14" d="M369.58,248.71l7.21-5.93c-1.15,2.46-2.19,5-3.46,7.37-3.54,6.63-7.18,13.21-10.78,19.8L361,271.81l0,0c-.52,1.09-1.05,2.18-1.58,3.27a5.73,5.73,0,0,0-.18,1l-3,8.07,0-.05-1.56,3.15,0,0-14.1,41.74L337,329a166.27,166.27,0,0,1,13.75-44.4c3.6-7.8,6.86-15.74,10.28-23.61h0c.4-.59.8-1.18,1.21-1.76l0-.06,2-2.84Z"/><path class="cls-19" d="M361,261c-3.42,7.87-6.68,15.81-10.28,23.61A166.27,166.27,0,0,0,337,329c-.39,2.41-.77,4.81-1.15,7.22q-.76,2.5-1.54,5l-2.88-3.1a109.12,109.12,0,0,1,9.65-38.41c3.11-6.67,4.54-14.14,7.87-20.67S357,267,361,261Z"/><path class="cls-8" d="M989,425.83a5.77,5.77,0,0,1-1.35.44c.49-8.68,1-17.36,1.45-26,.5-9.89.95-19.79,1.42-29.68l.06-.05c.44,8.83,1.45,17.68,1.17,26.49C991.42,406.62,989.94,416.22,989,425.83Z"/><path class="cls-8" d="M1024.3,386q-2.1,11.55-4.19,23.12C1020.1,401.17,1019.93,393.18,1024.3,386Z"/><path class="cls-8" d="M990.49,369c-.5-6.63-1-13.25-1.46-19.88a7.33,7.33,0,0,1,.81-2.46c.21.44.6.88.61,1.32.06,7,.07,14.05.1,21.07Z"/><path class="cls-8" d="M846.91,699.08l6-6.12.33.29-6,6Z"/><path class="cls-8" d="M398.11,210.2c0,3.16-1,5.59-4.54,6.08Z"/><path class="cls-8" d="M807,294.91c-.52-1.55-1-3.1-1.57-4.64C808.28,291,809,292.53,807,294.91Z"/><path class="cls-8" d="M418.25,191.87,415,196.22Z"/><path class="cls-8" d="M803.93,287.2l-1.57-3.11Z"/><path class="cls-8" d="M1019.58,412.29l-.9,5Z"/><path class="cls-18" d="M298.89,831.93l-4.21-1.6Z"/><path class="cls-8" d="M412,199.24l-3,1.61Z"/><path class="cls-19" d="M364.26,256.33l-2,2.84Z"/><path class="cls-8" d="M847.18,699.3l-1,1.33.69-1.55Z"/><path class="cls-15" d="M680.4,639c.65-1,1.29-2.08,1.93-3.12C681.69,636.92,681.05,638,680.4,639Z"/><path class="cls-8" d="M422.79,190l-3.09,1.6Z"/><path class="cls-8" d="M401.19,208.51l-3,1.6Z"/><path class="cls-19" d="M362.25,259.23c-.41.58-.81,1.17-1.21,1.76C361.44,260.4,361.84,259.81,362.25,259.23Z"/><path class="cls-8" d="M391.88,217.91l-1.42,1.48Z"/><path class="cls-8" d="M393.42,216.36,392,217.77Z"/><path class="cls-15" d="M854.57,691.29l.43-.51.34.33-.49.46Z"/><path class="cls-15" d="M852.88,693l1.69-1.67.28.28-1.64,1.68Z"/><path class="cls-8" d="M990.55,369q0,.74,0,1.47l-.06.05a5.69,5.69,0,0,1-.39-1.09c0-.14.25-.32.39-.48Z"/><path class="cls-8" d="M408.85,200.94l-1.49,1.42Z"/><path class="cls-8" d="M405.81,202.63l-1.4,1.33Z"/><path class="cls-8" d="M425.87,185.66,424.46,187Z"/><path class="cls-12" d="M944.35,101.78l1.78.17L969,134.37c-5.79,1-11.34,1.59-16.24-3.13-1.33-1.28-4.3-1-6.54-1.15-1.23-.1-2.94,1-3.69.46-10.51-7.3-23.75-5.6-35-10.8-6.29-2.91-13.6-3.61-20.46-5.31-8.47-7.06-19.15-7.17-29.2-9.34-3.66-.79-7.23-2-10.84-3,.27-4.78,2.86-5.51,7.26-5.08,10.32,1,20.69,1.55,31,1.94,2.59.1,5.23-1.1,7.84-1.71l1.78.27c8.79,4.3,17.66,7.61,27.8,4.81,2.51-.7,5.52.73,8.29.64C935.51,102.79,939.93,102.19,944.35,101.78Z"/><path class="cls-18" d="M939.7,574.24c2.34-4.21,5.1-8.25,6.94-12.66,7.34-17.65,15-35.21,21.41-53.19,6.87-19.16,13.1-38.61,15-59.09.41,4.54,1.66,9.18,1.08,13.59-2.44,18.52-4.44,37.2-8.49,55.4A459.09,459.09,0,0,1,959,575.82a191.63,191.63,0,0,1-19.14,39c-8.61,13.23-15,27.84-23,41.51-4.35,7.46-9.74,14.34-15,21.25-7.74,10.22-15.74,20.24-23.66,30.31C873,714.5,867.52,721,862.57,727.78c-1.69,2.34-2.1,5.61-3.09,8.46l-.13,0-1.6,1.44c-8.67,7.8-15.48,17.07-21.49,27l-2.18.94L830,767c-6.16,1.71-11.13,4.9-13.64,11.1l-.06-.28-1.64,1.65.25,0-5.38-1.71a28.65,28.65,0,0,0,3-3.88,47.39,47.39,0,0,0,2.16-5.37l.35-.38-.39.34-12.24,6.31-.08-.11a58.54,58.54,0,0,1,4.51-6.7c4-4.5,8.19-8.78,12.31-13.15l5.06-4.93c9.14-2.93,14.36-9.81,18.18-18.09,2.55-2.87,5-5.87,7.65-8.59,26.17-26.42,47.3-56.51,65.63-88.76,9.55-16.79,17.84-34,23-52.68a58,58,0,0,0,1.05-6l-.05-1.61Z"/><path class="cls-9" d="M857.75,737.7l1.6-1.44Z"/><path class="cls-1" d="M186.65,791.71l3.28,1.57Z"/><path class="cls-16" d="M240.79,813.45c.46.45.92.9,1.37,1.36C241.71,814.35,241.25,813.9,240.79,813.45Z"/><path class="cls-7" d="M895,97.49l-1.78-.27c-3.12-1-6.19-2.52-9.36-2.77-25.54-2-51.29-1.33-76.64-6-2.49-.46-5.12-.16-7.68-.17q-11.78-.09-23.54-.14c-4.6-3-8.92-6.53-13.85-8.79-10.63-4.88-21.4-9.56-32.43-13.46-15.9-5.62-31.92-11.06-48.19-15.49C661.88,45.06,642,40.25,622.06,36.34c-13.69-2.68-27.34-7.06-41.77-4.26-4.65.9-9.64.18-14.47.09-5.34-.11-10.7-.69-16-.44-13,.62-26.06,1.38-39,2.53-9.11.8-18.48.54-26.86,5.38a22.92,22.92,0,0,1-6.61,2c-12.78,2.73-25.75,4.79-38.35,8.22-17.54,4.77-35.4,9.19-49.56,21.83-.71.63-1.91.67-2.83,1.11-14,6.74-28.45,12.84-42,20.46-10.63,6-20.19,13.87-30.27,20.83-3.14,2.17-6.58,3.93-9.67,6.17-15.08,10.92-26,26.28-40.51,37.86a16.73,16.73,0,0,0-2.56,2.87c-3.14,4-6.09,8.2-9.4,12.08-4.95,5.81-10.74,11-15.12,17.2-8.35,11.84-16.24,24-23.79,36.38-9.55,15.63-19.19,31.05-34.44,42-3.23,2.32-6.05,5.21-9.05,7.83l-9.19,4.71c.13-1.28-.1-2.73.45-3.79,6.94-13.56,8.6-29.32,18.72-41.71,6.08-7.45,9.42-17.07,15-25,11.83-17,23.88-33.94,36.64-50.27,8.17-10.45,17.93-19.63,26.69-29.63,4.51-5.15,8.38-10.87,12.54-16.33,3.43-2.88,6.68-6,10.32-8.6,15.82-11.34,31.64-22.69,47.69-33.68,8.2-5.62,16.39-11.75,25.49-15.4,11.07-4.44,22.29-8.4,33.2-13.37,11.38-5.18,23.38-9.08,35.3-13C441.23,24.31,459.75,17,479,13.3,498.42,9.55,518.6,9,538.51,8.05c16-.79,32.18-.33,48.27-.08,8.87.14,17.78.63,26.59,1.65,11.1,1.28,22,3.66,33.28,4.4,21.75,1.43,42.93,7.58,62.82,16.71C729.69,40,749.37,50.47,769.3,60.4c1.13.56,2.35,1,3.52,1.46,9.61,4,19.1,8.29,28.86,11.85,8.85,3.22,18,5.62,27,8.38,1,1,1.94,2.49,3.14,2.77,6.55,1.55,13.12,3.3,19.79,4,13.16,1.42,26.38,2.26,39.58,3.26,4.25.32,8.51.4,12.76.6-.5,1-1,2-1.49,3Z"/><path class="cls-8" d="M169.73,276.51c3-2.62,5.82-5.51,9.05-7.83,15.25-10.94,24.89-26.36,34.44-42,7.55-12.36,15.44-24.54,23.79-36.38,4.38-6.2,10.17-11.39,15.12-17.2,3.31-3.88,6.26-8.06,9.4-12.08a16.73,16.73,0,0,1,2.56-2.87c14.48-11.58,25.43-26.94,40.51-37.86,3.09-2.24,6.53-4,9.67-6.17,10.08-7,19.64-14.85,30.27-20.83,13.55-7.62,28-13.72,42-20.46.92-.44,2.12-.48,2.83-1.11,14.16-12.64,32-17.06,49.56-21.83,12.6-3.43,25.57-5.49,38.35-8.22a22.92,22.92,0,0,0,6.61-2c8.38-4.84,17.75-4.58,26.86-5.38,13-1.15,26-1.91,39-2.53,5.32-.25,10.68.33,16,.44,4.83.09,9.82.81,14.47-.09,14.43-2.8,28.08,1.58,41.77,4.26,20,3.91,39.82,8.72,59.46,14.08,16.27,4.43,32.29,9.87,48.19,15.49,11,3.9,21.8,8.58,32.43,13.46,4.93,2.26,9.25,5.82,13.85,8.79-12.24.57-23-4.21-33.77-9.13-3.16-1.44-6.67-2.1-10-3.23-3.14-1-6.47-1.81-9.29-3.44C708,63.73,691,61.53,674.86,56.88c-.93-.27-2.53-.56-2.91-.1-4,5-8.39,1.41-12.62.62C646.56,55,633.87,51.91,621,50.31a528,528,0,0,0-87.27-3.67c-5,.21-9.93,2.15-14.93,3-30.57,5.19-60.88,10.81-89.95,22.56C402.14,83,376.49,95.29,352.1,110.7c-12.85,8.11-24.52,17.48-36.71,26.32-17.15,12.43-30.5,28.64-46.22,42.4-3.79,3.31-6.73,7.64-9.87,11.65-8,10.18-16.39,20.1-23.7,30.76A654,654,0,0,1,191,280c-11.49,13.3-25.39,24.53-38.35,36.54a165.79,165.79,0,0,1-14.73,12.28c-3.09,2.26-6.75,3.13-8.6-2a2.11,2.11,0,0,0-.2-1.08l.32-.41c8.59-2.41,10.31-11.78,16.68-16.45q1.75-3.16,3.53-6.33l1.63-1.46C162.46,296.68,167.23,287.45,169.73,276.51Z"/><path class="cls-18" d="M123.47,332l2.73-4.7Z"/><path class="cls-18" d="M129.11,325.76a2.11,2.11,0,0,1,.2,1.08,1.69,1.69,0,0,1-1.11-.33A7.41,7.41,0,0,1,129.11,325.76Z"/><path class="cls-18" d="M122,334.44a3.54,3.54,0,0,1,1-.89A1.08,1.08,0,0,1,122,334.44Z"/><path class="cls-10" d="M874.7,85.16l56.12,1.68,4.08,1.59L935,92.6c-2.4.22-4.8.64-7.2.62-8-.07-15.91-.3-23.86-.47-4.25-.2-8.51-.28-12.76-.6-13.2-1-26.42-1.84-39.58-3.26-6.67-.73-13.24-2.48-19.79-4-1.2-.28-2.1-1.81-3.14-2.77l22.56.63,7,.19,2.58.69h4.7Z"/><path class="cls-10" d="M895,97.49l7.5-1.79c12.67,3,25.54,1.73,38.36,1.83l3.5,4.25c-4.42.41-8.84,1-13.27,1.16-2.77.09-5.78-1.34-8.29-.64C912.65,105.1,903.78,101.79,895,97.49Z"/><path class="cls-8" d="M940.85,97.53c-12.82-.1-25.69,1.2-38.36-1.83.49-1,1-2,1.49-3,7.95.17,15.9.4,23.86.47,2.4,0,4.8-.4,7.2-.62L941,96.1A5.73,5.73,0,0,1,940.85,97.53Z"/><path class="cls-16" d="M118.7,319.54l8-13.62,8.11-7.85,7.15-.08,0,0q-1.61,5.4-3.22,10.8L128,319.62Z"/><path class="cls-18" d="M128,319.62l10.71-10.8,7.37.08c-6.37,4.67-8.09,14-16.68,16.45Q128.74,322.49,128,319.62Z"/><path class="cls-16" d="M816.36,778.14c2.51-6.2,7.48-9.39,13.64-11.1l.18,2.28-7.75,5.88L821,776.31l-.16.22-1.33,1.35Z"/><path class="cls-13" d="M777.5,807.07l-4.63,3"/><path class="cls-11" d="M830.18,769.32,830,767l4.08-1.41Z"/><path class="cls-13" d="M405.41,896.15l3.49-1Z"/><path class="cls-16" d="M814.66,779.51l1.64-1.65Z"/><path class="cls-13" d="M802.36,790.55l-1.47,1.2"/><path class="cls-13" d="M797.77,793.77l-1.46,1.1"/><path class="cls-2" d="M663.05,609.5c5.2-11.41,10.94-22.61,15.47-34.28,9-23,11.94-47.09,11.47-71.69a217.81,217.81,0,0,0-13.5-70.63c-1.54-4.25-.43-5.16,3.82-5.27,13.8-.36,27.59-1.13,41.39-1.73,1.17,14.53,3.14,29.05,3.37,43.6.71,43.61-12.43,82.88-39.51,117.12C679,595,670.6,601.91,663.05,609.5Z"/><path class="cls-4" d="M736.84,276.34c6.45,10.51,12.47,21.31,19.44,31.47,9.16,13.34,13.36,28.74,19.32,43.42a7.37,7.37,0,0,1,.14,2.27c-2.73.7-5.51,1.23-8.17,2.11-8.26,2.75-6.78,3.47-7.61,12.11-1.69,17.41,5.86,33.84,3.78,51.06-.14,1.17-.5,2.32-.75,3.48a24.71,24.71,0,0,1-.84-3.55c-3.37-38.95-15.78-75-34.94-108.87-4.28-7.57-8.91-14.94-13.51-22.32-.9-1.43-2.45-2.46-3.7-3.68-.47-1.43-.57-3.16-1.46-4.26q-11.14-13.87-22.61-27.48c-.85-1-2.64-1.24-4-1.83l-.07-.14c-1.91-5.7.59-8.43,6.1-9.41a17.69,17.69,0,0,0,5-2c.49-.26.68-1.24.8-1.93,0-.18-.67-.66-1.09-.73-2.88-.5-13.41,5.32-15.25,8.38l-2-1.34c-1.11-1.93-1.77-4.47-3.42-5.69-4.38-3.23-4.43-7.48-3.89-12.09l.24-9.23,6.52,1.7a1,1,0,0,1,.83.2l1.65,1.2c7.45,5.69,15.39,10.85,22.26,17.18,10.81,10,20.89,20.71,31.28,31.13l1.86.57Q734.79,272.21,736.84,276.34Z"/><path class="cls-3" d="M681.94,250.27c1.35.59,3.14.82,4,1.83q11.48,13.59,22.61,27.48c.89,1.1,1,2.83,1.46,4.26-2.38,1.64-4.55,3.86-7.17,4.8-11,3.93-22.17,7.36-33.19,11.23-3,1.06-5.74,3-8.59,4.56q-7.39-8.3-14.77-16.6l-.11-.15-1.43-1.54-.07-.09-1.5-1.53-.07-.08L641.64,283l-.07-.07-1.46-1.47-.07-.08-1.48-1.49-.08-.08L637,278.33l-.07-.08-1-2.05q20-6.74,40-13.47C686.18,259.29,686.19,259.31,681.94,250.27Z"/><path class="cls-4" d="M364.1,558.77c-1.54-8.92-3.1-17.83-4.58-26.76-.09-.55.5-1.22.77-1.83a10,10,0,0,1,.71,2.05c1.07,8.84,2.09,17.68,3.12,26.52Z"/><path class="cls-4" d="M364.12,558.75q1.56,6.93,3.1,13.88l-.05,0q-1.53-7-3.07-13.9Z"/><path class="cls-4" d="M382.59,611.25Q380.3,606.6,378,602l0,0q2.33,4.64,4.64,9.26Z"/><path class="cls-4" d="M387.31,621.73q-1.62-2.13-3.23-4.27c0-1.05.05-2.1.07-3.15l0,0Z"/><path class="cls-4" d="M370.31,583.41l3.09,7.73-.06,0q-1.53-3.85-3.08-7.73Z"/><path class="cls-4" d="M370.26,583.45l-1.53-6.17,0,0c.52,2,1,4.11,1.55,6.16Z"/><path class="cls-4" d="M367.22,572.63l1.54,4.62,0,0-1.56-4.61Z"/><path class="cls-4" d="M373.4,591.14q.77,2.31,1.54,4.63l-.05,0c-.52-1.54-1-3.08-1.55-4.63Z"/><path class="cls-4" d="M382.66,611.19l1.53,3.08,0,0-1.56-3.06Z"/><path class="cls-4" d="M376.49,598.84l1.53,3.09,0,0c-.52-1-1-2.06-1.55-3.08Z"/><path class="cls-4" d="M374.94,595.77l1.55,3.07-.06,0-1.54-3.08Z"/><path class="cls-10" d="M705.12,608.69a6,6,0,0,1-.84.83A.8.8,0,0,1,705.12,608.69Z"/><path class="cls-2" d="M661.61,611.27l1.66-1.92Z"/><path class="cls-10" d="M399.59,637.45c13.08,7,25.92,14.61,39.3,21,21,10.06,43.24,16.11,66.3,19.06,9.89,1.26,19.83,2.79,29.77,2.92,21.06.29,42-1.71,62.36-7.45-11,5.9-21.79,12.31-33.1,17.6a131.6,131.6,0,0,1-55.85,12.44,93.64,93.64,0,0,1-38.66-8.94c-23.43-10.71-43.5-26-61.35-44.31C404.87,646.24,402.48,641.6,399.59,637.45Z"/><path class="cls-10" d="M398.14,635.94l1.45,1.51Z"/><path class="cls-15" d="M637.18,852c-2.09,5.32-7,6.47-11.7,7.4C611,862.27,596.3,864,582,867.61c-18.83,4.73-37.86,4.25-56.93,4.28-2.7,0-5.41-.85-8.12-1.31,6.22-1,12.43-2.05,18.66-3q26.82-4,53.67-8l4.91-1.41,2.79-.13,1.86-1.39,4.31-.07c2.65.2,5.45,1,7.93.47,6.9-1.58,13.63-3.87,20.5-5.58C633.32,851.1,635.31,851.82,637.18,852Z"/><path class="cls-7" d="M769.37,777.42a19.71,19.71,0,0,1-1.66-1.34,20.31,20.31,0,0,1,2.53-3.28c.14-.14,1.24.7,1.89,1.09C771.27,775,770.4,776.11,769.37,777.42Z"/><path class="cls-7" d="M788.31,761.18a17,17,0,0,1-2.56,1.89c-.14.07-1.18-1-1.08-1.3a2.55,2.55,0,0,1,1.4-1.48C786.47,760.14,787.14,760.69,788.31,761.18Z"/><path class="cls-7" d="M760.6,780.91l3.29-2.13.38.6L760.65,781Z"/><path class="cls-10" d="M594.22,858.23l-4.91,1.41Z"/><polygon class="cls-7" points="777.56 768.55 778.02 768.16 777.63 768.62 777.56 768.55"/><path class="cls-7" d="M776,770.09l1.56-1.54.07.07-1.54,1.56Z"/><polygon class="cls-7" points="776.09 770.18 775.63 770.55 776 770.09 776.09 770.18"/><polygon class="cls-7" points="760.65 780.95 760.22 781.34 760.6 780.91 760.65 780.95"/><polygon class="cls-7" points="755.97 783.99 756.42 783.61 756.03 784.05 755.97 783.99"/><polygon class="cls-7" points="756.03 784.05 755.59 784.43 755.97 783.99 756.03 784.05"/><path class="cls-10" d="M598.87,856.71,597,858.1Z"/><path class="cls-7" d="M600.82,184c-6-1.07-12-2.53-18-3.15-17.16-1.73-34.4-4.74-51.52-4.22-19.88.6-39.57,4.26-59,9.57-20,5.47-38.33,14.19-56.24,24.16-6.08,3.39-11.91,7.21-17.86,10.84,3.45-3.88,6.25-8.77,10.46-11.46,13.5-8.64,28-15.13,43.12-20.9,14.14-5.42,28.33-10,43.11-12.62,21.18-3.69,42.41-5.57,64.13-3.41,18,1.79,35.65,4.29,52.73,9.76,13.39,4.3,26.41,9.88,39.27,15.6,3.65,1.62,6.21,5.71,9.27,8.67-2.25-.9-4.54-1.73-6.76-2.71-7-3.1-14-6.26-21.06-9.4l.13.09-6.15-2,.22.05Z"/><path class="cls-3" d="M632.45,194.68c7,3.14,14,6.3,21.06,9.4,2.22,1,4.51,1.81,6.76,2.71l14.57,11-6.52-1.7a45.8,45.8,0,0,0-5-3.25c-5.55-2.68-11.17-5.19-16.76-7.77Z"/><path class="cls-14" d="M381.22,237.82l-4.16,4.65Z"/><path class="cls-7" d="M396.79,222.55l-4.69,3.2Z"/><path class="cls-8" d="M732.72,268.07l-1.86-.57c.23-1.76.45-3.52.68-5.29C731.93,264.16,732.33,266.12,732.72,268.07Z"/><path class="cls-15" d="M754.47,214.67l1.55,3.12Z"/><path class="cls-7" d="M398.32,220.88l-1.79,1.79Z"/><path class="cls-3" d="M677.32,219.19l-1.65-1.2Z"/><path class="cls-15" d="M751.39,211.49c.52.55,1,1.11,1.54,1.66C752.42,212.6,751.91,212,751.39,211.49Z"/><path class="cls-15" d="M752.92,213.13l1.56,1.57Z"/><path class="cls-5" d="M433.58,413.75c0,1.79-.05,3.59.09,5.38.31,3.88-1.25,5.36-5.28,5.5-9.42.34-18.83,1.18-28.24,1.82l4.35-20.24q2.78-7.86,5.56-15.71c5.22-.91,10.61-1.3,15.62-2.88s8.38-1.51,9.35,4.5l-.6,6.16C430.19,403.22,431.55,408.46,433.58,413.75Z"/><path class="cls-1" d="M331.78,357.88l1.62-10.53c4.22-.12,8.74.74,12.6-.5,26.85-8.64,53.55-17.78,80.36-26.56,3.81-1.25,8-1.4,12-2.06l-11.06,21.7.09-3.16.06-6.46c.38-.88.75-1.76,1.12-2.64l-8.94,2.77.09,0L415,332l.09-.05-4.72,1.59.09,0-4.72,1.59.09,0-4.71,1.58.08,0-4.71,1.59.08-.05-4.71,1.59.08-.05-4.71,1.59.09,0-4.72,1.58.09,0L378,344.33l.08,0-4.71,1.58.08,0-4.71,1.59.08,0L364.08,349l.08,0-4.71,1.58.09,0-4.72,1.59.09-.05-4.71,1.59.08,0-4.71,1.58.08,0-4.71,1.59.08-.05-4.71,1.59.08,0Z"/><path class="cls-3" d="M427.38,336.77l-.09,3.16C424.24,348,421,356,418.2,364.22c-2.95,8.68-5.44,17.51-8.14,26.28q-2.78,7.86-5.56,15.71c1.37-7.26,2-14.75,4.25-21.72,4.53-14.12,9.86-28,15-41.9C424.55,340.49,426.16,338.7,427.38,336.77Z"/><path class="cls-3" d="M419.62,330.44l8.94-2.77c-.37.88-.74,1.76-1.12,2.64Z"/><path class="cls-3" d="M331.78,357.88l4.61.3-4.65,3.3Z"/><path class="cls-3" d="M401.11,336.61l4.71-1.58Z"/><path class="cls-3" d="M415,332l4.72-1.59Z"/><path class="cls-3" d="M396.48,338.16l4.71-1.59Z"/><path class="cls-3" d="M391.85,339.7l4.71-1.59Z"/><path class="cls-3" d="M387.22,341.24l4.71-1.59Z"/><path class="cls-3" d="M382.59,342.78l4.72-1.58Z"/><path class="cls-3" d="M350.2,353.59l4.71-1.59Z"/><path class="cls-3" d="M378,344.33l4.71-1.59Z"/><path class="cls-3" d="M373.34,345.87l4.71-1.58Z"/><path class="cls-3" d="M368.71,347.42l4.71-1.59Z"/><path class="cls-3" d="M364.08,349l4.71-1.58Z"/><path class="cls-3" d="M359.45,350.5l4.71-1.58Z"/><path class="cls-3" d="M354.82,352.05l4.72-1.59Z"/><path class="cls-3" d="M345.57,355.13l4.71-1.58Z"/><path class="cls-3" d="M405.73,335.07l4.72-1.59Z"/><path class="cls-3" d="M340.94,356.68l4.71-1.59Z"/><path class="cls-3" d="M336.31,358.22l4.71-1.59Z"/><path class="cls-3" d="M410.36,333.53l4.72-1.59Z"/><path class="cls-18" d="M802.37,774.87l-1.59,1.6,0-.17,1.55-1.54Z"/><path class="cls-17" d="M800.78,776.47l-1.47,1.45-.14-.11c0-.46.06-.92.06-1.39.5,0,1-.09,1.51-.12Z"/><path class="cls-12" d="M800.74,776.3c-.51,0-1,.07-1.51.12l-2.93,1.42L776.12,787l21.61-17.6c4.9-4,9.69-8.13,14.77-11.87,1.85-1.37,4.38-1.8,6.61-2.66-4.12,4.37-8.35,8.65-12.31,13.15a58.54,58.54,0,0,0-4.51,6.7Z"/><path class="cls-12" d="M842.35,731.89c-3.82,8.28-9,15.16-18.18,18.09,0-.76-.3-1.87.08-2.21C830.23,742.42,836.3,737.17,842.35,731.89Z"/><path class="cls-15" d="M658.76,845.77c-2.06,4-5,5.27-9.16,3.1Z"/><path class="cls-8" d="M933.64,584.9q1.47-2.88,2.93-5.76Q935.12,582,933.64,584.9Z"/><path class="cls-7" d="M879.41,666.78l1.61-1.87Z"/><path class="cls-7" d="M877.88,668.32l1.57-1.59Z"/><path class="cls-8" d="M933.46,586.34a5.28,5.28,0,0,1-.4-.83s.27-.2.41-.31C933.47,585.58,933.46,586,933.46,586.34Z"/><path class="cls-8" d="M939.68,574.22l.05,1.61a12.54,12.54,0,0,0-1.5.06C938.71,575.33,939.19,574.77,939.68,574.22Z"/><path class="cls-18" d="M796.3,777.84l2.93-1.42c0,.47,0,.93-.06,1.39Z"/><path class="cls-4" d="M438.35,318.23c-4,.66-8.18.81-12,2.06-26.81,8.78-53.51,17.92-80.36,26.56-3.86,1.24-8.38.38-12.6.5l1.61-4.62c31.89-10.58,63.74-21.25,95.69-31.64,4.53-1.47,9.5-1.54,14.27-2.26-.67,1.5-1.33,3-2,4.51Z"/><path class="cls-20" d="M445,308.83c-4.77.72-9.74.79-14.27,2.26-31.95,10.39-63.8,21.06-95.69,31.64l-.69-1.5q.78-2.5,1.54-5c3-.78,6-1.39,8.88-2.37,31.61-10.65,63.18-21.44,94.84-31.94,3.46-1.15,7.43-.73,11.17-1Z"/><path class="cls-21" d="M354.82,287.16c-1.11,4.7-2.36,9.38-3.3,14.12a62.23,62.23,0,0,0-.58,7.39c2.4-.25,4.93-.08,7.16-.82q55-18.44,110-37.06a103.44,103.44,0,0,1,11.1-3c.53-.11,2.23,2,2.06,2.3-4.91,8-10,15.83-15,23.71-2.84-3.69-6-5-9.73-1.19a89.29,89.29,0,0,0-8.91,2.07c-32.14,10.8-64.23,21.74-96.39,32.49-3.31,1.1-6.94,1.2-10.43,1.77Z"/><path class="cls-13" d="M340.72,328.9c3.49-.57,7.12-.67,10.43-1.77,32.16-10.75,64.25-21.69,96.39-32.49a89.29,89.29,0,0,1,8.91-2.07l-5.7,8.31c-3.74.3-7.71-.12-11.17,1-31.66,10.5-63.23,21.29-94.84,31.94-2.9,1-5.92,1.59-8.88,2.37.38-2.41.76-4.81,1.15-7.22Z"/><path class="cls-21" d="M359.3,276l-3,8.07Z"/><path class="cls-21" d="M361.06,271.78c-.52,1.09-1.05,2.18-1.58,3.27C360,274,360.54,272.87,361.06,271.78Z"/><path class="cls-21" d="M356.35,284.06l-1.56,3.15Z"/><path class="cls-21" d="M362.55,270,361,271.81Z"/><polygon class="cls-16" points="814.62 768.56 815 768.22 814.65 768.6 814.62 768.56"/><path class="cls-8" d="M401.19,29.06C421.78,22.93,442,15.3,463,10.87,488.94,5.38,515.16.3,542,.42,560.28.5,578.72-.82,596.9.85a498.76,498.76,0,0,1,77.11,13C702,21,728.35,32,754.5,43.71c15.09,6.78,30,14.11,45.18,20.53,7.42,3.13,15.49,4.72,23.24,7.1,1.93.59,3.69,1.82,5.63,2.29a112.91,112.91,0,0,0,14.68,3c4.22.44,7.68,1,8,6.13l-22.56-.63c-9-2.76-18.18-5.16-27-8.38-9.76-3.56-19.25-7.87-28.86-11.85-1.17-.49-2.39-.9-3.52-1.46C749.37,50.47,729.69,40,709.47,30.73,689.58,21.6,668.4,15.45,646.65,14c-11.33-.74-22.18-3.12-33.28-4.4-8.81-1-17.72-1.51-26.59-1.65-16.09-.25-32.22-.71-48.27.08C518.6,9,498.42,9.55,479,13.3c-19.2,3.71-37.72,11-56.41,17.13-11.92,3.89-23.92,7.79-35.3,13-10.91,5-22.13,8.93-33.2,13.37-9.1,3.65-17.29,9.78-25.49,15.4-16.05,11-31.87,22.34-47.69,33.68-3.64,2.6-6.89,5.72-10.32,8.6l-.57-.12,6.45-10.56,3.26-4.48,7.56-6.06c11.24-7.45,22.45-15,33.74-22.34,4.91-3.21,10.27-5.79,15-9.27a153.1,153.1,0,0,1,40.31-21.54"/><path class="cls-15" d="M221.14,164.3c6.2-6.73,12.17-13.68,18.49-20.29,7.22-7.55,14.7-14.85,22.13-22.19,2.64-2.6,5.47-5,8.21-7.49l.57.12c-4.16,5.46-8,11.18-12.54,16.33-8.76,10-18.52,19.18-26.69,29.63-12.76,16.33-24.81,33.24-36.64,50.27-5.54,8-8.88,17.59-15,25-10.12,12.39-11.78,28.15-18.72,41.71-.55,1.06-.32,2.51-.45,3.79l-9.27,19.89-1.63,1.46c-3.37-4.92.14-9.28,1.14-13.84.59-2.68,1.22-5.36,1.84-8,6-12.89,11.32-26.16,18.19-38.58,9.61-17.39,20.25-34.21,30.69-51.12"/><path class="cls-10" d="M151.27,301.11l9.27-19.89,9.19-4.71C167.23,287.45,162.46,296.68,151.27,301.11Z"/><path class="cls-17" d="M152.62,280.69c-.62,2.68-1.25,5.36-1.84,8-1,4.56-4.51,8.92-1.14,13.84q-1.77,3.17-3.53,6.33l-7.37-.08q1.6-5.4,3.22-10.8l.37-.4-.4.37-7.15.08,2.67-3.25,9.16-10.7Z"/><path class="cls-8" d="M860.87,83.6l-2.58-.69Z"/><path class="cls-6" d="M438.35,318.23l4.62-4.89,13.82-1.52-.18,4.7,0,0q-1.56,3.87-3.13,7.76l.05-.06q-1.57,4.66-3.13,9.33l0-.07c-.53,1.56-1.06,3.13-1.6,4.69l0-.08q-1.53,4.68-3.08,9.37l.05-.1-2,6.26c-2.37,11.19-4.72,22.4-7.15,33.58a43.56,43.56,0,0,1-1.71,5c-1-6-4.31-6.09-9.35-4.5s-10.4,2-15.62,2.88c2.7-8.77,5.19-17.6,8.14-26.28,2.78-8.18,6-16.2,9.09-24.29Z"/><path class="cls-2" d="M681.94,250.27c4.25,9,4.24,9-6,12.46q-20,6.7-40,13.47l-13.78-11.58c1.6-1.65,2.9-4.13,4.83-4.82,16.08-5.76,32.27-11.18,48.43-16.7l2,1.34,4.48,5.69Z"/><path class="cls-22" d="M675.39,243.1C659.23,248.62,643,254,627,259.8c-1.93.69-3.23,3.17-4.83,4.82l-15.82-12.87c2.57-1.09,5.08-2.36,7.72-3.25,14.07-4.76,28.19-9.34,42.22-14.19,1.94-.67,5.18-2.94,5-3.64-2.32-8,3.67-4.83,6.85-5.35-.54,4.61-.49,8.86,3.89,12.09C673.62,238.63,674.28,241.17,675.39,243.1Z"/><path class="cls-21" d="M668.08,225.32c-3.18.52-9.17-2.69-6.85,5.35.2.7-3,3-5,3.64-14,4.85-28.15,9.43-42.22,14.19-2.64.89-5.15,2.16-7.72,3.25-5.65-4.54-5.75-4.84.69-7.08,14.28-5,28.68-9.61,43-14.42,8.47-2.84,8.48-3,1.84-9.41a8.28,8.28,0,0,0-1.66-1.59c-6.52-3.38-7.44-8.16-3.67-14.18,5.59,2.58,11.21,5.09,16.76,7.77a45.8,45.8,0,0,1,5,3.25Z"/><path class="cls-14" d="M456.79,311.82,443,313.34c.67-1.51,1.33-3,2-4.51l5.78-7.95,5.7-8.31c3.76-3.83,6.89-2.5,9.73,1.19a6.36,6.36,0,0,0-.2.78c-.52,1.16-1,2.33-1.57,3.49v0l-1.51,3.12h0l-4.65,10.79h0C457.78,311.88,457.29,311.84,456.79,311.82Z"/><path class="cls-3" d="M600.82,184l25.83,8.92Z"/><path class="cls-6" d="M433.58,413.75c-2-5.29-3.39-10.53.85-15.47Z"/><path class="cls-21" d="M458.26,311.92l4.65-10.79Z"/><path class="cls-21" d="M445.82,347.41q1.55-4.7,3.08-9.37Q447.37,342.72,445.82,347.41Z"/><path class="cls-21" d="M450.43,333.5q1.56-4.67,3.13-9.33Q452,328.83,450.43,333.5Z"/><path class="cls-21" d="M453.51,324.23q1.58-3.89,3.13-7.76Q455.08,320.34,453.51,324.23Z"/><path class="cls-3" d="M626.43,192.82l6.15,2Z"/><path class="cls-21" d="M443.89,353.57l2-6.26Z"/><path class="cls-21" d="M456.79,311.82c.5,0,1,.06,1.48.11l-1.66,4.59Z"/><path class="cls-21" d="M448.86,338.12c.54-1.56,1.07-3.13,1.6-4.69C449.93,335,449.4,336.56,448.86,338.12Z"/><path class="cls-21" d="M462.91,301.13l1.51-3.12Z"/><path class="cls-21" d="M464.41,298c.53-1.16,1-2.33,1.57-3.49C465.46,295.7,464.94,296.87,464.41,298Z"/><path class="cls-2" d="M640,281.36l.07.08Z"/><path class="cls-2" d="M646.17,287.68l.11.15Z"/><path class="cls-2" d="M644.67,286.05l.07.09Z"/><path class="cls-2" d="M643.1,284.44l.07.08Z"/><path class="cls-2" d="M641.57,282.91l.07.07Z"/><path class="cls-2" d="M638.48,279.79l.08.08Z"/><path class="cls-2" d="M636.94,278.25l.07.08Z"/><path class="cls-3" d="M681.87,250.13l-4.48-5.69c1.84-3.06,12.37-8.88,15.25-8.38.42.07,1.13.55,1.09.73-.12.69-.31,1.67-.8,1.93a17.69,17.69,0,0,1-5,2C682.46,241.7,680,244.43,681.87,250.13Z"/><polygon class="cls-16" points="141.93 297.99 142.33 297.62 141.96 298.02 141.93 297.99"/></g></g></svg>