<svg xmlns="http://www.w3.org/2000/svg" viewBox="0 0 1080 889.4"><defs><style>.cls-1{fill:#15acb7;}.cls-2{fill:#0bb474;}.cls-3{fill:#0b8bae;}.cls-4{fill:#13c58d;}.cls-5{fill:#0d9664;}.cls-6{fill:#c6c3bc;}.cls-7{fill:#aba5ba;}.cls-8{fill:#3db2bf;}.cls-9{fill:#a19dcb;}.cls-10{fill:#39ceb7;}.cls-11{fill:#648ecf;}.cls-12{fill:#3b7974;}.cls-13{fill:#2d5046;}.cls-14{fill:#88b4aa;}.cls-15{fill:#5fc8c6;}.cls-16{fill:#6ec1c0;}.cls-17{fill:#51b2c2;}.cls-18{fill:#829f70;}.cls-19{fill:#0b7287;}.cls-20{fill:#0b0f47;}.cls-21{fill:#0b865c;}.cls-22{fill:#0b1873;}</style></defs><g id="Layer_2" data-name="Layer 2"><g id="Layer_1-2" data-name="Layer 1"><path class="cls-1" d="M1042.93,509.76c-9,17-17.7,34.22-27.07,51a405.85,405.85,0,0,1-57.72,78.77A28,28,0,0,0,956.3,642c-2,1.92-4,3.8-6,5.76q-16.32,16.44-32.6,32.91c-3.28,2.63-6.57,5.24-9.83,7.89-3.85,3.13-7.67,6.29-11.5,9.44,1.72-3.61,2.94-7.59,5.25-10.78,10.15-14,20.71-27.69,30.91-41.65,2.84-3.89,4.92-8.33,7.42-12.47,7.79-12.91,16.56-25.34,23.14-38.84,5.81-11.91,9.23-25,13.6-37.57,2.68-7.73,5-15.57,7.77-23.28,3.45-9.77,7.79-19.28,10.49-29.23,2.34-8.58,3.26-17.6,4.18-26.5,1.05-10.16,1.84-20.39,2-30.61.11-9.44-.81-18.9-1.27-28.35l9.3-.22a2,2,0,0,0,1.34-.59l6.27-1.2a4,4,0,0,0,1.46.21c11.33,3.88,15.66,1.18,15.44-10.15-.32-16.79-.83-33.58-1.69-50.35-.14-2.58-2.58-5.05-4-7.58-.6-16.1-.94-32.22-1.86-48.3-2-35.52-10.24-69.68-23.2-102.75-3.81-9.73-7.5-19.5-11.25-29.25q-5.24-11.59-10.46-23.19c4.65.74,9.33,1.35,13.93,2.31,1.38.28,2.49,1.72,3.86,2.3,2.72,1.16,5.54,2.94,8.33,3,9.3,0,17.68,6.82,27.38,3.62.56-.18,1.39.6,2.13.77,9.12,2.06,18.25,4.13,27.4,6.08.53.11,1.26-.74,1.9-1.15,1.51,1.84,3.54,3.46,4.43,5.57,3.33,7.86,6.29,15.88,9.38,23.84V421.55c-1.94-.39-3.86-.87-5.82-1.1a3.75,3.75,0,0,0-2.59.56c-6,5-11.5,10.64-17.89,15-7.5,5.12-13.43,10.36-10.62,20.51,0,13.86-.14,27.72-.06,41.58,0,2.21.86,4.41,1.32,6.61Z"/><path class="cls-1" d="M0,660.69V543.43c9.48.34,15.4-8.14,24.1-9.78.55-.1,1-1.1,1.36-1.77,1.83-3.86,3.6-7.74,5.39-11.61.52,2.14,1.09,4.28,1.57,6.43q3,13.23,5.95,26.47a1.2,1.2,0,0,0,.23,1.05l1.32,5.19a1,1,0,0,0,.17,1q.72,2.5,1.43,5c5,23.5,14.69,45.2,26,66.21,2.29,4.24,5.13,8.19,7.72,12.27l1.9,3,1.31,1.91L80,651.56l1.51,2a1.18,1.18,0,0,0,.4,1l1.21,1.85c1.9,3,3.65,6.12,5.72,9a412.78,412.78,0,0,0,53,60.18c1.86,4.11,2.89,8.94,5.73,12.2,11.38,13.09,23.41,25.61,35,38.53,1.9,2.12,2.76,5.18,4.1,7.81l-14-4.72a57.31,57.31,0,0,0-5.23-3.17,719.86,719.86,0,0,1-101.24-58.4q-23.91-20.49-47.79-41C12.27,671.52,6.15,666.08,0,660.69Z"/><path class="cls-2" d="M0,660.69c6.15,5.39,12.27,10.83,18.47,16.16q23.87,20.53,47.79,41c1.35,3.55,2.16,7.45,4.15,10.6,19,30,40.59,57.89,66.57,82.16,5,4.63,10.76,9,17,11.48,22.31,9.06,44.62,18.4,67.58,25.54,26.59,8.26,53.86,14.29,80.82,21.38a67.18,67.18,0,0,1,7.66,3l-6.33.36L301,872l-5-1.17-2.7-.34-4.95-1.35c-13.43-3.52-26.92-6.8-40.26-10.62-16-4.57-32-9.35-47.8-14.54-7.44-2.44-14.41-6.23-21.72-9.1-49.45-19.41-96.6-43.22-140.23-73.62C25.08,752.09,12.74,741.58,0,731.66Z"/><path class="cls-3" d="M30.85,520.27c-1.79,3.87-3.56,7.75-5.39,11.61-.32.67-.81,1.67-1.36,1.77-8.7,1.64-14.62,10.12-24.1,9.78V432.35c7.66-2.14,11.37-9.2,17.11-13.72,2.05-.1,4.12-.05,6.15-.31,10.19-1.33,11.87-3.4,12.28-13.84.14-3.54,1-7.05,1.55-10.57,8.9-5.14,18.12-9.81,26.58-15.59,5.43-3.71,5.79-1.46,5.81,3.14-1,3.55-2.46,7-3.09,10.66a106.65,106.65,0,0,0-1.55,15c-.1,3.72.67,7.47,1,11.21l-2.35.27c-8.38.25-16.77.68-25.16.69-6.38,0-8.52,4.06-8.74,9.2-.73,16.75-1.07,33.53-1.57,50.29Q29.47,499.54,30.85,520.27Z"/><path class="cls-1" d="M69.48,381.46c0-4.6-.38-6.85-5.81-3.14C55.21,384.1,46,388.77,37.09,393.91a24.88,24.88,0,0,0-.16-4.58,19.26,19.26,0,0,0-1.67-3.83,21.32,21.32,0,0,0-3.13,2.93c-1.58,2.2-2.91,4.57-4.35,6.87L26,389.8a42,42,0,0,0-5.19,2.49c-7,4.54-13.86,9.21-20.78,13.83v-4.63c5.06-3.29,10.17-6.51,15.18-9.89,5.59-3.78,11.08-7.71,16.61-11.58l3.43,2.81c2.35-.78,5.14-1,7-2.43C49,375,55.59,369.21,62.24,363.54q8.33-7.12,16.62-14.3c.13,5.56,2.44,3.69,5,1.51,8.52-7.28,17.08-14.51,25.63-21.77,4.43,1,1.28,4,1.64,6.15q-6.28,9.15-12.58,18.31c-10,4.1-14.84,14-22.79,20.36-.27.22-.11,1-.16,1.48Z"/><path class="cls-2" d="M1043.08,456.52c-2.81-10.15,3.12-15.39,10.62-20.51,6.39-4.36,11.91-10,17.89-15a3.75,3.75,0,0,1,2.59-.56c2,.23,3.88.71,5.82,1.1v7.71l-12.11,14c-2.49.43-5.39.19-7.39,1.41C1054.5,448.3,1048.86,452.52,1043.08,456.52Z"/><path class="cls-1" d="M17.11,418.63C11.37,423.15,7.66,430.21,0,432.35v-17c8.17-.06,13.1-6.56,17.65-11.28,4.31-4.47,5-2.44,7.33.41C23.69,410,22.91,415.68,17.11,418.63Z"/><path class="cls-4" d="M25,404.5c-2.31-2.85-3-4.88-7.33-.41C13.1,408.81,8.17,415.31,0,415.37v-9.25c6.92-4.62,13.81-9.29,20.78-13.83A42,42,0,0,1,26,389.8l1.81,5.5,0,0-1.55,5Z"/><path class="cls-5" d="M1043.69,696.06l2.47,2.91Z"/><path class="cls-6" d="M141.88,725.6a412.78,412.78,0,0,1-53-60.18c-2.07-2.89-3.82-6-5.72-9l-1.21-1.85a1.18,1.18,0,0,1-.4-1l-1.51-2-1.53-2.79-1.31-1.91-1.9-3c.24-1.39,1.12-3.07.63-4.12-5.26-11.51,0-23.92-3.15-35.61-.37-1.38.82-3.45,1.76-4.89,3.14-4.74,5-9.5,2.17-15.11-.5-1-.65-3,0-3.63,4.77-4.69,5-10.21,3.68-16.23-.2-.91,0-2.6.62-2.89,7.74-3.91,8.56-11.52,10.31-18.68.16-.66,1.12-1.09,1.47-1.75,1-2,2.06-4,2.93-6.07,1.87-4.45,3.79-8.89,5.41-13.43,2.52-7.08,3.92-14.63,9.34-20.43.72-.77.29-2.52.72-3.7q1.64-4.62,3.59-9.1c1-2.33,2.28-4.54,3.4-6.82,5-10.12,10.34-20.09,14.84-30.42,3.33-7.66,5.62-15.77,11.72-21.92.3-.3.18-1,.3-1.49,2.28-9,2.32-9.5,12-8.9,6.79.42,13.69-1.19,16-6.57,3.49-8.24,8.21-15.72,11.76-23.75,1.7-3.87,1.59-8.28,6-10.74A5.53,5.53,0,0,0,193.3,374c.43-6.06,4.6-10,7.47-14.78,8.35-13.92,16.25-28.12,24.44-42.15.86-1.48,2.44-2.54,3.68-3.8,1.79-1.82,4.34-3.33,5.22-5.51a53.23,53.23,0,0,1,13.17-19.35c6.92-6.55,11.69-15.33,17.66-22.95,5.46-7,11.34-13.6,16.87-20.51,2.55-3.18,4.36-7,7.09-10,6.53-7.12,13.56-13.77,20.09-20.88,10-11,19.18-22.82,29.89-33.06,12-11.46,25-21.94,38.18-32.14,20.33-15.77,41.77-30.05,66.08-38.93a573.48,573.48,0,0,1,57.11-18,306.19,306.19,0,0,1,48.47-7.83c17.24-1.49,34.63-2.9,52,.68,11.25,2.33,22.79,3.26,34.14,5.12,15.38,2.54,30.9,4.59,46,8.3,14.56,3.58,28.5,9.23,43.25,12.75,20,4.77,39,13.37,58.46,20.31,1.69.6,3.46,1,5.16,1.57,9.87,3.4,21.06,4.95,29.28,10.71,10.55,7.4,25.3,6.23,33.35,17.7a2.67,2.67,0,0,0,2.09.8c6-.61,9.36,3.33,13,7,1.41,1.43,3.16,3.41,4.86,3.53,12.29.89,20.51,10.08,30.26,15.57,9.08,5.12,20.41,7.16,27.13,16.37.48.65,1.91.9,2.87.84,4.06-.24,6.58,1.71,8.89,4.9,1.22,1.68,3.69,2.65,5.78,3.46,5.23,2,11,2.89,14.36,8.24.31.5,1.27.6,1.92.88.11-.7.5-1.51.29-2.11-1.35-3.87-3-7.65-4.2-11.57-.6-2-.51-4.14-.74-6.22a68.55,68.55,0,0,1,6.51,3.88c1.76,1.3,3.25,4.4,4.78,4.35,6.56-.22,9.4,4.2,12.74,8.48,1.51,1.94,3.91,3.14,5.72,4.86a117.86,117.86,0,0,1,8.38,8.5c3.78,4.4,7.89,8.69,10.78,13.65,4.46,7.66,8,15.84,11.91,23.81a1.12,1.12,0,0,1,0,.76c-2.28,7.31,1.15,13.53,3.76,19.93a17.76,17.76,0,0,1,1.49,5.86c.3,9.12,3.42,17.79,2.11,27.35-1.8,13.05-1.44,26.42-1.76,39.65-.07,3.2.86,6.42,1.33,9.63-.09,1.56-.17,3.13-.25,4.7-4.37,7.17-4.2,15.16-4.19,23.12-.18,1.06-.35,2.11-.53,3.16l-.9,5c-.22,1.42-.45,2.84-.67,4.26l-1.24,2.8-6.27,1.2-1.34.59-9.3.22L989,418.23c1-9.62,2.45-19.22,2.75-28.85.28-8.82-.73-17.67-1.17-26.5q0-.74,0-1.47c0-7,0-14-.1-21.06,0-.45-.4-.89-.61-1.33a7.33,7.33,0,0,0-.81,2.46c.42,6.63,1,13.25,1.46,19.88-.14.16-.41.34-.39.48a5.69,5.69,0,0,0,.39,1.09c-.47,9.9-.92,19.79-1.42,29.68-.45,8.69-1,17.37-1.45,26.05a4.88,4.88,0,0,1-.41,1.24l-30.47.15c-3.55-.31-3.6,1.38-3.87,4.6-1.27,15.52-2.62,31.08-5,46.46a331.27,331.27,0,0,1-19.81,73.21c-8.29,20.61-16.74,41.18-26,61.38-11.23,24.54-25.66,47.26-41.91,68.82-.95,1.26-1.2,3.05-1.78,4.6,1.41-.78,3.1-1.29,4.18-2.39,5.21-5.26,10.25-10.68,15.35-16-1,2.27-1.56,4.8-2.94,6.78-17.2,24.6-38.71,45.27-60.26,65.9l-4.81,3.79c-5.2,4.16-10.36,8.37-15.64,12.43-.82.63-2.16.58-3.26.84a16,16,0,0,1,1.35-3.26,17.85,17.85,0,0,1,2.7-2.73q13.41-12.71,26.84-25.38a18.26,18.26,0,0,0,2.65-2.78,7.71,7.71,0,0,0,.64-2.56,13.72,13.72,0,0,0-2.83.49c-.68.27-1.17,1-1.79,1.44-14,10.31-27.78,21.08-42.23,30.79a432.72,432.72,0,0,1-78,41.7,529.52,529.52,0,0,1-86.65,27,400.4,400.4,0,0,1-77,8.84c-19.66.44-39.4-1.53-59.08-2.74a347.22,347.22,0,0,1-71.63-12.29c-59.14-16.38-114.67-40.5-165-76a18.11,18.11,0,0,0-3.87-1.56c.53,1.28.7,3,1.63,3.79,7.08,6.29,14.39,12.33,21.48,18.62a290.6,290.6,0,0,0,98.61,58.07c24,8.29,48.48,14.94,72.71,22.46,2.9.9,5.53,2.7,8.28,4.09a85.5,85.5,0,0,1-9.35-.62c-3.51-.59-6.92-1.8-10.43-2.5-.63-.13-1.5.9-2.26,1.4.49.51.89,1.26,1.48,1.49,1.67.64,3.41,1.1,5.14,1.58,6.93,1.92,13.86,3.79,20.77,5.78a9.38,9.38,0,0,1,2.37,1.61,12.88,12.88,0,0,1-3.1.61c-7.92-.54-15.82-1.2-23.73-1.76a8.25,8.25,0,0,0-2.1.39,9.45,9.45,0,0,0,2.35,1.42c4.19,1.08,8.44,2,12.63,3,20.42,5.21,40.91,9.63,62.22,9.07,4.39-.12,8.83,2,13.25,3-18.95-.45-38,.17-56.84-1.63-22.62-2.16-45.15-5.81-67.52-9.91-14.29-2.63-28.22-7.25-42.32-11-2.62-.94-5.25-1.85-7.86-2.81l-35.74-13.24-4.21-1.6h0a87.89,87.89,0,0,0-8-4.46c-25.52-11.1-49.62-24.77-72.81-40.09-4.89-3.24-9.91-6.29-14.87-9.42-14.28-10.6-28.6-21.16-42.84-31.82C151.31,733.28,146.64,729.38,141.88,725.6Zm713-41.64.49-.46-.34-.33-.43.52-1.69,1.66-6,6.12-.69,1.55,1-1.33,6-6ZM392,210.16l-.13.14-1.42,1.48c-7.39,8.79-14.81,17.55-22.08,26.44-.31.38.77,1.89,1.2,2.88q-2.65,3.81-5.32,7.63l-2,2.83,0,.06L361,253.38h0c-4.09,6-8.81,11.66-12.08,18.06s-4.76,14-7.87,20.67a109.17,109.17,0,0,0-9.65,38.42c-.58,3.45-1.27,6.9-1.71,10.37-.42,3.22.25,6.85-1,9.65-3.77,8.35-4.77,17.06-4.32,26,.68,13.44,1.79,26.87,2.72,40.3l-33.78,1.76-6.58.16-27.47,1.42c-5.72-.1-6,4.54-6,8.08-.25,19.42-1.5,39,.25,58.22,2.57,28.24,11,55.24,23.38,80.83,1.15,2.37,4.45,3.7,6.75,5.52,4.46,6.82,8.53,13.94,13.47,20.39,11.35,14.81,22,30.35,35,43.59,11.44,11.66,25.27,21.14,38.72,30.61a192.18,192.18,0,0,0,56.22,27.13c31,9.16,62.55,14.44,95.4,11.4a268.2,268.2,0,0,0,75.82-18c16.42-6.62,32-16,46.67-26.11,12.76-8.77,23.68-20.19,35.42-30.44h0c.65-1,1.29-2.08,1.93-3.12,8-6.94,16.51-13.46,23.95-21,4.46-4.53,7.31-10.64,10.88-16,5.51-10.33,11.42-20.48,16.45-31.05,14.52-30.46,21-63,22.12-96.42.5-14.44-1.74-29-2.74-43.48l33.7-1.94,6.42-.11c6.41.06,12.82.26,19.22.13,6.93-.13,9.29-2.19,9.95-9,.79-8.12,1.54-16.28,1.63-24.44a252.68,252.68,0,0,0-10.29-75.62q-3.29-11-6.6-22c2-2.38,1.26-3.87-1.57-4.64l-1.52-3.07-1.57-3.11c-.5-1-1-2-1.51-3.06,5.65-6.77-.59-11.41-3.18-16.51-14.29-28.16-35.17-51.21-58.74-71.56-27.26-23.54-58.75-39.85-93.51-50a244.87,244.87,0,0,0-65.06-9.72c-13-.21-26,1.51-39,2.82-27.06,2.75-52.37,11.82-76.64,23.44-11.71,5.6-22.24,13.67-33.17,20.82-1.75,1.15-2.78,3.38-4.14,5.11l-1.55.24-1.41,1.33-1.67,3L419.7,184c-.48.11-1,.2-1.45.28L415,188.61l-3,3-3,1.61-.14.09-1.49,1.42-1.55.27-1.4,1.33-3.22,4.55-3,1.6-.08.1q-2.28,3-4.54,6.07l-.15.08Z"/><path class="cls-7" d="M1024.55,373.7c-.47-3.21-1.4-6.43-1.33-9.63.32-13.23,0-26.6,1.76-39.65,1.31-9.56-1.81-18.23-2.11-27.35a17.76,17.76,0,0,0-1.49-5.86c-2.61-6.4-6-12.62-3.76-19.93a1.12,1.12,0,0,0,0-.76c-3.91-8-7.45-16.15-11.91-23.81-2.89-5-7-9.25-10.78-13.65a117.86,117.86,0,0,0-8.38-8.5c-1.81-1.72-4.21-2.92-5.72-4.86-3.34-4.28-6.18-8.7-12.74-8.48-1.53.05-3-3.05-4.78-4.35a68.55,68.55,0,0,0-6.51-3.88c.23,2.08.14,4.26.74,6.22,1.22,3.92,2.85,7.7,4.2,11.57.21.6-.18,1.41-.29,2.11-.65-.28-1.61-.38-1.92-.88-3.32-5.35-9.13-6.23-14.36-8.24-2.09-.81-4.56-1.78-5.78-3.46-2.31-3.19-4.83-5.14-8.89-4.9-1,.06-2.39-.19-2.87-.84-6.72-9.21-18-11.25-27.13-16.37-9.75-5.49-18-14.68-30.26-15.57-1.7-.12-3.45-2.1-4.86-3.53-3.63-3.69-7-7.63-13-7a2.67,2.67,0,0,1-2.09-.8c-8.05-11.47-22.8-10.3-33.35-17.7-8.22-5.76-19.41-7.31-29.28-10.71-1.7-.58-3.47-1-5.16-1.57-19.45-6.94-38.5-15.54-58.46-20.31-14.75-3.52-28.69-9.17-43.25-12.75-15.1-3.71-30.62-5.76-46-8.3-11.35-1.86-22.89-2.79-34.14-5.12-17.35-3.58-34.74-2.17-52-.68A306.19,306.19,0,0,0,500.25,92a573.48,573.48,0,0,0-57.11,18c-24.31,8.88-45.75,23.16-66.08,38.93-13.14,10.2-26.17,20.68-38.18,32.14C328.17,191.25,319,203.11,309,214.07c-6.53,7.11-13.56,13.76-20.09,20.88-2.73,3-4.54,6.79-7.09,10-5.53,6.91-11.41,13.55-16.87,20.51-6,7.62-10.74,16.4-17.66,22.95a53.23,53.23,0,0,0-13.17,19.35c-.88,2.18-3.43,3.69-5.22,5.51-1.24,1.26-2.82,2.32-3.68,3.8-8.19,14-16.09,28.23-24.44,42.15-2.87,4.78-7,8.72-7.47,14.78a5.53,5.53,0,0,1-2.62,3.62c-4.36,2.46-4.25,6.87-6,10.74-3.55,8-8.27,15.51-11.76,23.75-2.28,5.38-9.18,7-16,6.57-9.7-.6-9.74-.11-12,8.9-.12.5,0,1.19-.3,1.49-6.1,6.15-8.39,14.26-11.72,21.92-4.5,10.33-9.84,20.3-14.84,30.42-1.12,2.28-2.38,4.49-3.4,6.82q-1.95,4.47-3.59,9.1c-.43,1.18,0,2.93-.72,3.7-5.42,5.8-6.82,13.35-9.34,20.43-1.62,4.54-3.54,9-5.41,13.43-.87,2.07-1.89,4.08-2.93,6.07-.35.66-1.31,1.09-1.47,1.75-1.75,7.16-2.57,14.77-10.31,18.68-.57.29-.82,2-.62,2.89,1.35,6,1.09,11.54-3.68,16.23-.62.6-.47,2.62,0,3.63,2.79,5.61,1,10.37-2.17,15.11-.94,1.44-2.13,3.51-1.76,4.89,3.18,11.69-2.11,24.1,3.15,35.61.49,1-.39,2.73-.63,4.12-2.59-4.08-5.43-8-7.72-12.27-11.34-21-21-42.71-26-66.21q-.71-2.49-1.43-5a1,1,0,0,1-.17-1l-1.32-5.19a1.2,1.2,0,0,1-.23-1.05c6.16-6.26,3.15-17.82,12.8-22.22.87-.4.78-2.8,1.24-4.25.88-2.84,1.69-5.72,2.79-8.48,2.27-5.72,3.14-11.84,8.61-16.39,2.13-1.78.43-7.83,1.06-11.85s2.79-8,2.83-11.93a208.68,208.68,0,0,0-1.46-24.47c-.39-3.65-2.08-7.16-3.18-10.73l.48-24.22,2.35-.27c9.46-.38,19-.29,28.38-1.26,7.88-.81,8.72-2.18,6.94-9.79-1-4.16-.15-6.63,3.08-9.25a126.61,126.61,0,0,0,14.08-13c8.19-9.07,15.74-18.71,23.92-27.78,17.14-19,34.55-37.72,51.79-56.6q22.54-24.71,45-49.51c6-6.61,12.32-13,17.86-19.93,8.29-10.43,16-21.27,24-32a331,331,0,0,1,54.75-58c31.51-26.12,65.7-48.57,104.4-62.79a512.71,512.71,0,0,1,57.38-17c14.87-3.58,30.25-5.22,45.49-7C554.54,53,566.33,51.93,578,52.25c15.58.42,31.14,2.06,46.65,3.74A185,185,0,0,1,648,60.48c17.64,4.25,35.19,8.85,52.8,13.24,9.45,2.37,18.82,5.59,28.42,6.63s18.57,7.57,28.85,3.82c.89-.33,2.29.85,3.49,1.19,5.37,1.52,10.67,3.57,16.15,4.35,17.39,2.47,34.91,4.13,52.26,6.84a29.58,29.58,0,0,0,17-2.09c3.61,1,7.18,2.24,10.84,3,10.05,2.17,20.73,2.28,29.2,9.35,7,7.83,14.43,15.31,20.75,23.64,4,5.3,9,7.81,14.85,10.12,9.27,3.66,18.18,8.22,27.16,12.56,6.1,3,13.66,2.57,18.45,8.77,1.19,1.54,5.76.42,7,2,4.57,5.61,10.06,6.2,16.4,4.66,3.75,9.75,7.44,19.52,11.25,29.25,13,33.07,21.16,67.23,23.2,102.75.92,16.08,1.26,32.2,1.86,48.3-.7,4.8-1.41,9.58-2.09,14.38C1025.45,366.72,1025,370.21,1024.55,373.7Z"/><path class="cls-3" d="M1055.5,137.53l10.69,24.72c-.64.41-1.37,1.26-1.9,1.15-9.15-2-18.28-4-27.4-6.08-.74-.17-1.57-.95-2.13-.77-9.7,3.2-18.08-3.58-27.38-3.62-2.79,0-5.61-1.79-8.33-3-1.37-.58-2.48-2-3.86-2.3-4.6-1-9.28-1.57-13.93-2.31L969,126.76,946.13,94.34c8.21,2.93,16.68-.32,25.46,2.19,9.79,2.79,21.06-.65,31.53,2.25a7.09,7.09,0,0,0,4.48-.74c7.4-3.45,14.49-1.37,21.6.95h0l7.71,7.71,0,0,3.07,4.61h0l3.07,4.67h0c.52,1,1,2.09,1.55,3.13l0,0,1.57,1.56h0l1.57,1.6,0-.07,1.59,3.1h0l1.58,1.8c0,.3,0,.61,0,.91.52.65,1,1.31,1.55,2l0-.06,2,3.08c.4.49.79,1,1.18,1.49-.16.17-.48.38-.45.52a7,7,0,0,0,.46,1.19C1055.4,136.62,1055.44,137.07,1055.5,137.53Z"/><path class="cls-8" d="M989,418.23l10.89.51c.46,9.45,1.38,18.91,1.27,28.35-.12,10.22-.91,20.45-2,30.61-.92,8.9-1.84,17.92-4.18,26.5-2.7,9.95-7,19.46-10.49,29.23-2.73,7.71-5.09,15.55-7.77,23.28-4.37,12.59-7.79,25.66-13.6,37.57-6.58,13.5-15.35,25.93-23.14,38.84-2.5,4.14-4.58,8.58-7.42,12.47-10.2,14-20.76,27.65-30.91,41.65-2.31,3.19-3.53,7.17-5.25,10.78l-36.93,30.61c1-2.85,1.4-6.12,3.09-8.45,4.95-6.84,10.43-13.29,15.66-19.93,7.92-10.07,15.92-20.09,23.66-30.31,5.23-6.91,10.62-13.79,15-21.25,8-13.67,14.41-28.28,23-41.51a191.38,191.38,0,0,0,19.14-39,459.09,459.09,0,0,0,16.65-57.53c4.05-18.2,6.05-36.88,8.49-55.4.58-4.41-.67-9-1.08-13.59q2.07-10.89,4.13-21.79a4.88,4.88,0,0,0,.41-1.24A6.25,6.25,0,0,0,989,418.23Z"/><path class="cls-9" d="M969,126.76l12.24,18.61q5.22,11.59,10.46,23.19c-6.34,1.54-11.83.95-16.4-4.66-1.25-1.55-5.82-.43-7-2-4.79-6.2-12.35-5.82-18.45-8.77-9-4.34-17.89-8.9-27.16-12.56-5.87-2.31-10.82-4.82-14.85-10.12-6.32-8.33-13.77-15.81-20.75-23.64,6.86,1.69,14.17,2.39,20.46,5.3,11.24,5.2,24.48,3.5,35,10.8.75.52,2.46-.56,3.69-.46,2.24.17,5.21-.13,6.54,1.15C957.68,128.35,963.23,127.74,969,126.76Z"/><path class="cls-3" d="M1067.89,443.24q-4.67,14.56-9.34,29.13l-14.21,32.34c-.46-2.2-1.31-4.4-1.32-6.61-.08-13.86,0-27.72.06-41.58,5.78-4,11.42-8.22,17.42-11.87C1062.5,443.43,1065.4,443.67,1067.89,443.24Z"/><path class="cls-8" d="M1024.55,373.7c.46-3.49.9-7,1.39-10.46.68-4.8,1.39-9.58,2.09-14.38,1.37,2.53,3.81,5,4,7.58.86,16.77,1.37,33.56,1.69,50.35.22,11.33-4.11,14-15.44,10.15-.08-1-.15-2-.22-3,.22-1.42.45-2.84.67-4.26l.9-5c.18-1.05.35-2.1.53-3.16q2.1-11.55,4.19-23.12C1024.38,376.83,1024.46,375.26,1024.55,373.7Z"/><path class="cls-10" d="M859.48,728.63,896.41,698c3.83-3.15,7.65-6.31,11.5-9.44,3.26-2.65,6.55-5.26,9.83-7.89L882.2,717.12,878,721.46l-1.07,1-.46.42-1.14,1.12-.4.38-1.2,1.14q-4.07,3.85-8.12,7.72c-2.42,1.78-4.92,3.46-7.23,5.37-7.4,6.09-14.73,12.27-22.09,18.42,6-9.91,12.82-19.19,21.49-27l1.6-1.45Z"/><path class="cls-7" d="M1018,413.93c.07,1,.14,2,.22,3a4,4,0,0,1-1.46-.21Z"/><path class="cls-8" d="M1009.16,418.52l1.34-.59A2,2,0,0,1,1009.16,418.52Z"/><path class="cls-4" d="M387,887c-7.45-1.3-14.93-2.44-22.33-4-8.63-1.78-17.14-4.11-25.77-5.84-9.6-1.93-19.28-3.46-28.92-5.16a67.18,67.18,0,0,0-7.66-3c-27-7.09-54.23-13.12-80.82-21.38-23-7.14-45.27-16.48-67.58-25.54-6.21-2.52-12-6.85-17-11.48-26-24.27-47.61-52.17-66.57-82.16-2-3.15-2.8-7.05-4.15-10.6a719.86,719.86,0,0,0,101.24,58.4,57.31,57.31,0,0,1,5.23,3.17c5.6,6.18,11,12.52,16.87,18.45a52.78,52.78,0,0,0,9.68,7.24c2.61,1.63,5.66,2.52,8.38,4,2.46,1.34,4.73,3,7.08,4.54,9.57,6.29,19.11,12.63,28.72,18.86a70.92,70.92,0,0,0,10.44,6.13c7.68,3.27,15.69,5.76,23.33,9.11,15.19,6.65,30.22,13.68,45.33,20.51a20.37,20.37,0,0,0,3,.76c9.38,2.56,18.66,5.61,28.16,7.57,14.2,2.93,28.57,5.09,42.87,7.58q.1.52.18,1.05a6.8,6.8,0,0,0-.43,1.46l-5.68-.43Z"/><path class="cls-10" d="M396.55,884.16c-14.3-2.49-28.67-4.65-42.87-7.58-9.5-2-18.78-5-28.16-7.57a20.37,20.37,0,0,1-3-.76c-15.11-6.83-30.14-13.86-45.33-20.51-7.64-3.35-15.65-5.84-23.33-9.11a70.92,70.92,0,0,1-10.44-6.13c-9.61-6.23-19.15-12.57-28.72-18.86-2.35-1.54-4.62-3.2-7.08-4.54-2.72-1.47-5.77-2.36-8.38-4a52.78,52.78,0,0,1-9.68-7.24c-5.85-5.93-11.27-12.27-16.87-18.45l14,4.72,0,0,3.28,1.57,43,17,7.82,3.2c.46.45.92.9,1.37,1.36l.12.12c2.23,2.35,4.13,5.2,6.75,7,12.85,8.61,25.67,17,39.64,24.15,11.39,5.79,22.19,13.38,34.2,18.17,14.65,5.84,29.68,10.77,44.65,15.76,8.22,2.74,16.72,4.65,25,7.34C394.14,880.25,395.21,882.63,396.55,884.16Z"/><path class="cls-9" d="M63.06,442.85c1.1,3.57,2.79,7.08,3.18,10.73a208.68,208.68,0,0,1,1.46,24.47c0,4-2.2,7.9-2.83,11.93s1.07,10.07-1.06,11.85c-5.47,4.55-6.34,10.67-8.61,16.39-1.1,2.76-1.91,5.64-2.79,8.48-.46,1.45-.37,3.85-1.24,4.25-9.65,4.4-6.64,16-12.8,22.22q-3-13.23-5.95-26.47c-.48-2.15-1.05-4.29-1.57-6.43q-1.39-20.73-2.78-41.46c4.23.16,6.52-1.81,7.48-6,.41-1.78,1.68-4.21,3.16-4.76,9.35-3.5,11.14-13.72,17.84-19.49C58.74,446.69,60.89,444.76,63.06,442.85Z"/><path class="cls-8" d="M233,802.64l-43-17-3.28-1.57,0,0c-1.34-2.63-2.2-5.69-4.1-7.81-11.58-12.92-23.61-25.44-35-38.53-2.84-3.26-3.87-8.09-5.73-12.2,4.76,3.78,9.43,7.68,14.29,11.32,14.24,10.66,28.56,21.22,42.84,31.82,1.89,2.63,3.38,5.69,5.73,7.81,7.92,7.14,16.19,13.9,24.21,20.94C230.56,798.9,231.64,800.91,233,802.64Z"/><path class="cls-9" d="M38.6,554.22l1.32,5.19Z"/><path class="cls-9" d="M40.09,560.37q.72,2.5,1.43,5Q40.82,562.87,40.09,560.37Z"/><path class="cls-7" d="M77.17,646.86l1.31,1.91Z"/><path class="cls-7" d="M80,651.56l1.51,2Z"/><path class="cls-7" d="M81.92,654.56l1.21,1.85Z"/><path class="cls-9" d="M847.06,94.46a29.58,29.58,0,0,1-17,2.09c-17.35-2.71-34.87-4.37-52.26-6.84-5.48-.78-10.78-2.83-16.15-4.35-1.2-.34-2.6-1.52-3.49-1.19-10.28,3.75-19.21-2.78-28.85-3.82s-19-4.26-28.42-6.63c-17.61-4.39-35.16-9-52.8-13.24A185,185,0,0,0,624.66,56c-15.51-1.68-31.07-3.32-46.65-3.74-11.68-.32-23.47.78-35.11,2.15-15.24,1.79-30.62,3.43-45.49,7a512.71,512.71,0,0,0-57.38,17c-38.7,14.22-72.89,36.67-104.4,62.79a331,331,0,0,0-54.75,58c-7.92,10.71-15.68,21.55-24,32-5.54,7-11.87,13.32-17.86,19.93q-22.47,24.77-45,49.51c-17.24,18.88-34.65,37.62-51.79,56.6-8.18,9.07-15.73,18.71-23.92,27.78a126.61,126.61,0,0,1-14.08,13c-3.23,2.62-4.05,5.09-3.08,9.25,1.78,7.61.94,9-6.94,9.79-9.41,1-18.92.88-28.38,1.26-.38-3.74-1.15-7.49-1-11.21a106.65,106.65,0,0,1,1.55-15c.63-3.62,2-7.11,3.09-10.66l6.1-6.18c13.24-1.41,16.75-13,23-21.84q6.3-9.15,12.58-18.31L122,326.84a1.11,1.11,0,0,0,1-.9l.5-1.55,2.73-4.7,2-.78a1.74,1.74,0,0,0,1.11.32c1.85,5.08,5.51,4.22,8.6,2a165.9,165.9,0,0,0,14.73-12.29c13-12,26.86-23.24,38.35-36.54a655.31,655.31,0,0,0,44.61-58.13c7.31-10.67,15.71-20.58,23.7-30.77,3.14-4,6.08-8.34,9.87-11.65,15.72-13.76,29.07-30,46.22-42.4,12.19-8.84,23.86-18.21,36.71-26.32,24.39-15.4,50-27.7,76.75-38.49C457.92,52.85,488.23,47.23,518.8,42c5-.85,9.92-2.8,14.93-3A529.08,529.08,0,0,1,621,42.7c12.87,1.6,25.56,4.7,38.33,7.09,4.23.79,8.58,4.36,12.62-.62.38-.46,2-.17,2.91.1C691,53.92,708,56.12,722.94,64.75c2.82,1.63,6.15,2.39,9.29,3.45,3.32,1.12,6.83,1.78,10,3.23C753,76.34,763.75,81.12,776,80.55q11.76.06,23.54.14c2.56,0,5.19-.29,7.68.17,25.35,4.65,51.1,4,76.64,6,3.17.25,6.24,1.82,9.36,2.77-2.61.61-5.25,1.81-7.84,1.71-10.36-.39-20.73-.93-31-1.94C849.92,89,847.33,89.68,847.06,94.46Z"/><path class="cls-11" d="M63.06,442.85c-2.17,1.91-4.32,3.84-6.51,5.72-6.7,5.77-8.49,16-17.84,19.49-1.48.55-2.75,3-3.16,4.76-1,4.18-3.25,6.15-7.48,6,.5-16.76.84-33.54,1.57-50.29.22-5.14,2.36-9.19,8.74-9.2,8.39,0,16.78-.44,25.16-.69Z"/><path class="cls-2" d="M25,404.5l1.23-4.2,1.55-5,0,0c1.44-2.3,2.77-4.67,4.35-6.87a21.32,21.32,0,0,1,3.13-2.93,19.26,19.26,0,0,1,1.67,3.83,24.88,24.88,0,0,1,.16,4.58c-.54,3.52-1.41,7-1.55,10.57-.41,10.44-2.09,12.51-12.28,13.84-2,.26-4.1.21-6.15.31C22.91,415.68,23.69,410,25,404.5Z"/><path class="cls-4" d="M1029.2,99c-7.11-2.32-14.2-4.4-21.6-.95a7.09,7.09,0,0,1-4.48.74c-10.47-2.9-21.74.54-31.53-2.25-8.78-2.51-17.25.74-25.46-2.19l-1.78-.17-3.5-4.25a5.73,5.73,0,0,0,.13-1.43c9.31-.42,18.63-.9,27.94-1.25,4.34-.17,8.68-.09,13-.13l37.9-.39h0c.62,1,1.24,2.1,1.85,3.15C1026.28,91.2,1028.86,94.18,1029.2,99Z"/><path class="cls-1" d="M1019.85,86.72l-37.9.39c-4.35,0-8.69,0-13,.13-9.31.35-18.63.83-27.94,1.25L935,85l-.14-4.17c11.41.35,22.82.86,34.24,1,4.81,0,9.63-1.12,14.44-1.09,8.88.07,17.75.66,26.62.91,1.13,0,2.28-.73,3.42-1.12Z"/><path class="cls-4" d="M1036.89,106.69,1029.18,99Z"/><path class="cls-4" d="M1040,111.33l-3.07-4.61Z"/><path class="cls-4" d="M1043.06,116l-3.07-4.67,2.85,1.7C1042.92,114,1043,115,1043.06,116Z"/><path class="cls-1" d="M1021.7,89.87c-.61-1.05-1.23-2.1-1.85-3.15C1020.47,87.77,1021.09,88.82,1021.7,89.87Z"/><path class="cls-8" d="M123.47,324.39l-.5,1.55a3.43,3.43,0,0,0-1,.9l-10.86,8.29c-.36-2.1,2.79-5.14-1.64-6.15,2.81-3.2,5.29-6.49,3.1-11.09l4.56-5.59,1.57-.37L128,312q.71,2.87,1.4,5.73l-.32.42a6,6,0,0,0-.91.75l-2,.78Z"/><path class="cls-10" d="M112.57,317.89c2.19,4.6-.29,7.89-3.1,11.09-8.55,7.26-17.11,14.49-25.63,21.77-2.54,2.18-4.85,4.05-5-1.51,9.49-6.95,18.24-14.63,24.52-24.76Q108,321.18,112.57,317.89Z"/><path class="cls-11" d="M98.53,353.44c-6.2,8.8-9.71,20.43-23,21.84,0-.5-.11-1.26.16-1.48C83.69,367.4,88.54,357.54,98.53,353.44Z"/><path class="cls-4" d="M1054.19,133l-2-3.08Z"/><path class="cls-4" d="M1049.22,125.27l-1.59-3.1Z"/><path class="cls-4" d="M1044.58,119.13c-.52-1-1-2.09-1.55-3.13C1043.55,117,1044.06,118.09,1044.58,119.13Z"/><path class="cls-2" d="M1055.38,136.17a7,7,0,0,1-.46-1.19c0-.14.29-.35.45-.52Z"/><path class="cls-4" d="M1052.28,130c-.52-.66-1-1.32-1.55-2C1051.25,128.63,1051.76,129.29,1052.28,130Z"/><path class="cls-4" d="M1050.76,127.07l-1.58-1.8Z"/><path class="cls-4" d="M1047.66,122.24l-1.57-1.6Z"/><path class="cls-4" d="M1046.11,120.65l-1.57-1.56Z"/><path class="cls-1" d="M27.76,395.33l-1.55,5Z"/><path class="cls-4" d="M405.41,888.54a2.81,2.81,0,0,0-1.21.53l-2.74-.37-.36-3.13,7.41,1.29a.81.81,0,0,1,.39.72Z"/><path class="cls-12" d="M396.3,886.67a6.8,6.8,0,0,1,.43-1.46l4.37.36.36,3.13"/><path class="cls-12" d="M387,887l3.59-.75Z"/><path class="cls-13" d="M876.9,722.51l1.07-1A2.64,2.64,0,0,1,876.9,722.51Z"/><path class="cls-13" d="M875.3,724.05l1.14-1.12Z"/><path class="cls-13" d="M873.7,725.57l1.2-1.14Z"/><path class="cls-1" d="M786.69,418.34,753,420.28c-3.82-.32-6.32-.37-5,5.25a108.84,108.84,0,0,1,2.12,21.28A270.75,270.75,0,0,1,744,511.45c-5,22.85-12.62,44.68-24.15,65.08q-6.39,11.29-12.83,22.56l-1.88,2a.8.8,0,0,0-.84.83c-2.77,3.35-5.09,7.25-8.39,10-22.6,18.46-47.43,33.26-75.19,42.42-26.67,8.81-54.18,14-82.37,14-10.63,0-21.3-1.63-31.89-3a231.17,231.17,0,0,1-60.09-16,205.9,205.9,0,0,1-27.46-13.45c-10.9-6.6-21.09-14.37-31.58-21.64l-3.12-7.45-1.53-3.09L378,594.33l-1.53-3.1-1.55-3.07c-.52-1.54-1-3.09-1.54-4.63l-3.09-7.72-1.55-6.17L367.22,565q-1.55-6.94-3.1-13.88c-1-8.84-2.05-17.68-3.12-26.52a10,10,0,0,0-.71-2c-.27.61-.86,1.28-.77,1.83,1.48,8.93,3,17.84,4.58,26.76q1.54,6.95,3.07,13.9l1.56,4.61,1.53,6.17q1.55,3.87,3.08,7.73c.52,1.55,1,3.09,1.55,4.63l1.54,3.08c.52,1,1,2.05,1.55,3.08q2.31,4.64,4.61,9.28l1.56,3.06c0,1,0,2.1-.07,3.16-6.91-5.77-14.84-10.68-20.52-17.47C352.37,579,342.16,564.76,332,550.53c-11.23-15.79-18.89-33.4-24.68-51.84,12.66-4.16,25.3-8.38,38-12.47,9.05-2.91,12.33-.52,12.55,9.13.14,6.16-.05,12.31.14,18.46,0,1.22,1.14,2.4,1.75,3.59a14.89,14.89,0,0,0,.91-3.43c.16-8.1.51-16.22.26-24.31-.7-22.25,4.52-43.61,9.55-65,.43-1.86,3.13-4.31,5-4.51,8.09-.89,16.26-1,24.4-1.45q-1.25,17.59-2.49,35.2a215.38,215.38,0,0,0,12.38,89.48c15.29,42.13,43.35,73.3,81.76,95.64,16.83,9.79,34.71,17.61,54.38,16.59,45.07-2.33,83.73-19.94,115.69-52l1.66-1.91-.22.14C670.6,594.3,679,587.35,685.56,579c27.08-34.24,40.22-73.51,39.51-117.12-.23-14.55-2.2-29.07-3.37-43.6-3.4-17.89-9.6-34.84-17.21-51.33-11.62-25.15-26.56-48.25-43.44-70.14,2.85-1.54,5.57-3.5,8.59-4.56,11-3.87,22.19-7.3,33.19-11.23,2.62-.94,4.79-3.16,7.17-4.8,1.25,1.22,2.8,2.25,3.7,3.69,4.6,7.37,9.23,14.74,13.51,22.31,19.16,33.87,31.57,69.93,34.94,108.88a24.9,24.9,0,0,0,.84,3.54c.25-1.16.61-2.31.75-3.48,2.08-17.22-5.47-33.65-3.78-51.05.83-8.65-.65-9.37,7.61-12.11,2.66-.89,5.44-1.42,8.17-2.11C783.2,369.47,786.37,393.69,786.69,418.34Z"/><path class="cls-14" d="M680.42,631.38c-11.74,10.25-22.66,21.67-35.42,30.44-14.66,10.07-30.25,19.49-46.67,26.11a268.2,268.2,0,0,1-75.82,18c-32.85,3-64.36-2.24-95.4-11.4a192.18,192.18,0,0,1-56.22-27.13c-13.45-9.47-27.28-18.95-38.72-30.61-13-13.24-23.68-28.78-35-43.59-4.94-6.45-9-13.57-13.47-20.39-1.69-4.53-3.08-9.2-5.11-13.57-14.56-31.3-21.29-64.45-22.22-98.7-.36-13.42,1.89-26.92,3-40.38l27.47-1.42c.58,9.46.62,19,1.9,28.35,1.31,9.58,3.83,19,5.82,28.46,4.18,13.9,8.15,27.87,12.63,41.68,2.18,6.72,4.61,13.55,8.16,19.61A355.76,355.76,0,0,0,335,566.77c13.3,18.18,28,35.15,46.18,48.73,5.67,4.23,11.29,8.55,16.93,12.83l1.45,1.51h0c2.89,4.15,5.28,8.79,8.77,12.36,17.85,18.32,37.92,33.61,61.35,44.32a93.79,93.79,0,0,0,38.66,8.93A131.45,131.45,0,0,0,564.22,683c11.31-5.28,22.08-11.69,33.1-17.6,20.84-3.78,40-12.12,58.82-21.48C664.29,639.86,672.33,635.57,680.42,631.38Z"/><path class="cls-7" d="M509.17,862.88c-4.42-1.07-8.86-3.15-13.25-3-21.31.56-41.8-3.86-62.22-9.07-4.19-1.07-8.44-1.95-12.63-3a9.45,9.45,0,0,1-2.35-1.42,8.25,8.25,0,0,1,2.1-.39c7.91.56,15.81,1.22,23.73,1.76a12.88,12.88,0,0,0,3.1-.61,9.38,9.38,0,0,0-2.37-1.61c-6.91-2-13.84-3.86-20.77-5.78-1.73-.48-3.47-.94-5.14-1.58-.59-.23-1-1-1.48-1.49.76-.5,1.63-1.53,2.26-1.4,3.51.7,6.92,1.91,10.43,2.5a85.5,85.5,0,0,0,9.35.62c-2.75-1.39-5.38-3.19-8.28-4.09-24.23-7.52-48.75-14.17-72.71-22.46a290.6,290.6,0,0,1-98.61-58.07c-7.09-6.29-14.4-12.33-21.48-18.62-.93-.83-1.1-2.51-1.63-3.79a18.11,18.11,0,0,1,3.87,1.56c50.29,35.53,105.82,59.65,165,76a347.22,347.22,0,0,0,71.63,12.29c19.68,1.21,39.42,3.18,59.08,2.74a400.4,400.4,0,0,0,77-8.84,529.52,529.52,0,0,0,86.65-27,432.72,432.72,0,0,0,78-41.7c14.45-9.71,28.18-20.48,42.23-30.79.62-.45,1.11-1.17,1.79-1.44a13.72,13.72,0,0,1,2.83-.49,7.71,7.71,0,0,1-.64,2.56,18.26,18.26,0,0,1-2.65,2.78q-13.41,12.69-26.84,25.38a17.85,17.85,0,0,0-2.7,2.73,16,16,0,0,0-1.35,3.26c1.1-.26,2.44-.21,3.26-.84,5.28-4.06,10.44-8.27,15.64-12.43l4.81-3.79c-.86,2.08-1.18,4.68-2.65,6.13C805.9,745.57,800,752.12,792.9,757c-19.38,13.39-38.81,26.86-59.15,38.7-15.39,9-32,16-48.48,22.92-18.66,7.81-37.77,14.57-56.74,21.63-8.38,3.12-16.9,5.87-25.35,8.79l-4.31.07L597,850.5l-2.79.13-4.91,1.4q-26.84,4-53.67,8c-6.23.94-12.44,2-18.66,3ZM756,776.44l.39-.44-.45.38-.38.44Zm20.06-13.87,1.54-1.56.39-.46-.46.4L776,762.48l-.37.46Zm-15.44,10.77,3.62-1.56-.38-.6-3.29,2.12-.38.43Zm8.72-3.52,2.76-3.54c-.65-.39-1.75-1.23-1.89-1.09a20,20,0,0,0-2.53,3.29S768.61,769.2,769.37,769.82Zm18.94-16.24c-1.17-.5-1.84-1.05-2.24-.9a2.55,2.55,0,0,0-1.4,1.48c-.1.32.94,1.37,1.08,1.31A17.73,17.73,0,0,0,788.31,753.58Z"/><path class="cls-9" d="M369.58,241.1c-.43-1-1.51-2.5-1.2-2.88,7.27-8.89,14.69-17.65,22.08-26.44l1.42-1.48.13-.14,1.41-1.41.15-.08c3.57-.49,4.54-2.92,4.54-6.07l.08-.1,3-1.6,3.22-4.55,1.4-1.33,1.55-.27,1.49-1.42.14-.09,3-1.61,3-3,3.25-4.35c.49-.08,1-.17,1.45-.28l3.09-1.6,1.67-3,1.41-1.33,1.55-.24a35.35,35.35,0,0,0,4.16-1.86c12-7.32,23.48-15.68,36.06-21.81,18.59-9,37.71-17.34,58.48-20.25,15.43-2.16,30.94-5,46.43-5.12,16.78-.08,33.66,2.13,50.34,4.45,22.51,3.13,43.81,10.72,64,20.95,22.33,11.29,41.69,26.9,60.25,43.5,1.81,1.62,2.83,4.12,4.21,6.21.52.55,1,1.11,1.54,1.66h0l1.56,1.56v0l1.55,3.11v0c-1.66,6.34-2.52,7-7.2,3.89s-8.84-4.48-14.39-2.86a10.81,10.81,0,0,1-8-1.35c-12.5-8.28-25.63-3.82-38.6-2.29-.47.06-1.33,3.18-.89,3.57,4.63,3.95,9.45,7.67,14.27,11.39a132.18,132.18,0,0,1,30.32,32.1c-.23,1.77-.45,3.53-.68,5.3-10.39-10.42-20.47-21.18-31.28-31.14-6.87-6.33-14.81-11.49-22.26-17.17l-1.65-1.21a1.07,1.07,0,0,0-.83-.2l-14.57-11c-3.06-3-5.62-7.05-9.27-8.67-12.86-5.72-25.88-11.3-39.27-15.59-17.08-5.48-34.77-8-52.73-9.77-21.72-2.16-43-.28-64.13,3.41-14.78,2.57-29,7.21-43.11,12.62-15.09,5.78-29.62,12.26-43.12,20.9-4.21,2.69-7,7.58-10.46,11.46l.14-.26-1.79,1.78.26-.12-4.69,3.21-10.88,12.06-4.16,4.66-.27.3Z"/><path class="cls-3" d="M399.89,418.72c-8.14.41-16.31.56-24.4,1.45-1.86.2-4.56,2.65-5,4.51-5,21.37-10.25,42.73-9.55,65,.25,8.09-.1,16.21-.26,24.31a14.89,14.89,0,0,1-.91,3.43c-.61-1.19-1.71-2.37-1.75-3.59-.19-6.15,0-12.3-.14-18.46-.22-9.65-3.5-12-12.55-9.13-12.69,4.09-25.33,8.31-38,12.47-.64-1.55-1.27-3.11-1.91-4.66-1.9-7-4-14.06-5.66-21.17a263.8,263.8,0,0,1-6.44-54.29l33.78-1.76c4.74.65,6.27-.88,5.49-6a187.08,187.08,0,0,1-2.39-26.49c-.09-10.14,1-20.29,1.52-30.44l4.65-3.3-.08,0L341,349l-.08.05,4.71-1.59-.08,0,4.71-1.58-.08,0,4.71-1.58-.09,0,4.72-1.59-.09,0,4.71-1.59-.08,0,4.71-1.58-.08,0,4.71-1.59-.08,0,4.71-1.59-.08,0,4.71-1.59-.09.05,4.72-1.59-.09,0,4.71-1.58-.08,0,4.71-1.59-.08.05,4.71-1.59-.08.05,4.71-1.59-.09,0,4.72-1.59-.09.05,4.72-1.59-.09.05,4.72-1.59-.09,0,7.82-.13-.06,6.46c-1.22,1.93-2.83,3.72-3.61,5.82-5.16,13.91-10.49,27.78-15,41.9-2.24,7-2.88,14.46-4.25,21.72l-4.35,20.24Z"/><path class="cls-14" d="M731.54,254.6a132.18,132.18,0,0,0-30.32-32.1c-4.82-3.72-9.64-7.44-14.27-11.39-.44-.39.42-3.51.89-3.57,13-1.53,26.1-6,38.6,2.29a10.81,10.81,0,0,0,8,1.35c5.55-1.62,9.84-.18,14.39,2.86s5.54,2.45,7.2-3.89c6.31,7.59,13.2,14.78,18.8,22.87,9.12,13.16,17.41,26.9,26,40.4.51,1,1,2,1.51,3.06l1.57,3.11,1.52,3.07c.52,1.55,1,3.09,1.57,4.64q3.3,11,6.6,22a252.68,252.68,0,0,1,10.29,75.62c-.09,8.16-.84,16.32-1.63,24.44-.66,6.84-3,8.9-9.95,9-6.4.13-12.81-.07-19.22-.13-1.57-15.72-2.26-31.59-4.93-47.13a219.22,219.22,0,0,0-26.13-73.3c-4.57-7.9-9.3-15.75-14.54-23.21-2.35-3.35-5.29-7.27-10.67-5.86q-2.05-4.14-4.12-8.27C732.33,258.51,731.93,256.56,731.54,254.6Z"/><path class="cls-15" d="M401.1,885.57l-4.37-.36q-.08-.53-.18-1.05c-1.34-1.53-2.41-3.91-4.07-4.45-8.24-2.69-16.74-4.6-25-7.34-15-5-30-9.92-44.65-15.76-12-4.79-22.81-12.38-34.2-18.17-14-7.11-26.79-15.54-39.64-24.15-2.62-1.77-4.52-4.62-6.75-7,2.7.81,5.4,1.63,8.1,2.42l44.28,13h0l4.21,1.6,35.74,13.24c2.61,1,5.24,1.87,7.86,2.81,4.19,2.8,8.05,6.45,12.63,8.2,8.34,3.18,17.09,5.28,25.69,7.75,31.65,9.06,63.51,16.76,96.81,15.82,3-.09,6.1.62,9.15.92,7.13.69,14.26,1.91,21.4,1.91,10.23,0,20.53-1.85,30.69-1.17,28.42,1.9,55.6-4.91,82.73-11.21,26.7-6.2,52.51-15.65,77.78-26.34,4.88-2.06,9.32-5.2,13.88-8,6.27-3.82,12.38-7.89,18.71-11.61,3.08-1.82,6.78-2.64,9.71-4.64q27.9-19.11,55.55-38.61c.95-.66,1.41-2,2.09-3.09l1.47-1.45,1.59-1.6L814.61,761l0,0a47.39,47.39,0,0,1-2.16,5.37,28,28,0,0,1-3,3.88l5.38,1.71c-.07.54-.14,1.08-.22,1.62l-1.3,1.36-.21.2-10.53,7.62-.29.2-1.47,1.19-3.12,2-1.46,1.1-3.16,2-1.43,1.1-3.2,1.92L787,793.41l-3.09,1.94-1.59,1.12-.06,0-4.7,2.92,0,0-4.63,3-.07,0-6.43,4-.38.21c-16.85,8.53-33.61,17.24-50.58,25.53-12.61,6.16-25.36,12.12-38.29,17.57-30,12.65-61.72,19.83-93.32,26.92C564.39,881,544.44,883,524.72,886L504.51,889l-15.27.37-60.45-.09-2.94-.33-12.51-1.15-4.83-1Z"/><path class="cls-9" d="M603.18,849c8.45-2.92,17-5.67,25.35-8.79,19-7.06,38.08-13.82,56.74-21.63,16.49-6.9,33.09-14,48.48-22.92,20.34-11.84,39.77-25.31,59.15-38.7,7.06-4.87,13-11.42,19.16-17.49,1.47-1.45,1.79-4,2.65-6.13,21.55-20.63,43.06-41.3,60.26-65.9,1.38-2,2-4.51,2.94-6.78l0,0,1.57-1.58,0,0L881,657.3c8.86-12.42,18-24.63,26.48-37.31,9-13.52,17.34-27.49,26-41.26,0-.38,0-.76,0-1.13l.17-.31q1.47-2.88,2.93-5.76c.56-1.08,1.11-2.16,1.66-3.25a12.54,12.54,0,0,1,1.5-.06,57.54,57.54,0,0,1-1.05,6c-5.21,18.64-13.5,35.89-23,52.68-18.33,32.25-39.46,62.34-65.63,88.76-2.69,2.73-5.1,5.72-7.65,8.6-6.05,5.27-12.12,10.52-18.1,15.87-.38.34-.07,1.46-.08,2.21l-5.06,4.93c-2.23.86-4.76,1.29-6.61,2.66-5.08,3.75-9.87,7.88-14.77,11.87l-21.61,17.6c-4.7,3.84-9.14,8.09-14.16,11.46-12.07,8.1-24.07,16.42-36.76,23.47-10,5.56-20.91,9.6-31.59,13.88-9.48,3.81-19.17,7.13-28.86,10.37-1.75.59-4-.26-6-.45l-9.16,3.11-12.42,3.13c-1.87-.19-3.86-.9-5.57-.48-6.87,1.71-13.6,4-20.5,5.58C608.63,850.07,605.83,849.23,603.18,849Z"/><path class="cls-16" d="M658.76,838.16c2,.19,4.24,1,6,.45,9.69-3.24,19.38-6.56,28.86-10.37,10.68-4.28,21.58-8.32,31.59-13.88,12.69-7.05,24.69-15.37,36.76-23.47,5-3.37,9.46-7.62,14.16-11.46l20.18-9.2,2.87,0,.14.11c-.68,1.05-1.14,2.43-2.09,3.09Q769.52,792.83,741.67,812c-2.93,2-6.63,2.82-9.71,4.64-6.33,3.72-12.44,7.79-18.71,11.61-4.56,2.79-9,5.93-13.88,8-25.27,10.69-51.08,20.14-77.78,26.34-27.13,6.3-54.31,13.11-82.73,11.21-10.16-.68-20.46,1.19-30.69,1.17-7.14,0-14.27-1.22-21.4-1.91-3-.3-6.11-1-9.15-.92-33.3.94-65.16-6.76-96.81-15.82-8.6-2.47-17.35-4.57-25.69-7.75-4.58-1.75-8.44-5.4-12.63-8.2,14.1,3.72,28,8.34,42.32,11,22.37,4.1,44.9,7.75,67.52,9.91,18.83,1.8,37.89,1.18,56.84,1.63l7.81.1c2.71.45,5.42,1.31,8.12,1.3,19.07,0,38.1.45,56.93-4.28,14.27-3.58,29-5.34,43.45-8.2,4.67-.93,9.61-2.08,11.7-7.4l12.42-3.13C653.74,843.43,656.7,842.13,658.76,838.16Z"/><path class="cls-14" d="M933.46,578.73c-8.62,13.77-17,27.74-26,41.26-8.45,12.68-17.62,24.89-26.48,37.31l-1.61,1.87,0,0-1.57,1.58,0,0c-5.1,5.36-10.14,10.78-15.35,16-1.08,1.1-2.77,1.61-4.18,2.39.58-1.55.83-3.34,1.78-4.6,16.25-21.56,30.68-44.28,41.91-68.82,9.24-20.2,17.69-40.77,26-61.38a331.27,331.27,0,0,0,19.81-73.21c2.39-15.38,3.74-30.94,5-46.46.27-3.22.32-4.91,3.87-4.6.35,2.52,1.11,5.05,1,7.54-.75,16-1.81,32.06-2.54,48.09-1.15,25.12-6.39,49.47-12.94,73.63-1.51,5.6-1.74,11.54-2.56,17.32l0,0-1.45,1.67c-.55,1.09-1.1,2.17-1.66,3.25q-1.46,2.88-2.93,5.76l-.17.31c-.14.1-.42.25-.41.3A5.28,5.28,0,0,0,933.46,578.73Z"/><path class="cls-7" d="M305.44,494c.64,1.55,1.27,3.11,1.91,4.66,5.79,18.44,13.45,36.05,24.68,51.84,10.13,14.23,20.34,28.47,31.53,41.86,5.68,6.79,13.61,11.7,20.52,17.47l3.23,4.26c10.49,7.27,20.68,15,31.58,21.64a205.9,205.9,0,0,0,27.46,13.45,231.17,231.17,0,0,0,60.09,16c10.59,1.34,21.26,2.94,31.89,3,28.19.07,55.7-5.14,82.37-14,27.76-9.16,52.59-24,75.19-42.42,3.3-2.7,5.62-6.6,8.39-10a5.49,5.49,0,0,0,.84-.83l1.88-2,10.16-7.86c-3.57,5.41-6.42,11.52-10.88,16-7.44,7.53-15.91,14.05-23.95,21-.64,1-1.28,2.08-1.93,3.12h0c-8.09,4.19-16.13,8.48-24.28,12.55-18.8,9.36-38,17.7-58.82,21.48-20.4,5.74-41.3,7.74-62.36,7.46-9.94-.14-19.88-1.66-29.77-2.93-23.06-3-45.34-9-66.3-19.06-13.38-6.43-26.22-14-39.3-21h0l-1.45-1.51c-5.64-4.28-11.26-8.6-16.93-12.83C363,601.92,348.33,585,335,566.77a355.76,355.76,0,0,1-19.76-29.94c-3.55-6.06-6-12.89-8.16-19.61-4.48-13.81-8.45-27.78-12.63-41.68,5.54,2.77,3.42,8.94,5.76,13.19C301.57,491.16,301.62,494.24,305.44,494Z"/><path class="cls-7" d="M939.7,566.63c.82-5.78,1-11.72,2.56-17.32,6.55-24.16,11.79-48.51,12.94-73.63.73-16,1.79-32.05,2.54-48.09.11-2.49-.65-5-1-7.54l30.47-.15q-2.07,10.91-4.13,21.79c-1.93,20.48-8.16,39.93-15,59.09-6.44,18-14.07,35.54-21.41,53.19C944.8,558.39,942,562.42,939.7,566.63Z"/><path class="cls-7" d="M800.85,273.42c-8.63-13.5-16.92-27.24-26-40.4-5.6-8.09-12.49-15.28-18.8-22.87v0l-1.55-3.11v0l-1.56-1.56h0c-.51-.55-1-1.11-1.54-1.66-1.38-2.09-2.4-4.59-4.21-6.21-18.56-16.6-37.92-32.21-60.25-43.5-20.23-10.23-41.53-17.82-64-20.95-16.68-2.32-33.56-4.53-50.34-4.45-15.49.07-31,3-46.43,5.12-20.77,2.91-39.89,11.2-58.48,20.25-12.58,6.13-24.06,14.49-36.06,21.81a35.35,35.35,0,0,1-4.16,1.86c1.36-1.73,2.39-4,4.14-5.11,10.93-7.15,21.46-15.22,33.17-20.82,24.27-11.62,49.58-20.69,76.64-23.44,13-1.31,26-3,39-2.82a244.87,244.87,0,0,1,65.06,9.72c34.76,10.16,66.25,26.47,93.51,50,23.57,20.35,44.45,43.4,58.74,71.56C800.26,262,806.5,266.65,800.85,273.42Z"/><path class="cls-9" d="M717.16,591.23,707,599.09q6.42-11.28,12.83-22.56C731.36,556.13,739,534.3,744,511.45a270.75,270.75,0,0,0,6.08-64.64,108.84,108.84,0,0,0-2.12-21.28c-1.27-5.62,1.23-5.57,5-5.25,1,14.5,3.24,29,2.74,43.48-1.16,33.44-7.6,66-22.12,96.42C728.58,570.75,722.67,580.9,717.16,591.23Z"/><path class="cls-7" d="M736.84,268.73c5.38-1.41,8.32,2.51,10.67,5.86,5.24,7.46,10,15.31,14.54,23.21a219.22,219.22,0,0,1,26.13,73.3c2.67,15.54,3.36,31.41,4.93,47.13l-6.42.11c-.32-24.65-3.49-48.87-11-72.44a7.42,7.42,0,0,0-.14-2.28c-6-14.68-10.16-30.08-19.32-43.42C749.31,290,743.29,279.24,736.84,268.73Z"/><path class="cls-7" d="M259.29,420.15c-1.06,13.46-3.31,27-3,40.38.93,34.25,7.66,67.4,22.22,98.7,2,4.37,3.42,9,5.11,13.57-2.3-1.82-5.6-3.15-6.75-5.52-12.39-25.59-20.81-52.59-23.38-80.83-1.75-19.26-.5-38.8-.25-58.22C253.34,424.69,253.57,420.05,259.29,420.15Z"/><path class="cls-17" d="M294.66,822.71l-44.28-13c-2.7-.79-5.4-1.61-8.1-2.42l-.12-.12c-.45-.46-.91-.91-1.37-1.36l-7.82-3.2c-1.33-1.73-2.41-3.74-4-5.15-8-7-16.29-13.8-24.21-20.94-2.35-2.12-3.84-5.18-5.73-7.81,5,3.13,10,6.18,14.87,9.42,23.19,15.32,47.29,29,72.81,40.09A87.89,87.89,0,0,1,294.66,822.71Z"/><path class="cls-11" d="M331.74,353.87c-.55,10.15-1.61,20.3-1.52,30.44a187.08,187.08,0,0,0,2.39,26.49c.78,5.13-.75,6.66-5.49,6-.93-13.43-2-26.86-2.72-40.3-.45-8.9.55-17.61,4.32-26,1.26-2.8.59-6.43,1-9.65.44-3.47,1.13-6.92,1.71-10.37l2.88,3.09.69,1.5-1.61,4.62-1.62,10.53C331.76,351.47,331.75,352.67,331.74,353.87Z"/><path class="cls-9" d="M305.44,494c-3.82.21-3.87-2.87-5.2-5.3-2.34-4.25-.22-10.42-5.76-13.19-2-9.48-4.51-18.88-5.82-28.46-1.28-9.36-1.32-18.89-1.9-28.35l6.58-.16a263.8,263.8,0,0,0,6.44,54.29C301.4,480,303.54,487,305.44,494Z"/><path class="cls-13" d="M369.58,241.1l7.21-5.93c-1.15,2.46-2.19,5-3.46,7.37-3.54,6.63-7.18,13.21-10.78,19.81L361,264.2l0,0c-.52,1.09-1.05,2.18-1.58,3.27a5.67,5.67,0,0,0-.18,1c-1,2.69-2,5.38-3,8.06l0-.05-1.56,3.15,0-.05-14.1,41.74-3.71.11A166.34,166.34,0,0,1,350.76,277c3.6-7.79,6.86-15.74,10.28-23.61h0l1.21-1.76,0-.06,2-2.83Q366.92,244.91,369.58,241.1Z"/><path class="cls-18" d="M361,253.38c-3.42,7.87-6.68,15.82-10.28,23.61A166.34,166.34,0,0,0,337,321.4q-.58,3.6-1.15,7.21-.76,2.5-1.54,5l-2.88-3.09a109.17,109.17,0,0,1,9.65-38.42c3.11-6.67,4.54-14.14,7.87-20.67S357,259.37,361,253.38Z"/><path class="cls-7" d="M989,418.23a6.25,6.25,0,0,1-1.35.43c.49-8.68,1-17.36,1.45-26.05.5-9.89.95-19.78,1.42-29.68l.06-.05c.44,8.83,1.45,17.68,1.17,26.5C991.42,399,989.94,408.61,989,418.23Z"/><path class="cls-7" d="M1024.3,378.4q-2.1,11.57-4.19,23.12C1020.1,393.56,1019.93,385.57,1024.3,378.4Z"/><path class="cls-7" d="M990.49,361.36c-.5-6.63-1-13.25-1.46-19.88a7.33,7.33,0,0,1,.81-2.46c.21.44.6.88.61,1.33.06,7,.07,14,.1,21.06Z"/><path class="cls-7" d="M846.91,691.47l6-6.12.33.3-6,6Z"/><path class="cls-7" d="M398.11,202.6c0,3.15-1,5.58-4.54,6.07Q395.84,205.63,398.11,202.6Z"/><path class="cls-7" d="M807,287.3c-.52-1.55-1-3.09-1.57-4.64C808.28,283.43,809,284.92,807,287.3Z"/><path class="cls-7" d="M418.25,184.26,415,188.61Z"/><path class="cls-7" d="M803.93,279.59l-1.57-3.11Z"/><path class="cls-7" d="M1019.58,404.68l-.9,5Z"/><path class="cls-17" d="M298.89,824.32l-4.21-1.6Z"/><path class="cls-7" d="M412,191.63l-3,1.61Z"/><path class="cls-18" d="M364.26,248.73l-2,2.83Z"/><path class="cls-7" d="M847.18,691.69l-1,1.33.69-1.55Z"/><path class="cls-14" d="M680.4,631.39c.65-1,1.29-2.08,1.93-3.12C681.69,629.31,681.05,630.35,680.4,631.39Z"/><path class="cls-7" d="M422.79,182.38,419.7,184Z"/><path class="cls-7" d="M401.19,200.9l-3,1.6Z"/><path class="cls-18" d="M362.25,251.62,361,253.38Z"/><path class="cls-7" d="M391.88,210.3l-1.42,1.48Z"/><path class="cls-7" d="M393.42,208.75,392,210.16Z"/><path class="cls-14" d="M854.57,683.69l.43-.52.34.33-.49.46Z"/><path class="cls-14" d="M852.88,685.35l1.69-1.66.28.27-1.64,1.69Z"/><path class="cls-7" d="M990.55,361.41q0,.73,0,1.47l-.06.05a5.69,5.69,0,0,1-.39-1.09c0-.14.25-.32.39-.48Z"/><path class="cls-7" d="M408.85,193.33l-1.49,1.42Z"/><path class="cls-7" d="M405.81,195l-1.4,1.33Z"/><path class="cls-7" d="M425.87,178.05l-1.41,1.33Z"/><path class="cls-11" d="M944.35,94.17l1.78.17L969,126.76c-5.79,1-11.34,1.59-16.24-3.13-1.33-1.28-4.3-1-6.54-1.15-1.23-.1-2.94,1-3.69.46-10.51-7.3-23.75-5.6-35-10.8-6.29-2.91-13.6-3.61-20.46-5.3-8.47-7.07-19.15-7.18-29.2-9.35-3.66-.79-7.23-2-10.84-3,.27-4.78,2.86-5.51,7.26-5.08,10.32,1,20.69,1.55,31,1.94,2.59.1,5.23-1.1,7.84-1.71l1.78.27c8.79,4.3,17.66,7.61,27.8,4.81,2.51-.7,5.52.74,8.29.64C935.51,95.19,939.93,94.58,944.35,94.17Z"/><path class="cls-17" d="M939.7,566.63c2.34-4.21,5.1-8.24,6.94-12.66,7.34-17.65,15-35.21,21.41-53.19,6.87-19.16,13.1-38.61,15-59.09.41,4.54,1.66,9.18,1.08,13.59-2.44,18.52-4.44,37.2-8.49,55.4A459.09,459.09,0,0,1,959,568.21a191.38,191.38,0,0,1-19.14,39c-8.61,13.23-15,27.84-23,41.51-4.35,7.46-9.74,14.34-15,21.25-7.74,10.22-15.74,20.24-23.66,30.31-5.23,6.64-10.71,13.09-15.66,19.93-1.69,2.33-2.1,5.6-3.09,8.45l-.13,0-1.6,1.45c-8.67,7.79-15.48,17.07-21.49,27l-2.18.94L830,759.43c-6.16,1.72-11.13,4.9-13.64,11.1l-.06-.28-1.64,1.65.25.05-5.38-1.71a28,28,0,0,0,3-3.88,47.39,47.39,0,0,0,2.16-5.37l.35-.38-.39.34-12.24,6.31-.08-.11a58.54,58.54,0,0,1,4.51-6.7c4-4.5,8.19-8.78,12.31-13.15l5.06-4.93c9.14-2.93,14.36-9.8,18.18-18.08,2.55-2.88,5-5.87,7.65-8.6,26.17-26.42,47.3-56.51,65.63-88.76,9.55-16.79,17.84-34,23-52.68a57.54,57.54,0,0,0,1.05-6l-.05-1.61Z"/><path class="cls-8" d="M857.75,730.1l1.6-1.45Z"/><path class="cls-1" d="M186.65,784.1l3.28,1.57Z"/><path class="cls-15" d="M240.79,805.84c.46.45.92.9,1.37,1.36C241.71,806.74,241.25,806.29,240.79,805.84Z"/><path class="cls-6" d="M895,89.88l-1.78-.27c-3.12-1-6.19-2.52-9.36-2.77-25.54-2-51.29-1.33-76.64-6-2.49-.46-5.12-.15-7.68-.17q-11.78-.09-23.54-.14c-4.6-3-8.92-6.53-13.85-8.79-10.63-4.88-21.4-9.56-32.43-13.46-15.9-5.62-31.92-11.06-48.19-15.49C661.88,37.45,642,32.64,622.06,28.73c-13.69-2.68-27.34-7.06-41.77-4.26-4.65.9-9.64.18-14.47.09-5.34-.1-10.7-.69-16-.44-13,.62-26.06,1.39-39,2.53-9.11.8-18.48.54-26.86,5.38a22.92,22.92,0,0,1-6.61,2c-12.78,2.74-25.75,4.8-38.35,8.22-17.54,4.77-35.4,9.19-49.56,21.83-.71.63-1.91.67-2.83,1.11-14,6.74-28.45,12.84-42,20.46-10.63,6-20.19,13.87-30.27,20.83-3.14,2.17-6.58,3.93-9.67,6.17-15.08,10.92-26,26.28-40.51,37.86a16.73,16.73,0,0,0-2.56,2.87c-3.14,4-6.09,8.2-9.4,12.08-4.95,5.81-10.74,11-15.12,17.21-8.35,11.83-16.24,24-23.79,36.37-9.55,15.63-19.19,31.06-34.44,42-3.23,2.32-6.05,5.21-9.05,7.83l-9.19,4.71c.13-1.27-.1-2.73.45-3.79,6.94-13.56,8.6-29.32,18.72-41.71,6.08-7.45,9.42-17.07,15-25,11.83-17,23.88-33.94,36.64-50.27,8.17-10.44,17.93-19.62,26.69-29.63,4.51-5.15,8.38-10.86,12.54-16.32,3.43-2.89,6.68-6,10.32-8.61,15.82-11.33,31.64-22.68,47.69-33.68,8.2-5.62,16.39-11.75,25.49-15.4,11.07-4.44,22.29-8.4,33.2-13.37,11.38-5.18,23.38-9.08,35.3-13C441.23,16.71,459.75,9.4,479,5.7,498.42,1.94,518.6,1.42,538.51.44c16-.79,32.18-.33,48.27-.08C595.65.5,604.56,1,613.37,2c11.1,1.28,22,3.66,33.28,4.4C668.4,7.84,689.58,14,709.47,23.13c20.22,9.28,39.9,19.73,59.83,29.66,1.13.57,2.35,1,3.52,1.46,9.61,4,19.1,8.29,28.86,11.85,8.85,3.22,18,5.62,27,8.38,1,1,1.94,2.49,3.14,2.77,6.55,1.55,13.12,3.31,19.79,4,13.16,1.43,26.38,2.26,39.58,3.26,4.25.32,8.51.41,12.76.6-.5,1-1,2-1.49,3Z"/><path class="cls-7" d="M169.73,268.9c3-2.62,5.82-5.51,9.05-7.83,15.25-10.93,24.89-26.36,34.44-42,7.55-12.36,15.44-24.54,23.79-36.37,4.38-6.21,10.17-11.4,15.12-17.21,3.31-3.88,6.26-8.06,9.4-12.08a16.73,16.73,0,0,1,2.56-2.87c14.48-11.58,25.43-26.94,40.51-37.86,3.09-2.24,6.53-4,9.67-6.17,10.08-7,19.64-14.85,30.27-20.83,13.55-7.62,28-13.72,42-20.46.92-.44,2.12-.48,2.83-1.11,14.16-12.64,32-17.06,49.56-21.83,12.6-3.42,25.57-5.48,38.35-8.22a22.92,22.92,0,0,0,6.61-2c8.38-4.84,17.75-4.58,26.86-5.38,13-1.14,26-1.91,39-2.53,5.32-.25,10.68.34,16,.44,4.83.09,9.82.81,14.47-.09,14.43-2.8,28.08,1.58,41.77,4.26,20,3.91,39.82,8.72,59.46,14.08,16.27,4.43,32.29,9.87,48.19,15.49,11,3.9,21.8,8.58,32.43,13.46,4.93,2.26,9.25,5.82,13.85,8.79-12.24.57-23-4.21-33.77-9.12-3.16-1.45-6.67-2.11-10-3.23-3.14-1.06-6.47-1.82-9.29-3.45C708,56.12,691,53.92,674.86,49.27c-.93-.27-2.53-.56-2.91-.1-4,5-8.39,1.41-12.62.62C646.56,47.4,633.87,44.3,621,42.7A529.08,529.08,0,0,0,533.73,39c-5,.21-9.93,2.16-14.93,3-30.57,5.19-60.88,10.81-89.95,22.56-26.71,10.79-52.36,23.09-76.75,38.49-12.85,8.11-24.52,17.48-36.71,26.32-17.15,12.44-30.5,28.64-46.22,42.4-3.79,3.31-6.73,7.64-9.87,11.65-8,10.19-16.39,20.1-23.7,30.77A655.31,655.31,0,0,1,191,272.36c-11.49,13.3-25.39,24.53-38.35,36.54a165.9,165.9,0,0,1-14.73,12.29c-3.09,2.26-6.75,3.12-8.6-2a2.07,2.07,0,0,0-.2-1.07l.32-.42c8.59-2.41,10.31-11.78,16.68-16.44q1.75-3.18,3.53-6.34l1.63-1.46C162.46,289.08,167.23,279.84,169.73,268.9Z"/><path class="cls-17" d="M123.47,324.39l2.73-4.7Z"/><path class="cls-17" d="M129.11,318.16a2.07,2.07,0,0,1,.2,1.07,1.74,1.74,0,0,1-1.11-.32A6,6,0,0,1,129.11,318.16Z"/><path class="cls-17" d="M122,326.84a3.43,3.43,0,0,1,1-.9A1.11,1.11,0,0,1,122,326.84Z"/><path class="cls-9" d="M874.7,77.55l56.12,1.68,4.08,1.59L935,85a69.94,69.94,0,0,1-7.2.62c-8-.07-15.91-.3-23.86-.47-4.25-.19-8.51-.28-12.76-.6-13.2-1-26.42-1.83-39.58-3.26-6.67-.72-13.24-2.48-19.79-4-1.2-.28-2.1-1.81-3.14-2.77l22.56.63,7,.2,2.58.68h4.7Z"/><path class="cls-9" d="M895,89.88l7.5-1.79c12.67,3,25.54,1.73,38.36,1.83l3.5,4.25c-4.42.41-8.84,1-13.27,1.16-2.77.1-5.78-1.34-8.29-.64C912.65,97.49,903.78,94.18,895,89.88Z"/><path class="cls-7" d="M940.85,89.92c-12.82-.1-25.69,1.2-38.36-1.83.49-1,1-2,1.49-3,7.95.17,15.9.4,23.86.47A69.94,69.94,0,0,0,935,85l5.94,3.5A5.73,5.73,0,0,1,940.85,89.92Z"/><path class="cls-15" d="M118.7,311.93l8-13.62,8.11-7.85,7.15-.08,0,0q-1.61,5.4-3.22,10.8L128,312Z"/><path class="cls-17" d="M128,312l10.71-10.8,7.37.09c-6.37,4.66-8.09,14-16.68,16.44Q128.74,314.88,128,312Z"/><path class="cls-15" d="M816.36,770.53c2.51-6.2,7.48-9.38,13.64-11.1l.18,2.28-7.75,5.88L821,768.7l-.16.23-1.33,1.34Z"/><path class="cls-12" d="M777.5,799.46l-4.63,3"/><path class="cls-10" d="M830.18,761.71l-.18-2.28,4.08-1.41Z"/><path class="cls-12" d="M405.41,888.54l3.49-1Z"/><path class="cls-15" d="M814.66,771.9l1.64-1.65Z"/><path class="cls-12" d="M802.36,783l-1.47,1.19"/><path class="cls-12" d="M797.77,786.16l-1.46,1.1"/><path class="cls-2" d="M663.05,601.89c5.2-11.41,10.94-22.61,15.47-34.28,9-23,11.94-47.09,11.47-71.69a217.81,217.81,0,0,0-13.5-70.63c-1.54-4.25-.43-5.16,3.82-5.27,13.8-.36,27.59-1.12,41.39-1.73,1.17,14.53,3.14,29,3.37,43.6.71,43.61-12.43,82.88-39.51,117.12C679,587.35,670.6,594.3,663.05,601.89Z"/><path class="cls-3" d="M736.84,268.73c6.45,10.51,12.47,21.31,19.44,31.47,9.16,13.34,13.36,28.74,19.32,43.42a7.42,7.42,0,0,1,.14,2.28c-2.73.69-5.51,1.22-8.17,2.11-8.26,2.74-6.78,3.46-7.61,12.11-1.69,17.4,5.86,33.83,3.78,51.05-.14,1.17-.5,2.32-.75,3.48a24.9,24.9,0,0,1-.84-3.54c-3.37-38.95-15.78-75-34.94-108.88-4.28-7.57-8.91-14.94-13.51-22.31-.9-1.44-2.45-2.47-3.7-3.69-.47-1.43-.57-3.16-1.46-4.26q-11.14-13.86-22.61-27.48c-.85-1-2.64-1.24-4-1.82l-.07-.15c-1.91-5.7.59-8.43,6.1-9.41a17.69,17.69,0,0,0,5-2c.49-.26.68-1.24.8-1.93,0-.18-.67-.66-1.09-.73-2.88-.5-13.41,5.32-15.25,8.39l-2-1.34c-1.11-1.94-1.77-4.48-3.42-5.69-4.38-3.24-4.43-7.49-3.89-12.1l.24-9.23,6.52,1.7a1.07,1.07,0,0,1,.83.2l1.65,1.21c7.45,5.68,15.39,10.84,22.26,17.17,10.81,10,20.89,20.72,31.28,31.14l1.86.56Q734.79,264.6,736.84,268.73Z"/><path class="cls-4" d="M681.94,242.67c1.35.58,3.14.81,4,1.82q11.48,13.59,22.61,27.48c.89,1.1,1,2.83,1.46,4.26-2.38,1.64-4.55,3.86-7.17,4.8-11,3.93-22.17,7.36-33.19,11.23-3,1.06-5.74,3-8.59,4.56l-14.77-16.59-.11-.16-1.43-1.54-.07-.09-1.5-1.53-.07-.07-1.46-1.47-.07-.07-1.46-1.47-.07-.08-1.48-1.49-.08-.08L637,270.72l-.07-.08-1-2.05q20-6.73,40-13.47C686.18,251.68,686.19,251.7,681.94,242.67Z"/><path class="cls-3" d="M364.1,551.16c-1.54-8.92-3.1-17.83-4.58-26.76-.09-.55.5-1.22.77-1.83a10,10,0,0,1,.71,2c1.07,8.84,2.09,17.68,3.12,26.52Z"/><path class="cls-3" d="M364.12,551.14q1.56,6.95,3.1,13.88l-.05,0q-1.53-7-3.07-13.9Z"/><path class="cls-3" d="M382.59,603.64Q380.3,599,378,594.36l0,0,4.64,9.25Z"/><path class="cls-3" d="M387.31,614.12l-3.23-4.26c0-1.06.05-2.11.07-3.16l0,0Z"/><path class="cls-3" d="M370.31,575.81l3.09,7.72-.06,0q-1.53-3.86-3.08-7.73Z"/><path class="cls-3" d="M370.26,575.84l-1.53-6.17,0,0,1.55,6.17Z"/><path class="cls-3" d="M367.22,565l1.54,4.62,0,0-1.56-4.61Z"/><path class="cls-3" d="M373.4,583.53c.51,1.54,1,3.09,1.54,4.63l-.05,0c-.52-1.54-1-3.08-1.55-4.63Z"/><path class="cls-3" d="M382.66,603.58l1.53,3.09,0,0-1.56-3.06Z"/><path class="cls-3" d="M376.49,591.23l1.53,3.1,0,0c-.52-1-1-2.06-1.55-3.08Z"/><path class="cls-3" d="M374.94,588.16l1.55,3.07-.06,0-1.54-3.08Z"/><path class="cls-9" d="M705.12,601.08a5.49,5.49,0,0,1-.84.83A.8.8,0,0,1,705.12,601.08Z"/><path class="cls-2" d="M661.61,603.66l1.66-1.91Z"/><path class="cls-9" d="M399.59,629.84c13.08,7,25.92,14.61,39.3,21,21,10.06,43.24,16.11,66.3,19.06,9.89,1.27,19.83,2.79,29.77,2.93,21.06.28,42-1.72,62.36-7.46-11,5.91-21.79,12.32-33.1,17.6a131.45,131.45,0,0,1-55.85,12.44,93.79,93.79,0,0,1-38.66-8.93c-23.43-10.71-43.5-26-61.35-44.32C404.87,638.63,402.48,634,399.59,629.84Z"/><path class="cls-9" d="M398.14,628.33l1.45,1.51Z"/><path class="cls-14" d="M637.18,844.4c-2.09,5.32-7,6.47-11.7,7.4C611,854.66,596.3,856.42,582,860c-18.83,4.73-37.86,4.25-56.93,4.28-2.7,0-5.41-.85-8.12-1.3,6.22-1,12.43-2.05,18.66-3q26.82-4,53.67-8l4.91-1.4,2.79-.13,1.86-1.4,4.31-.07c2.65.2,5.45,1,7.93.47,6.9-1.58,13.63-3.87,20.5-5.58C633.32,843.5,635.31,844.21,637.18,844.4Z"/><path class="cls-6" d="M769.37,769.82c-.76-.62-1.69-1.29-1.66-1.34a20,20,0,0,1,2.53-3.29c.14-.14,1.24.7,1.89,1.09Z"/><path class="cls-6" d="M788.31,753.58a17.73,17.73,0,0,1-2.56,1.89c-.14.06-1.18-1-1.08-1.31a2.55,2.55,0,0,1,1.4-1.48C786.47,752.53,787.14,753.08,788.31,753.58Z"/><path class="cls-6" d="M760.6,773.3l3.29-2.12.38.6-3.62,1.56Z"/><path class="cls-9" d="M594.22,850.63l-4.91,1.4Z"/><polygon class="cls-6" points="777.56 760.95 778.02 760.55 777.63 761.01 777.56 760.95"/><path class="cls-6" d="M776,762.48l1.56-1.53.07.06-1.54,1.56Z"/><polygon class="cls-6" points="776.09 762.57 775.63 762.94 776 762.48 776.09 762.57"/><polygon class="cls-6" points="760.65 773.34 760.22 773.73 760.6 773.3 760.65 773.34"/><polygon class="cls-6" points="755.97 776.38 756.42 776 756.03 776.44 755.97 776.38"/><polygon class="cls-6" points="756.03 776.44 755.59 776.82 755.97 776.38 756.03 776.44"/><path class="cls-9" d="M598.87,849.1,597,850.5Z"/><path class="cls-6" d="M600.82,176.34c-6-1.07-12-2.53-18-3.14-17.16-1.74-34.4-4.75-51.52-4.23-19.88.6-39.57,4.26-59,9.57C452.25,184,434,192.73,416,202.7c-6.08,3.39-11.91,7.21-17.86,10.84,3.45-3.88,6.25-8.77,10.46-11.46,13.5-8.64,28-15.12,43.12-20.9,14.14-5.41,28.33-10.05,43.11-12.62,21.18-3.69,42.41-5.57,64.13-3.41,18,1.79,35.65,4.29,52.73,9.77,13.39,4.29,26.41,9.87,39.27,15.59,3.65,1.62,6.21,5.71,9.27,8.67-2.25-.9-4.54-1.73-6.76-2.7-7-3.11-14-6.27-21.06-9.4l.13.08-6.15-1.95.22,0Z"/><path class="cls-4" d="M632.45,187.08c7,3.13,14,6.29,21.06,9.4,2.22,1,4.51,1.8,6.76,2.7l14.57,11-6.52-1.7a45.8,45.8,0,0,0-5-3.25c-5.55-2.67-11.17-5.19-16.76-7.76Z"/><path class="cls-13" d="M381.22,230.21l-4.16,4.66Z"/><path class="cls-6" d="M396.79,214.94l-4.69,3.21Z"/><path class="cls-7" d="M732.72,260.46l-1.86-.56c.23-1.77.45-3.53.68-5.3C731.93,256.56,732.33,258.51,732.72,260.46Z"/><path class="cls-14" d="M754.47,207.07l1.55,3.11Z"/><path class="cls-6" d="M398.32,213.28l-1.79,1.78Z"/><path class="cls-4" d="M677.32,211.59l-1.65-1.21Z"/><path class="cls-14" d="M751.39,203.88c.52.55,1,1.11,1.54,1.66C752.42,205,751.91,204.43,751.39,203.88Z"/><path class="cls-14" d="M752.92,205.53l1.56,1.56Z"/><path class="cls-5" d="M433.58,406.14c0,1.79-.05,3.6.09,5.38.31,3.88-1.25,5.36-5.28,5.5-9.42.34-18.83,1.18-28.24,1.82l4.35-20.24q2.78-7.86,5.56-15.71c5.22-.91,10.61-1.3,15.62-2.88s8.38-1.51,9.35,4.5l-.6,6.16C430.19,395.61,431.55,400.86,433.58,406.14Z"/><path class="cls-1" d="M331.78,350.27l1.62-10.53c4.22-.11,8.74.75,12.6-.49,26.85-8.64,53.55-17.79,80.36-26.57,3.81-1.25,8-1.4,12-2.06l-11.06,21.7.09-3.16.06-6.46c.38-.88.75-1.76,1.12-2.64l-8.94,2.77.09,0L415,324.38l.09-.05-4.72,1.59.09-.05-4.72,1.59.09,0L401.11,329l.08-.05-4.71,1.59.08-.05-4.71,1.59.08,0-4.71,1.58.09,0-4.72,1.59.09-.05L378,336.72l.08,0-4.71,1.59.08,0-4.71,1.59.08,0-4.71,1.58.08,0-4.71,1.59.09,0-4.72,1.59.09,0L350.2,346l.08,0-4.71,1.58.08,0-4.71,1.59L341,349l-4.71,1.59.08,0Z"/><path class="cls-4" d="M427.38,329.16l-.09,3.16c-3.05,8.09-6.31,16.11-9.09,24.29-2.95,8.68-5.44,17.52-8.14,26.28q-2.78,7.86-5.56,15.71c1.37-7.26,2-14.74,4.25-21.72,4.53-14.12,9.86-28,15-41.9C424.55,332.88,426.16,331.09,427.38,329.16Z"/><path class="cls-4" d="M419.62,322.83l8.94-2.77c-.37.88-.74,1.76-1.12,2.64Z"/><path class="cls-4" d="M331.78,350.27l4.61.3-4.65,3.3Z"/><path class="cls-4" d="M401.11,329l4.71-1.59Z"/><path class="cls-4" d="M415,324.38l4.72-1.59Z"/><path class="cls-4" d="M396.48,330.55l4.71-1.59Z"/><path class="cls-4" d="M391.85,332.09l4.71-1.59Z"/><path class="cls-4" d="M387.22,333.63l4.71-1.58Z"/><path class="cls-4" d="M382.59,335.18l4.72-1.59Z"/><path class="cls-4" d="M350.2,346l4.71-1.58Z"/><path class="cls-4" d="M378,336.72l4.71-1.59Z"/><path class="cls-4" d="M373.34,338.27l4.71-1.59Z"/><path class="cls-4" d="M368.71,339.81l4.71-1.59Z"/><path class="cls-4" d="M364.08,341.35l4.71-1.58Z"/><path class="cls-4" d="M359.45,342.9l4.71-1.59Z"/><path class="cls-4" d="M354.82,344.44l4.72-1.59Z"/><path class="cls-4" d="M345.57,347.52l4.71-1.58Z"/><path class="cls-4" d="M405.73,327.46l4.72-1.59Z"/><path class="cls-4" d="M340.94,349.07l4.71-1.59Z"/><path class="cls-4" d="M336.31,350.61,341,349Z"/><path class="cls-4" d="M410.36,325.92l4.72-1.59Z"/><path class="cls-17" d="M802.37,767.26l-1.59,1.6,0-.17,1.55-1.54Z"/><path class="cls-16" d="M800.78,768.86l-1.47,1.45-.14-.11q.06-.69.06-1.38c.5-.06,1-.1,1.51-.13Z"/><path class="cls-11" d="M800.74,768.69c-.51,0-1,.07-1.51.13l-2.93,1.41-20.18,9.2,21.61-17.6c4.9-4,9.69-8.12,14.77-11.87,1.85-1.37,4.38-1.8,6.61-2.66-4.12,4.37-8.35,8.65-12.31,13.15a58.54,58.54,0,0,0-4.51,6.7Z"/><path class="cls-11" d="M842.35,724.29c-3.82,8.28-9,15.15-18.18,18.08,0-.75-.3-1.87.08-2.21C830.23,734.81,836.3,729.56,842.35,724.29Z"/><path class="cls-14" d="M658.76,838.16c-2.06,4-5,5.27-9.16,3.11Z"/><path class="cls-7" d="M933.64,577.29q1.47-2.88,2.93-5.76Q935.12,574.41,933.64,577.29Z"/><path class="cls-6" d="M879.41,659.17,881,657.3Z"/><path class="cls-6" d="M877.88,660.71l1.57-1.58Z"/><path class="cls-7" d="M933.46,578.73a5.28,5.28,0,0,1-.4-.83s.27-.2.41-.3C933.47,578,933.46,578.35,933.46,578.73Z"/><path class="cls-7" d="M939.68,566.61l.05,1.61a12.54,12.54,0,0,0-1.5.06Z"/><path class="cls-17" d="M796.3,770.23l2.93-1.41q0,.69-.06,1.38Z"/><path class="cls-3" d="M438.35,310.62c-4,.66-8.18.81-12,2.06-26.81,8.78-53.51,17.93-80.36,26.57-3.86,1.24-8.38.38-12.6.49l1.61-4.62c31.89-10.58,63.74-21.25,95.69-31.64,4.53-1.47,9.5-1.54,14.27-2.26-.67,1.5-1.33,3-2,4.51Z"/><path class="cls-19" d="M445,301.22c-4.77.72-9.74.79-14.27,2.26-31.95,10.39-63.8,21.06-95.69,31.64l-.69-1.5q.78-2.5,1.54-5c3-.78,6-1.39,8.88-2.36,31.61-10.66,63.18-21.45,94.84-31.95,3.46-1.15,7.43-.73,11.17-1Z"/><path class="cls-20" d="M354.82,279.55c-1.11,4.7-2.36,9.38-3.3,14.12a62.4,62.4,0,0,0-.58,7.39c2.4-.25,4.93-.07,7.16-.82q55-18.44,110-37.06a101.12,101.12,0,0,1,11.1-3c.53-.12,2.23,2,2.06,2.29-4.91,8-10,15.83-15,23.71-2.84-3.69-6-5-9.73-1.19-3,.68-6,1.1-8.91,2.07-32.14,10.8-64.23,21.74-96.39,32.49-3.31,1.1-6.94,1.21-10.43,1.77Z"/><path class="cls-12" d="M340.72,321.29c3.49-.56,7.12-.67,10.43-1.77,32.16-10.75,64.25-21.69,96.39-32.49,2.88-1,5.94-1.39,8.91-2.07l-5.7,8.31c-3.74.3-7.71-.12-11.17,1-31.66,10.5-63.23,21.29-94.84,31.95-2.9,1-5.92,1.58-8.88,2.36q.57-3.62,1.15-7.21Z"/><path class="cls-20" d="M359.3,268.44c-1,2.69-2,5.38-3,8.06C357.31,273.82,358.31,271.13,359.3,268.44Z"/><path class="cls-20" d="M361.06,264.17c-.52,1.09-1.05,2.18-1.58,3.27C360,266.35,360.54,265.26,361.06,264.17Z"/><path class="cls-20" d="M356.35,276.45l-1.56,3.15Z"/><path class="cls-20" d="M362.55,262.35,361,264.2Z"/><polygon class="cls-15" points="814.62 760.95 815 760.61 814.65 760.99 814.62 760.95"/><path class="cls-9" d="M151.27,293.5l9.27-19.89,9.19-4.71C167.23,279.84,162.46,289.08,151.27,293.5Z"/><path class="cls-16" d="M152.62,273.09c-.62,2.68-1.25,5.35-1.84,8-1,4.55-4.51,8.91-1.14,13.83q-1.77,3.17-3.53,6.34l-7.37-.09q1.6-5.4,3.22-10.8l.37-.4-.4.37-7.15.08,2.67-3.25,9.16-10.7Z"/><path class="cls-7" d="M860.87,76l-2.58-.68Z"/><path class="cls-21" d="M438.35,310.62l4.62-4.89,13.82-1.52-.18,4.71,0-.06q-1.56,3.88-3.13,7.76l.05-.06q-1.57,4.67-3.13,9.33l0-.07c-.53,1.56-1.06,3.13-1.6,4.69l0-.08q-1.53,4.68-3.08,9.37l.05-.1-2,6.26c-2.37,11.19-4.72,22.4-7.15,33.58a42.9,42.9,0,0,1-1.71,5c-1-6-4.31-6.09-9.35-4.5s-10.4,2-15.62,2.88c2.7-8.76,5.19-17.6,8.14-26.28,2.78-8.18,6-16.2,9.09-24.29Z"/><path class="cls-2" d="M681.94,242.67c4.25,9,4.24,9-6,12.45q-20,6.7-40,13.47L622.13,257c1.6-1.65,2.9-4.13,4.83-4.82C643,246.44,659.23,241,675.39,235.5l2,1.34c1.49,1.89,3,3.79,4.48,5.68Z"/><path class="cls-22" d="M675.39,235.5C659.23,241,643,246.44,627,252.19c-1.93.69-3.23,3.17-4.83,4.82l-15.82-12.87c2.57-1.09,5.08-2.36,7.72-3.25,14.07-4.75,28.19-9.34,42.22-14.19,1.94-.67,5.18-2.93,5-3.64-2.32-8,3.67-4.82,6.85-5.35-.54,4.61-.49,8.86,3.89,12.1C673.62,231,674.28,233.56,675.39,235.5Z"/><path class="cls-20" d="M668.08,217.71c-3.18.53-9.17-2.69-6.85,5.35.2.71-3,3-5,3.64-14,4.85-28.15,9.44-42.22,14.19-2.64.89-5.15,2.16-7.72,3.25-5.65-4.54-5.75-4.84.69-7.08,14.28-5,28.68-9.61,43-14.42,8.47-2.84,8.48-3,1.84-9.41a8.28,8.28,0,0,0-1.66-1.59c-6.52-3.38-7.44-8.16-3.67-14.17,5.59,2.57,11.21,5.09,16.76,7.76a45.8,45.8,0,0,1,5,3.25Z"/><path class="cls-13" d="M456.79,304.21,443,305.73c.67-1.5,1.33-3,2-4.51l5.78-8,5.7-8.31c3.76-3.83,6.89-2.5,9.73,1.19a6.36,6.36,0,0,0-.2.78c-.52,1.16-1,2.33-1.57,3.49v0l-1.51,3.12h0l-4.65,10.79h0C457.78,304.27,457.29,304.23,456.79,304.21Z"/><path class="cls-4" d="M600.82,176.34l25.83,8.92Z"/><path class="cls-21" d="M433.58,406.14c-2-5.28-3.39-10.53.85-15.47Z"/><path class="cls-20" d="M458.26,304.31l4.65-10.79Z"/><path class="cls-20" d="M445.82,339.8q1.55-4.68,3.08-9.37Q447.37,335.11,445.82,339.8Z"/><path class="cls-20" d="M450.43,325.89q1.56-4.67,3.13-9.33Q452,321.23,450.43,325.89Z"/><path class="cls-20" d="M453.51,316.62q1.58-3.87,3.13-7.76Q455.08,312.75,453.51,316.62Z"/><path class="cls-4" d="M626.43,185.21l6.15,1.95Z"/><path class="cls-20" d="M443.89,346l2-6.26Z"/><path class="cls-20" d="M456.79,304.21c.5,0,1,.06,1.48.11-.55,1.53-1.11,3.06-1.66,4.6Z"/><path class="cls-20" d="M448.86,330.51c.54-1.56,1.07-3.13,1.6-4.69C449.93,327.38,449.4,329,448.86,330.51Z"/><path class="cls-20" d="M462.91,293.52l1.51-3.12Z"/><path class="cls-20" d="M464.41,290.42c.53-1.16,1-2.33,1.57-3.49C465.46,288.09,464.94,289.26,464.41,290.42Z"/><path class="cls-2" d="M640,273.75l.07.08Z"/><path class="cls-2" d="M646.17,280.07l.11.16Z"/><path class="cls-2" d="M644.67,278.44l.07.09Z"/><path class="cls-2" d="M643.1,276.84l.07.07Z"/><path class="cls-2" d="M641.57,275.3l.07.07Z"/><path class="cls-2" d="M638.48,272.18l.08.08Z"/><path class="cls-2" d="M636.94,270.64l.07.08Z"/><path class="cls-4" d="M681.87,242.52c-1.5-1.89-3-3.79-4.48-5.68,1.84-3.07,12.37-8.89,15.25-8.39.42.07,1.13.55,1.09.73-.12.69-.31,1.67-.8,1.93a17.69,17.69,0,0,1-5,2C682.46,234.09,680,236.82,681.87,242.52Z"/><polygon class="cls-15" points="141.93 290.38 142.33 290.01 141.96 290.41 141.93 290.38"/></g></g></svg>